<svg width="375" height="812" viewBox="0 0 375 812" fill="none" xmlns="http://www.w3.org/2000/svg">
<g clip-path="url(#clip0)">
<rect width="375" height="812" fill="white"/>
<g clip-path="url(#clip1)">
<path d="M86.6156 0L132.403 104.871L178.125 0L86.6156 0Z" fill="#D1EBFF"/>
<path d="M375 558.016L352.65 609.271L375 660.464V558.016Z" fill="#D1EBFF"/>
<path d="M86.6158 0L0.000201849 0L0.000201849 408.584L132.403 104.871L86.6158 0Z" fill="#F0F8FF"/>
<path d="M375 660.464L352.65 609.271L264.216 812H375L375 660.464Z" fill="#F0F8FF"/>
<path d="M375 0L178.125 0L132.403 104.871L352.65 609.271L375 558.016L375 0Z" fill="#F0F8FF"/>
<path d="M-9.3354e-05 642.772L-9.3354e-05 812H74.1655L-9.3354e-05 642.772Z" fill="#D1EBFF"/>
</g>
<g opacity="0.36">
<path d="M59.5705 164.274H10.6313L10.7157 163.835C11.4981 159.791 15.0574 156.861 19.1765 156.861C19.7672 156.861 20.3655 156.922 20.9408 157.045C23.4875 152.186 28.4428 149.179 33.935 149.179C38.6141 149.179 43.0325 151.432 45.7939 155.215C46.7988 154.908 47.8497 154.754 48.9159 154.754C54.2394 154.754 58.6961 158.576 59.5092 163.843L59.5705 164.274ZM11.5288 163.543H58.7037C57.7832 158.929 53.6487 155.492 48.9082 155.492C47.8343 155.492 46.7758 155.661 45.7632 156L45.5024 156.084L45.349 155.861C42.7333 152.139 38.4607 149.917 33.9273 149.917C28.6192 149.917 23.8403 152.87 21.4547 157.63L21.3243 157.891L21.0405 157.822C20.4345 157.668 19.7979 157.591 19.1689 157.591C15.5559 157.599 12.411 160.067 11.5288 163.543Z" fill="#6AAFE8"/>
<path d="M239.311 103.88L239.142 103.795C221.776 94.9059 224.107 77.6889 224.13 77.5197L224.176 77.2044H224.491C235.537 77.2044 239.004 73.6365 239.035 73.598L239.303 73.3135L239.572 73.598C239.602 73.6288 243.077 77.1967 254.115 77.1967H254.43L254.476 77.512C254.499 77.6812 256.831 94.8982 239.464 103.787L239.311 103.88ZM224.821 77.9426C224.598 80.2726 223.87 95.052 239.303 103.065C254.744 95.052 254.008 80.2803 253.793 77.9426C244.205 77.8811 240.3 75.2051 239.303 74.3593C238.314 75.2051 234.409 77.8811 224.821 77.9426Z" fill="#6AAFE8"/>
<path d="M69.3431 200.576H38.3994V160.913H39.1358V199.846H69.3431V200.576Z" fill="#78C2FF"/>
<path d="M200.298 174.439H199.569V133.538H238.943V99.1428H239.679V134.269H200.298V174.439Z" fill="#78C2FF"/>
<path d="M327.501 220H286.532V219.27H326.765V195.424H327.501V220Z" fill="#78C2FF"/>
<path d="M263.52 112.961H257.245V112.23H262.791V106.679H263.52V112.961Z" fill="#6AAFE8"/>
<path d="M221.307 112.961H215.033V106.679H215.761V112.23H221.307V112.961Z" fill="#6AAFE8"/>
<path d="M263.519 80.0496H262.791V97.2819H263.519V80.0496Z" fill="#6AAFE8"/>
<path d="M215.769 80.0496H215.033V97.2819H215.769V80.0496Z" fill="#6AAFE8"/>
<path d="M38.7673 161.275C37.2868 161.275 36.0825 160.067 36.0825 158.583C36.0825 157.099 37.2868 155.892 38.7673 155.892C40.2477 155.892 41.452 157.099 41.452 158.583C41.452 160.067 40.2477 161.275 38.7673 161.275ZM38.7673 156.622C37.6857 156.622 36.8112 157.499 36.8112 158.583C36.8112 159.668 37.6857 160.544 38.7673 160.544C39.8488 160.544 40.7233 159.668 40.7233 158.583C40.7233 157.507 39.8488 156.622 38.7673 156.622Z" fill="#78C2FF"/>
<path d="M239.311 99.5119C237.83 99.5119 236.626 98.3047 236.626 96.8206C236.626 95.3365 237.83 94.1292 239.311 94.1292C240.791 94.1292 241.995 95.3365 241.995 96.8206C241.995 98.297 240.791 99.5119 239.311 99.5119ZM239.311 94.852C238.237 94.852 237.355 95.7286 237.355 96.8129C237.355 97.8971 238.229 98.7737 239.311 98.7737C240.392 98.7737 241.267 97.8971 241.267 96.8129C241.267 95.7363 240.385 94.852 239.311 94.852Z" fill="#78C2FF"/>
<path d="M327.133 195.916C325.652 195.916 324.448 194.709 324.448 193.225C324.448 191.741 325.652 190.534 327.133 190.534C328.613 190.534 329.817 191.741 329.817 193.225C329.817 194.709 328.613 195.916 327.133 195.916ZM327.133 191.264C326.051 191.264 325.176 192.141 325.176 193.225C325.176 194.309 326.051 195.186 327.133 195.186C328.214 195.186 329.089 194.309 329.089 193.225C329.089 192.141 328.214 191.264 327.133 191.264Z" fill="#78C2FF"/>
<path d="M56.5864 86.4858H38.146V68H56.5864V86.4858V86.4858ZM38.8747 85.7553H55.85V68.7305H38.8747V85.7553Z" fill="#A1D4FF"/>
<path d="M47.7268 73.0367H46.998V81.6567H47.7268V73.0367Z" fill="#A1D4FF"/>
<path d="M51.6697 76.9814H43.0708V77.712H51.6697V76.9814Z" fill="#A1D4FF"/>
<path d="M337.626 108.793H311.262V89.923H337.626V108.793ZM311.999 108.055H336.898V90.6612H311.999V108.055Z" fill="#A1D4FF"/>
<path d="M324.448 101.35L311.4 90.5766L311.868 90.0076L324.448 100.404L337.028 90.0076L337.496 90.5766L324.448 101.35Z" fill="#A1D4FF"/>
<path d="M328.049 98.1653L327.52 98.668L336.98 108.665L337.509 108.162L328.049 98.1653Z" fill="#A1D4FF"/>
<path d="M320.838 98.1836L311.385 108.188L311.914 108.69L321.367 98.686L320.838 98.1836Z" fill="#A1D4FF"/>
<path d="M102.603 127.74L102.327 127.025C102.081 126.994 101.844 126.941 101.606 126.856L101.046 127.379L99.4197 126.218L99.7342 125.518C99.5808 125.318 99.4504 125.111 99.343 124.888L98.5759 124.864L98.2461 122.896L98.9595 122.619C98.9902 122.373 99.0439 122.127 99.1282 121.896L98.6066 121.335L99.7649 119.705L100.463 120.02C100.662 119.866 100.869 119.736 101.092 119.628L101.115 118.859L103.079 118.528L103.355 119.243C103.6 119.274 103.846 119.328 104.076 119.413L104.636 118.89L106.262 120.051L105.947 120.751C106.101 120.95 106.231 121.158 106.339 121.381L107.106 121.404L107.436 123.373L106.722 123.65C106.692 123.896 106.63 124.142 106.553 124.372L107.083 124.934L105.924 126.564L105.226 126.249C105.035 126.402 104.82 126.533 104.597 126.641L104.574 127.41L102.603 127.74ZM101.483 126.226L101.644 126.287C101.936 126.402 102.243 126.472 102.557 126.495L102.726 126.51L102.964 127.125L104.045 126.941L104.068 126.279L104.229 126.21C104.513 126.079 104.782 125.918 105.019 125.718L105.15 125.61L105.748 125.879L106.385 124.988L105.932 124.503L105.994 124.342C106.109 124.049 106.178 123.742 106.201 123.434L106.216 123.265L106.83 123.027L106.646 121.942L105.986 121.919L105.917 121.766C105.786 121.481 105.625 121.212 105.426 120.974L105.318 120.843L105.587 120.243L104.697 119.605L104.214 120.058L104.053 119.997C103.761 119.882 103.455 119.812 103.148 119.789L102.979 119.774L102.741 119.159L101.66 119.343L101.637 120.005L101.475 120.074C101.192 120.205 100.923 120.366 100.685 120.566L100.555 120.674L99.9567 120.405L99.32 121.297L99.7726 121.781L99.7112 121.942C99.6038 122.235 99.5271 122.542 99.5041 122.857L99.4888 123.027L98.8751 123.265L99.0592 124.349L99.7189 124.372L99.7879 124.526C99.9183 124.811 100.079 125.08 100.287 125.318L100.394 125.449L100.125 126.049L101.015 126.687L101.483 126.226ZM102.841 125.31C102.396 125.31 101.959 125.172 101.591 124.911C100.616 124.219 100.386 122.857 101.084 121.881C101.775 120.904 103.132 120.674 104.107 121.373C104.582 121.712 104.889 122.212 104.989 122.781C105.088 123.35 104.95 123.926 104.62 124.403C104.283 124.88 103.784 125.187 103.217 125.287C103.079 125.295 102.956 125.31 102.841 125.31ZM102.849 121.512C102.342 121.512 101.844 121.75 101.529 122.196C101.276 122.55 101.176 122.981 101.253 123.403C101.322 123.834 101.56 124.203 101.913 124.457C102.266 124.711 102.695 124.811 103.117 124.734C103.539 124.665 103.915 124.426 104.168 124.072C104.421 123.719 104.521 123.288 104.444 122.865C104.375 122.435 104.137 122.065 103.784 121.812C103.501 121.612 103.171 121.512 102.849 121.512Z" fill="#A1D4FF"/>
<path d="M87.3766 130.04L86.7629 128.432C86.1033 128.356 85.4589 128.209 84.8376 127.994L83.5873 129.171L80.1968 126.748L80.8948 125.18C80.4883 124.665 80.1354 124.103 79.8516 123.503L78.1411 123.45L77.4507 119.336L79.0539 118.721C79.1306 118.059 79.2763 117.413 79.4911 116.79L78.3175 115.537L80.7261 112.138L82.2909 112.838C82.8049 112.423 83.3648 112.077 83.9631 111.792L84.0168 110.077L88.1207 109.385L88.7343 110.992C89.394 111.069 90.0383 111.215 90.6597 111.431L91.91 110.254L95.3005 112.676L94.6024 114.245C95.0166 114.76 95.3618 115.322 95.6456 115.921L97.3562 115.975L98.0466 120.089L96.4434 120.704C96.3667 121.366 96.2209 122.012 95.9985 122.635L97.1721 123.888L94.7558 127.287L93.191 126.587C92.6771 127.002 92.1171 127.348 91.5188 127.633L91.4651 129.348L87.3766 130.04ZM84.6688 127.148L84.8836 127.233C85.5816 127.502 86.3104 127.663 87.0544 127.733L87.2846 127.756L87.8445 129.224L90.7671 128.732L90.8131 127.164L91.0202 127.071C91.7029 126.764 92.3396 126.372 92.9072 125.887L93.0836 125.741L94.518 126.379L96.2363 123.957L95.1624 122.811L95.2468 122.596C95.5152 121.896 95.684 121.166 95.7454 120.42L95.7684 120.189L97.2335 119.628L96.7426 116.698L95.1777 116.652L95.0857 116.444C94.7788 115.76 94.38 115.122 93.9044 114.553L93.7586 114.376L94.3953 112.938L91.979 111.215L90.8361 112.292L90.6213 112.207C89.9233 111.938 89.1946 111.777 88.4505 111.708L88.2204 111.685L87.6604 110.216L84.7379 110.708L84.6842 112.277L84.4771 112.369C83.7944 112.676 83.1577 113.069 82.5901 113.553L82.4136 113.699L80.9792 113.061L79.261 115.483L80.3349 116.629L80.2505 116.844C79.982 117.536 79.8209 118.275 79.7519 119.02L79.7289 119.251L78.2638 119.812L78.7547 122.742L80.3195 122.788L80.4116 122.996C80.7184 123.68 81.1173 124.319 81.5929 124.888L81.7386 125.064L81.102 126.502L83.5182 128.225L84.6688 127.148ZM87.7448 124.457C86.7936 124.457 85.8348 124.172 85.0063 123.58C82.8816 122.065 82.383 119.097 83.8941 116.96C85.4052 114.83 88.3661 114.33 90.4909 115.845C92.6157 117.359 93.1143 120.328 91.6032 122.458C90.6827 123.765 89.2252 124.457 87.7448 124.457ZM87.7525 115.706C86.5021 115.706 85.2672 116.291 84.4847 117.39C83.8634 118.267 83.6179 119.328 83.802 120.381C83.9785 121.435 84.5538 122.365 85.4282 122.981C87.2232 124.265 89.7315 123.842 91.0125 122.035C91.6339 121.166 91.8793 120.097 91.6952 119.043C91.5188 117.99 90.9435 117.06 90.069 116.444C89.371 115.945 88.5579 115.706 87.7525 115.706Z" fill="#A1D4FF"/>
<path d="M-8.35379 133.9C-15.8788 133.9 -22 127.756 -22 120.212H-21.2713C-21.2713 127.356 -15.4799 133.162 -8.35379 133.162C-1.2277 133.162 4.56369 127.356 4.56369 120.212C4.56369 113.076 -1.2277 107.263 -8.35379 107.263V106.533C-0.828819 106.533 5.29241 112.669 5.29241 120.212C5.30008 127.756 -0.828819 133.9 -8.35379 133.9ZM-8.35379 131.993C-14.8355 131.993 -20.1053 126.71 -20.1053 120.212C-20.1053 113.715 -14.8355 108.432 -8.35379 108.432C-1.87204 108.432 3.39775 113.715 3.39775 120.212H2.66903C2.66903 114.122 -2.27091 109.162 -8.35379 109.162C-14.429 109.162 -19.3766 114.114 -19.3766 120.212C-19.3766 126.302 -14.4367 131.262 -8.35379 131.262V131.993Z" fill="#78C2FF"/>
<path d="M130.563 85.1785H150.722V99.8272V102.911L147.646 99.8272H130.563V85.1785Z" fill="#78C2FF"/>
<path d="M313.855 146.171H294.264V126.532H313.855V146.171ZM294.923 145.51H313.203V127.186H294.923V145.51Z" fill="#6AAFE8"/>
<path d="M362.602 133.73H317.767V128.931H362.602V133.73ZM318.426 133.076H361.95V129.585H318.426V133.076Z" fill="#6AAFE8"/>
<path d="M362.602 156.052H294.264V151.254H362.602V156.052ZM294.923 155.399H361.95V151.908H294.923V155.399Z" fill="#6AAFE8"/>
<path d="M337.795 165.272H294.271V160.474H337.795V165.272ZM294.923 164.619H337.143V161.128H294.923V164.619Z" fill="#6AAFE8"/>
<path d="M348.135 142.888H317.774V138.09H348.135V142.888ZM318.426 142.234H347.483V138.743H318.426V142.234Z" fill="#6AAFE8"/>
<path d="M370.388 175.707H286.486V116.097H370.381V175.707H370.388ZM287.138 175.053H369.728V116.751H287.138V175.053Z" fill="#6AAFE8"/>
</g>
<g opacity="0.35" clip-path="url(#clip2)">
<path d="M189.335 453.466H17.1294V575.908H189.335V453.466Z" fill="white"/>
<path d="M189.335 575.908C189.335 575.908 189.321 575.149 189.307 573.674C189.307 572.198 189.294 570.037 189.28 567.218C189.266 561.552 189.239 553.242 189.211 542.596C189.184 521.317 189.142 490.75 189.087 453.466L189.335 453.729C141.89 453.743 82.0261 453.772 17.143 453.802H17.1292L17.4318 453.48C17.418 497.103 17.418 538.579 17.4043 575.923L17.1155 575.616C67.8063 575.674 110.823 575.733 141.175 575.762C156.357 575.791 168.377 575.82 176.614 575.85C180.726 575.864 183.889 575.879 186.048 575.879C187.107 575.893 187.918 575.893 188.482 575.893C189.046 575.893 189.335 575.908 189.335 575.908C189.335 575.908 189.074 575.923 188.537 575.923C187.987 575.923 187.19 575.937 186.131 575.937C183.999 575.952 180.85 575.952 176.765 575.966C168.542 575.981 156.55 576.01 141.381 576.054C110.975 576.083 67.9025 576.142 17.143 576.2H16.8542V575.893C16.8404 538.55 16.8404 497.074 16.8267 453.451V453.13H17.1292H17.143C82.0123 453.159 141.876 453.174 189.335 453.203H189.582V453.466C189.527 490.809 189.486 521.449 189.459 542.756C189.431 553.374 189.404 561.669 189.39 567.321C189.376 570.125 189.362 572.272 189.362 573.732C189.349 575.178 189.335 575.908 189.335 575.908Z" fill="#E0E0E0"/>
<path d="M17.1294 464.39C17.1294 464.215 55.6495 464.068 103.15 464.068C150.678 464.068 189.184 464.215 189.184 464.39C189.184 464.565 150.678 464.711 103.15 464.711C55.6495 464.726 17.1294 464.58 17.1294 464.39Z" fill="#E0E0E0"/>
<g opacity="0.3">
<g opacity="0.3">
<path opacity="0.3" d="M23.9228 458.884C23.9228 459.687 23.304 460.344 22.5476 460.344C21.7912 460.344 21.1724 459.687 21.1724 458.884C21.1724 458.081 21.7912 457.424 22.5476 457.424C23.304 457.424 23.9228 458.081 23.9228 458.884Z" fill="#E0E0E0"/>
</g>
</g>
<g opacity="0.3">
<g opacity="0.3">
<path opacity="0.3" d="M27.2649 460.344C28.0244 460.344 28.6401 459.691 28.6401 458.884C28.6401 458.077 28.0244 457.424 27.2649 457.424C26.5054 457.424 25.8896 458.077 25.8896 458.884C25.8896 459.691 26.5054 460.344 27.2649 460.344Z" fill="#E0E0E0"/>
</g>
</g>
<g opacity="0.3">
<g opacity="0.3">
<path opacity="0.3" d="M33.3154 458.884C33.3154 459.687 32.6965 460.344 31.9402 460.344C31.1838 460.344 30.5649 459.687 30.5649 458.884C30.5649 458.081 31.1838 457.424 31.9402 457.424C32.6965 457.424 33.3154 458.081 33.3154 458.884Z" fill="#E0E0E0"/>
</g>
</g>
<path d="M77.8593 477.168H31.9268V525.947H77.8593V477.168Z" fill="#E0E0E0"/>
<path d="M165.708 490.955C165.708 491.13 147.789 491.276 125.703 491.276C103.603 491.276 85.6841 491.13 85.6841 490.955C85.6841 490.78 103.59 490.634 125.703 490.634C147.803 490.619 165.708 490.765 165.708 490.955Z" fill="#E0E0E0"/>
<path d="M165.708 500.024C165.708 500.199 147.789 500.345 125.703 500.345C103.603 500.345 85.6841 500.199 85.6841 500.024C85.6841 499.849 103.59 499.703 125.703 499.703C147.803 499.688 165.708 499.834 165.708 500.024Z" fill="#E0E0E0"/>
<path d="M165.708 509.079C165.708 509.254 147.789 509.4 125.703 509.4C103.603 509.4 85.6841 509.254 85.6841 509.079C85.6841 508.904 103.59 508.758 125.703 508.758C147.803 508.758 165.708 508.904 165.708 509.079Z" fill="#E0E0E0"/>
<path d="M132.992 518.148C132.992 518.192 132.332 518.236 131.135 518.28C129.829 518.309 128.123 518.338 126.061 518.382C121.784 518.44 115.87 518.484 109.338 518.484C102.806 518.484 96.8921 518.44 92.6151 518.382C90.5661 518.338 88.8608 518.309 87.5543 518.28C86.3579 518.236 85.6978 518.192 85.6978 518.148C85.6978 518.104 86.3579 518.06 87.5543 518.017C88.8608 517.987 90.5661 517.958 92.6151 517.914C96.8921 517.856 102.806 517.812 109.338 517.812C115.87 517.812 121.784 517.856 126.061 517.914C128.11 517.958 129.815 517.987 131.135 518.017C132.318 518.06 132.992 518.104 132.992 518.148Z" fill="#E0E0E0"/>
<path d="M56.3918 542.391H34.8008V565.32H56.3918V542.391Z" fill="#E0E0E0"/>
<path d="M95.5447 542.391H73.9536V565.32H95.5447V542.391Z" fill="#E0E0E0"/>
<path d="M134.698 542.391H113.106V565.32H134.698V542.391Z" fill="#E0E0E0"/>
<path d="M173.85 542.391H152.259V565.32H173.85V542.391Z" fill="#E0E0E0"/>
<path d="M344.048 588.482C344.048 588.482 343.883 589.3 343.113 590.556C342.356 591.783 340.844 593.433 338.396 594.222C337.186 594.601 335.769 594.762 334.298 594.47C332.84 594.178 331.3 593.506 330.034 592.309C329.388 591.739 328.824 591.023 328.343 590.235C327.862 589.446 327.49 588.57 327.257 587.621C326.748 585.751 326.844 583.634 327.532 581.691C328.247 579.764 329.512 578.128 331.08 577.106C331.85 576.58 332.689 576.185 333.541 575.952C334.394 575.704 335.26 575.587 336.099 575.616C337.791 575.63 339.345 576.229 340.624 577.047C341.903 577.88 342.852 579.019 343.498 580.158C344.818 582.48 344.887 584.802 344.681 586.248C344.433 587.767 344.048 588.482 344.048 588.482C343.993 588.468 344.309 587.708 344.461 586.248C344.612 584.817 344.474 582.597 343.168 580.377C342.522 579.296 341.6 578.215 340.376 577.441C339.152 576.682 337.667 576.127 336.072 576.127C335.274 576.098 334.449 576.215 333.651 576.463C332.84 576.697 332.056 577.062 331.327 577.573C329.856 578.551 328.659 580.099 327.985 581.91C327.339 583.736 327.243 585.737 327.724 587.504C327.944 588.395 328.288 589.227 328.742 589.972C329.182 590.717 329.718 591.389 330.323 591.943C331.52 593.083 332.964 593.74 334.353 594.032C335.755 594.324 337.117 594.193 338.286 593.842C340.651 593.126 342.15 591.578 342.948 590.41C343.745 589.256 343.993 588.453 344.048 588.482Z" fill="#E0E0E0"/>
<path d="M352.258 597.303C352.258 597.303 352.354 597.303 352.561 597.332C352.781 597.362 353.097 597.405 353.482 597.449C354.335 597.566 355.545 597.741 357.126 597.975L357.044 598.033C357.786 595.96 358.749 593.243 359.932 589.957L359.973 590.118C358.735 589.242 357.36 588.263 355.875 587.226L355.806 587.168L355.82 587.08C355.999 585.328 355.971 583.444 355.669 581.487L355.655 581.385L355.737 581.326C356.961 580.348 358.295 579.296 359.671 578.186L359.616 578.42C358.57 575.937 357.456 573.294 356.301 570.534L356.521 570.65C355.022 570.972 353.386 571.308 351.694 571.673L351.57 571.702L351.488 571.6C350.47 570.242 349.178 568.898 347.679 567.759L347.569 567.671L347.582 567.54C347.802 565.933 348.036 564.166 348.284 562.37L348.421 562.633C346.028 561.654 343.457 560.603 340.83 559.537L341.105 559.449C340.252 560.807 339.317 562.282 338.368 563.786L338.286 563.918L338.148 563.903C336.512 563.713 334.71 563.743 332.909 564.049L332.757 564.079L332.675 563.947C331.753 562.633 330.75 561.201 329.732 559.756L330.034 559.843C327.683 560.953 325.152 562.151 322.594 563.348L322.732 563.056C323.035 564.677 323.365 566.415 323.681 568.182L323.708 568.343L323.585 568.445C322.292 569.555 321.027 570.928 319.982 572.476C319.871 572.52 320.215 572.374 319.748 572.578H319.734H319.72H319.679L319.596 572.564L319.445 572.534L319.143 572.491L318.538 572.388L317.314 572.199C316.502 572.067 315.691 571.95 314.893 571.819L315.168 571.658C314.178 574.389 313.202 577.076 312.239 579.72L312.143 579.413C313.518 580.392 314.879 581.355 316.227 582.319L316.351 582.407L316.337 582.568C316.145 584.437 316.2 586.321 316.461 588.132L316.488 588.292L316.365 588.38C315.031 589.432 313.71 590.468 312.418 591.505L312.487 591.199C313.614 593.9 314.714 596.529 315.773 599.1L315.512 598.954C317.149 598.618 318.758 598.282 320.339 597.946L320.477 597.917L320.559 598.033C321.673 599.523 322.966 600.808 324.355 601.889L324.465 601.977L324.451 602.108C324.203 603.875 323.97 605.598 323.736 607.278L323.598 607.044C326.266 608.14 328.783 609.177 331.19 610.17L330.956 610.243C331.918 608.724 332.826 607.293 333.706 605.905L333.761 605.803L333.871 605.818C335.742 606.037 337.488 605.964 339.125 605.686L339.221 605.672L339.276 605.759C340.335 607.278 341.297 608.665 342.205 609.965L342.026 609.921C344.914 608.578 347.376 607.439 349.48 606.446L349.411 606.577C349.04 604.532 348.737 602.853 348.49 601.451L348.476 601.392L348.517 601.363C349.92 600.18 350.814 599.129 351.392 598.428C351.667 598.077 351.873 597.814 352.024 597.625C352.189 597.376 352.258 597.289 352.258 597.303C352.258 597.303 352.203 597.405 352.079 597.595C351.956 597.785 351.763 598.063 351.488 598.428C350.938 599.158 350.044 600.224 348.655 601.451L348.682 601.363C348.958 602.765 349.274 604.43 349.659 606.475L349.673 606.562L349.59 606.606C347.486 607.599 345.038 608.768 342.164 610.14L342.054 610.199L341.985 610.097C341.077 608.811 340.101 607.439 339.028 605.92L339.18 605.993C337.516 606.285 335.728 606.358 333.83 606.153L333.995 606.066C333.129 607.453 332.221 608.884 331.272 610.403L331.19 610.535L331.052 610.476C328.645 609.498 326.129 608.476 323.447 607.38L323.296 607.322L323.323 607.147C323.557 605.467 323.791 603.744 324.025 601.977L324.107 602.196C322.691 601.1 321.37 599.786 320.215 598.267L320.435 598.355C318.854 598.691 317.245 599.027 315.608 599.377L315.43 599.421L315.361 599.246C314.288 596.675 313.188 594.047 312.06 591.345L311.978 591.155L312.129 591.038C313.422 590.016 314.742 588.964 316.076 587.913L315.98 588.161C315.705 586.306 315.65 584.378 315.842 582.465L315.952 582.714C314.604 581.75 313.243 580.786 311.868 579.807L311.703 579.691L311.771 579.501C312.734 576.843 313.71 574.155 314.701 571.439L314.769 571.235L314.962 571.264C315.773 571.395 316.571 571.512 317.382 571.644L318.606 571.833L319.211 571.936L319.514 571.979L319.665 572.009L319.748 572.023H319.789H319.803H319.816C319.335 572.242 319.679 572.082 319.583 572.125C320.669 570.534 321.948 569.132 323.282 567.992L323.2 568.255C322.869 566.503 322.553 564.75 322.251 563.129L322.209 562.925L322.388 562.837C324.946 561.64 327.476 560.442 329.828 559.332L330.007 559.245L330.131 559.405C331.148 560.851 332.152 562.282 333.074 563.597L332.84 563.494C334.683 563.188 336.539 563.158 338.203 563.348L337.983 563.465C338.932 561.961 339.867 560.486 340.72 559.128L340.83 558.967L341.009 559.04C343.649 560.121 346.221 561.172 348.6 562.151L348.765 562.224L348.737 562.414C348.49 564.21 348.242 565.977 348.022 567.584L347.94 567.364C349.466 568.533 350.773 569.92 351.818 571.293L351.612 571.22C353.303 570.87 354.94 570.534 356.439 570.212L356.59 570.183L356.659 570.329C357.814 573.104 358.914 575.747 359.946 578.23L360.001 578.376L359.891 578.464C358.502 579.559 357.168 580.611 355.944 581.574L356.012 581.414C356.301 583.4 356.315 585.313 356.122 587.095L356.054 586.949C357.525 588 358.887 588.993 360.124 589.87L360.207 589.928L360.166 590.03C358.955 593.302 357.952 596.018 357.195 598.077L357.168 598.136L357.099 598.121C355.531 597.858 354.335 597.654 353.496 597.522C353.097 597.449 352.794 597.391 352.561 597.362C352.382 597.332 352.272 597.303 352.258 597.303Z" fill="#E0E0E0"/>
<path fill-rule="evenodd" clip-rule="evenodd" d="M395.536 572.71C394.656 573.995 393.639 575.119 392.497 576.098L393.281 580.348L387.106 583.254L384.672 579.778C383.228 580.026 381.757 580.07 380.271 579.895L378.002 583.488L371.704 580.903L372.295 576.609C371.085 575.674 370.026 574.594 369.105 573.381L365.103 574.214L362.366 567.657L365.639 565.072C365.405 563.538 365.364 561.976 365.529 560.398L362.146 557.989L364.58 551.3L368.623 551.928C369.503 550.643 370.521 549.518 371.663 548.54L370.879 544.29L377.053 541.383L379.488 544.859C380.932 544.611 382.403 544.567 383.888 544.742L386.157 541.15L392.456 543.735L391.865 548.014C393.075 548.948 394.134 550.029 395.055 551.241L399.057 550.409L401.794 556.966L398.521 559.551C398.754 561.085 398.796 562.647 398.631 564.225L402.014 566.634L399.58 573.323L395.536 572.71ZM388.729 565.408C390.173 561.45 388.303 556.995 384.576 555.462C380.849 553.929 376.655 555.915 375.211 559.872C373.767 563.83 375.637 568.285 379.364 569.818C383.091 571.337 387.285 569.365 388.729 565.408Z" fill="#E0E0E0"/>
<path fill-rule="evenodd" clip-rule="evenodd" d="M368.939 532.767C367.564 534.782 365.955 536.549 364.181 538.068L365.419 544.742L355.737 549.299L351.914 543.852C349.659 544.231 347.335 544.304 345.01 544.041L341.449 549.679L331.575 545.633L332.496 538.915C330.598 537.455 328.934 535.746 327.504 533.862L321.219 535.177L316.928 524.895L322.058 520.835C321.7 518.44 321.632 515.972 321.879 513.504L316.571 509.721L320.38 499.221L326.706 500.199C328.081 498.184 329.69 496.417 331.465 494.898L330.227 488.224L339.908 483.667L343.732 489.115C345.987 488.735 348.311 488.662 350.635 488.925L354.197 483.288L364.071 487.333L363.15 494.051C365.048 495.511 366.725 497.22 368.156 499.104L374.44 497.79L378.731 508.071L373.601 512.131C373.959 514.526 374.028 516.994 373.78 519.462L379.089 523.245L375.279 533.731L368.939 532.767ZM358.254 521.303C360.509 515.081 357.594 508.1 351.735 505.705C345.877 503.31 339.303 506.406 337.048 512.628C334.793 518.849 337.708 525.83 343.567 528.225C349.425 530.62 355.999 527.524 358.254 521.303Z" fill="#E0E0E0"/>
<path d="M225.518 600.151C225.49 600.122 225.752 599.815 226.233 599.289C226.797 598.691 227.498 597.946 228.323 597.055C230.097 595.186 232.586 592.63 235.337 589.84L235.406 589.782V590.162C232.628 587.416 230.125 584.919 228.337 583.093C227.512 582.232 226.81 581.501 226.233 580.903C225.738 580.377 225.49 580.07 225.504 580.056C225.531 580.026 225.834 580.275 226.357 580.757C226.948 581.312 227.691 582.013 228.557 582.816C230.4 584.583 232.944 587.036 235.722 589.782L235.914 589.972L235.722 590.162L235.653 590.22C232.889 593.01 230.372 595.522 228.543 597.318C227.677 598.15 226.948 598.851 226.343 599.421C225.834 599.917 225.545 600.166 225.518 600.151Z" fill="#E0E0E0"/>
<path d="M204.051 580.041C204.078 580.07 203.817 580.377 203.335 580.903C202.772 581.501 202.07 582.246 201.245 583.137C199.471 585.006 196.982 587.562 194.231 590.352L194.163 590.41V590.03C196.941 592.776 199.443 595.273 201.231 597.099C202.056 597.96 202.758 598.691 203.335 599.289C203.83 599.815 204.078 600.122 204.064 600.136C204.037 600.166 203.734 599.917 203.212 599.435C202.62 598.881 201.878 598.18 201.011 597.376C199.168 595.609 196.624 593.156 193.846 590.41L193.654 590.22L193.846 590.03L193.915 589.972C196.679 587.182 199.196 584.671 201.025 582.874C201.891 582.042 202.62 581.341 203.225 580.771C203.734 580.275 204.023 580.012 204.051 580.041Z" fill="#E0E0E0"/>
<path d="M209.565 604.883C209.441 604.839 211.697 598.106 214.598 589.87C217.5 581.618 219.962 574.973 220.085 575.032C220.209 575.076 217.954 581.808 215.052 590.06C212.137 598.282 209.689 604.927 209.565 604.883Z" fill="#E0E0E0"/>
<path d="M249.9 619.268C249.9 619.268 249.887 618.874 249.873 618.144C249.873 617.399 249.859 616.318 249.845 614.901C249.832 612.054 249.818 607.921 249.79 602.648C249.763 592.104 249.735 577.018 249.68 558.85L249.887 559.069C229.918 559.084 205.893 559.098 180.08 559.113L180.328 558.85C180.314 580.684 180.314 601.319 180.3 619.268L180.08 619.034C200.805 619.078 218.229 619.122 230.496 619.151C236.629 619.18 241.456 619.195 244.785 619.21C246.435 619.224 247.7 619.224 248.58 619.239C249.006 619.239 249.323 619.253 249.557 619.253C249.79 619.268 249.9 619.268 249.9 619.268C249.9 619.268 249.804 619.283 249.584 619.283C249.35 619.283 249.034 619.297 248.621 619.297C247.755 619.297 246.504 619.312 244.867 619.326C241.553 619.341 236.739 619.356 230.62 619.385C218.325 619.414 200.846 619.458 180.066 619.502H179.846V619.268C179.833 601.319 179.833 580.698 179.819 558.85V558.587H180.066C205.893 558.602 229.905 558.617 249.873 558.631H250.079V558.85C250.038 577.076 249.997 592.206 249.969 602.78C249.942 608.037 249.928 612.156 249.914 614.989C249.9 616.376 249.9 617.443 249.887 618.187C249.928 618.918 249.9 619.268 249.9 619.268Z" fill="#E0E0E0"/>
<path d="M250.451 567.817C250.451 567.963 234.69 568.08 215.259 568.08C195.813 568.08 180.053 567.963 180.053 567.817C180.053 567.671 195.813 567.554 215.259 567.554C234.69 567.569 250.451 567.671 250.451 567.817Z" fill="#E0E0E0"/>
<path d="M185.787 563.407C185.787 563.962 185.361 564.414 184.852 564.414C184.33 564.414 183.917 563.962 183.917 563.407C183.917 562.852 184.343 562.399 184.852 562.399C185.361 562.414 185.787 562.852 185.787 563.407Z" fill="#E0E0E0"/>
<path d="M188.276 564.414C188.793 564.414 189.212 563.963 189.212 563.407C189.212 562.85 188.793 562.399 188.276 562.399C187.76 562.399 187.341 562.85 187.341 563.407C187.341 563.963 187.76 564.414 188.276 564.414Z" fill="#E0E0E0"/>
<path d="M192.636 563.407C192.636 563.962 192.21 564.414 191.701 564.414C191.178 564.414 190.766 563.962 190.766 563.407C190.766 562.852 191.192 562.399 191.701 562.399C192.223 562.414 192.636 562.852 192.636 563.407Z" fill="#E0E0E0"/>
<path d="M324.561 364.277H163.137V433.911H324.561V364.277Z" fill="white"/>
<path d="M324.561 433.911C324.561 433.911 324.548 433.487 324.548 432.669C324.548 431.851 324.534 430.639 324.534 429.062C324.52 425.878 324.506 421.22 324.493 415.203C324.465 403.183 324.437 385.804 324.396 364.277L324.575 364.467C283.511 364.482 226.343 364.511 163.151 364.555H163.137L163.399 364.277C163.399 388.667 163.385 412.194 163.385 433.911L163.137 433.648C209.909 433.692 250.23 433.735 278.876 433.765C293.206 433.794 304.62 433.823 312.446 433.838C316.365 433.852 319.377 433.867 321.426 433.867C322.443 433.867 323.214 433.881 323.75 433.881C324.286 433.896 324.561 433.911 324.561 433.911C324.561 433.911 324.3 433.925 323.791 433.925C323.269 433.925 322.498 433.94 321.494 433.94C319.459 433.954 316.447 433.954 312.556 433.969C304.73 433.984 293.344 434.013 279.041 434.042C250.354 434.071 209.977 434.115 163.137 434.159H162.89V433.896C162.89 412.179 162.876 388.652 162.876 364.263V364H163.137H163.151C226.343 364.029 283.497 364.058 324.575 364.088H324.754V364.277C324.713 385.848 324.685 403.271 324.658 415.305C324.644 421.293 324.63 425.951 324.616 429.12C324.603 430.683 324.603 431.881 324.603 432.699C324.575 433.502 324.561 433.911 324.561 433.911Z" fill="#E0E0E0"/>
<path d="M163.289 373.668C163.289 373.522 199.374 373.391 243.877 373.391C288.393 373.391 324.465 373.507 324.465 373.668C324.465 373.814 288.393 373.946 243.877 373.946C199.374 373.931 163.289 373.814 163.289 373.668Z" fill="#E0E0E0"/>
<g opacity="0.3">
<g opacity="0.3">
<path opacity="0.3" d="M170.055 369.462C170.055 370.148 169.532 370.703 168.886 370.703C168.239 370.703 167.717 370.148 167.717 369.462C167.717 368.776 168.239 368.221 168.886 368.221C169.532 368.221 170.055 368.776 170.055 369.462Z" fill="#EBEBEB"/>
</g>
</g>
<g opacity="0.3">
<g opacity="0.3">
<path opacity="0.3" d="M174.07 369.462C174.07 370.148 173.548 370.703 172.901 370.703C172.255 370.703 171.732 370.148 171.732 369.462C171.732 368.776 172.255 368.221 172.901 368.221C173.548 368.221 174.07 368.776 174.07 369.462Z" fill="#EBEBEB"/>
</g>
</g>
<g opacity="0.3">
<g opacity="0.3">
<path opacity="0.3" d="M176.849 370.703C177.494 370.703 178.018 370.148 178.018 369.462C178.018 368.776 177.494 368.221 176.849 368.221C176.203 368.221 175.68 368.776 175.68 369.462C175.68 370.148 176.203 370.703 176.849 370.703Z" fill="#EBEBEB"/>
</g>
</g>
<path d="M215.836 384.986H176.848V426.389H215.836V384.986Z" fill="#E0E0E0"/>
<path d="M313.395 396.071C313.395 396.217 293.331 396.348 268.591 396.348C243.837 396.348 223.772 396.232 223.772 396.071C223.772 395.925 243.837 395.794 268.591 395.794C293.331 395.808 313.395 395.925 313.395 396.071Z" fill="#E0E0E0"/>
<path d="M313.394 404.512C313.394 404.658 293.33 404.79 268.59 404.79C243.836 404.79 223.771 404.673 223.771 404.512C223.771 404.366 243.836 404.235 268.59 404.235C293.33 404.235 313.394 404.366 313.394 404.512Z" fill="#E0E0E0"/>
<path d="M281.462 412.954C281.462 412.968 281.256 412.997 280.87 413.012C280.43 413.027 279.88 413.041 279.193 413.056C277.666 413.07 275.576 413.1 273.004 413.143C267.723 413.158 260.545 413.187 252.61 413.216C244.674 413.187 237.496 413.158 232.215 413.143C229.657 413.114 227.567 413.085 226.026 413.056C225.339 413.041 224.789 413.012 224.349 413.012C223.964 412.997 223.757 412.983 223.757 412.954C223.757 412.939 223.964 412.91 224.349 412.895C224.789 412.88 225.339 412.866 226.026 412.851C227.553 412.837 229.643 412.807 232.215 412.764C237.496 412.749 244.674 412.72 252.61 412.691C260.545 412.72 267.723 412.749 273.004 412.764C275.562 412.793 277.652 412.822 279.193 412.851C279.88 412.866 280.43 412.895 280.87 412.895C281.256 412.91 281.462 412.924 281.462 412.954Z" fill="#E0E0E0"/>
<path d="M118.608 366.804H37.1255V428.492H118.608V366.804Z" fill="#93A1D9"/>
<path d="M119.254 375.961C119.254 376.165 100.853 376.341 78.1756 376.341C55.4844 376.341 37.0977 376.165 37.0977 375.961C37.0977 375.756 55.4844 375.581 78.1756 375.581C100.853 375.581 119.254 375.756 119.254 375.961Z" fill="white"/>
<path d="M43.7814 371.463C43.7814 372.032 43.2863 372.485 42.6812 372.485C42.0761 372.485 41.5811 372.032 41.5811 371.463C41.5811 370.893 42.0761 370.44 42.6812 370.44C43.2863 370.44 43.7814 370.893 43.7814 371.463Z" fill="white"/>
<path d="M47.7697 371.463C47.7697 372.032 47.2746 372.485 46.6695 372.485C46.0644 372.485 45.5693 372.032 45.5693 371.463C45.5693 370.893 46.0644 370.44 46.6695 370.44C47.2884 370.44 47.7697 370.893 47.7697 371.463Z" fill="white"/>
<path d="M50.6715 372.485C51.2791 372.485 51.7716 372.027 51.7716 371.463C51.7716 370.898 51.2791 370.44 50.6715 370.44C50.0639 370.44 49.5713 370.898 49.5713 371.463C49.5713 372.027 50.0639 372.485 50.6715 372.485Z" fill="white"/>
<path d="M56.3828 402.803H52.5303L51.7979 405H49.4614L53.4312 394.336H55.4673L59.459 405H57.1226L56.3828 402.803ZM53.1235 401.023H55.7896L54.4492 397.031L53.1235 401.023ZM61.9126 397.075L61.9785 397.991C62.5449 397.283 63.3042 396.929 64.2563 396.929C65.0962 396.929 65.7212 397.175 66.1313 397.668C66.5415 398.162 66.7515 398.899 66.7612 399.88V405H64.6445V399.932C64.6445 399.482 64.5469 399.158 64.3516 398.958C64.1562 398.752 63.8315 398.65 63.3774 398.65C62.7817 398.65 62.335 398.904 62.0371 399.412V405H59.9204V397.075H61.9126ZM68.043 400.979C68.043 399.744 68.3188 398.76 68.8706 398.027C69.4272 397.295 70.1865 396.929 71.1484 396.929C71.9199 396.929 72.5571 397.217 73.0601 397.793V393.75H75.1841V405H73.2725L73.1699 404.158C72.6426 404.817 71.9639 405.146 71.1338 405.146C70.2012 405.146 69.4517 404.78 68.8853 404.048C68.3237 403.311 68.043 402.288 68.043 400.979ZM70.1597 401.133C70.1597 401.875 70.2891 402.444 70.5479 402.839C70.8066 403.235 71.1826 403.433 71.6758 403.433C72.3301 403.433 72.7915 403.157 73.0601 402.605V399.478C72.7964 398.926 72.3398 398.65 71.6904 398.65C70.6699 398.65 70.1597 399.478 70.1597 401.133ZM81.2778 399.06C80.9897 399.021 80.7358 399.001 80.5161 399.001C79.7153 399.001 79.1904 399.272 78.9414 399.814V405H76.8247V397.075H78.8242L78.8828 398.02C79.3076 397.292 79.896 396.929 80.6479 396.929C80.8823 396.929 81.1021 396.96 81.3071 397.024L81.2778 399.06ZM81.71 400.964C81.71 400.178 81.8613 399.478 82.1641 398.862C82.4668 398.247 82.9014 397.771 83.4678 397.434C84.0391 397.097 84.7007 396.929 85.4526 396.929C86.522 396.929 87.3936 397.256 88.0674 397.91C88.7461 398.564 89.1245 399.453 89.2026 400.576L89.2173 401.118C89.2173 402.334 88.8779 403.311 88.1992 404.048C87.5205 404.78 86.6099 405.146 85.4673 405.146C84.3247 405.146 83.4116 404.78 82.728 404.048C82.0493 403.315 81.71 402.319 81.71 401.06V400.964ZM83.8267 401.118C83.8267 401.87 83.9683 402.446 84.2515 402.847C84.5347 403.242 84.9399 403.44 85.4673 403.44C85.98 403.44 86.3804 403.245 86.6685 402.854C86.9565 402.458 87.1006 401.829 87.1006 400.964C87.1006 400.227 86.9565 399.656 86.6685 399.25C86.3804 398.845 85.9751 398.643 85.4526 398.643C84.9351 398.643 84.5347 398.845 84.2515 399.25C83.9683 399.651 83.8267 400.273 83.8267 401.118ZM92.7549 405H90.6309V397.075H92.7549V405ZM90.5063 395.024C90.5063 394.707 90.6113 394.446 90.8213 394.241C91.0361 394.036 91.3267 393.933 91.6929 393.933C92.0542 393.933 92.3423 394.036 92.5571 394.241C92.772 394.446 92.8794 394.707 92.8794 395.024C92.8794 395.347 92.7695 395.61 92.5498 395.815C92.335 396.021 92.0493 396.123 91.6929 396.123C91.3364 396.123 91.0483 396.021 90.8286 395.815C90.6138 395.61 90.5063 395.347 90.5063 395.024ZM94.1758 400.979C94.1758 399.744 94.4517 398.76 95.0034 398.027C95.5601 397.295 96.3193 396.929 97.2812 396.929C98.0527 396.929 98.6899 397.217 99.1929 397.793V393.75H101.317V405H99.4053L99.3027 404.158C98.7754 404.817 98.0967 405.146 97.2666 405.146C96.334 405.146 95.5845 404.78 95.0181 404.048C94.4565 403.311 94.1758 402.288 94.1758 400.979ZM96.2925 401.133C96.2925 401.875 96.4219 402.444 96.6807 402.839C96.9395 403.235 97.3154 403.433 97.8086 403.433C98.4629 403.433 98.9243 403.157 99.1929 402.605V399.478C98.9292 398.926 98.4727 398.65 97.8232 398.65C96.8027 398.65 96.2925 399.478 96.2925 401.133Z" fill="white"/>
<path d="M169.778 470.714H129.111V501.502H169.778V470.714Z" fill="#93A1D9"/>
<path d="M170.099 475.284C170.099 475.386 160.916 475.474 149.598 475.474C138.273 475.474 129.097 475.386 129.097 475.284C129.097 475.182 138.273 475.095 149.598 475.095C160.916 475.095 170.099 475.182 170.099 475.284Z" fill="white"/>
<path d="M132.432 473.039C132.432 473.324 132.185 473.55 131.883 473.55C131.581 473.55 131.334 473.324 131.334 473.039C131.334 472.755 131.581 472.529 131.883 472.529C132.185 472.529 132.432 472.755 132.432 473.039Z" fill="white"/>
<path d="M134.422 473.039C134.422 473.324 134.175 473.55 133.873 473.55C133.571 473.55 133.324 473.324 133.324 473.039C133.324 472.755 133.571 472.529 133.873 472.529C134.182 472.529 134.422 472.755 134.422 473.039Z" fill="white"/>
<path d="M135.871 473.55C136.174 473.55 136.42 473.321 136.42 473.039C136.42 472.758 136.174 472.529 135.871 472.529C135.568 472.529 135.322 472.758 135.322 473.039C135.322 473.321 135.568 473.55 135.871 473.55Z" fill="white"/>
<path d="M146.455 495.17H139.705V502.143H136.189V485.08H147.299V487.928H139.705V492.334H146.455V495.17ZM152.689 502.143H149.291V484.143H152.689V502.143ZM163.084 500.854C162.248 501.869 161.092 502.377 159.615 502.377C158.256 502.377 157.217 501.987 156.498 501.205C155.787 500.424 155.424 499.28 155.408 497.772V489.463H158.795V497.655C158.795 498.975 159.396 499.635 160.6 499.635C161.748 499.635 162.537 499.237 162.967 498.44V489.463H166.365V502.143H163.178L163.084 500.854ZM172.975 486.346V489.463H175.143V491.948H172.975V498.276C172.975 498.744 173.064 499.08 173.244 499.283C173.424 499.487 173.768 499.588 174.275 499.588C174.65 499.588 174.982 499.561 175.271 499.506V502.073C174.607 502.276 173.924 502.377 173.221 502.377C170.846 502.377 169.635 501.178 169.588 498.78V491.948H167.736V489.463H169.588V486.346H172.975ZM140.021 514.346V517.463H142.189V519.948H140.021V526.276C140.021 526.744 140.111 527.08 140.291 527.283C140.471 527.487 140.814 527.588 141.322 527.588C141.697 527.588 142.029 527.561 142.318 527.506V530.073C141.654 530.276 140.971 530.377 140.268 530.377C137.893 530.377 136.682 529.178 136.635 526.78V519.948H134.783V517.463H136.635V514.346H140.021ZM149.912 530.377C148.053 530.377 146.537 529.807 145.365 528.666C144.201 527.526 143.619 526.006 143.619 524.108V523.78C143.619 522.506 143.865 521.369 144.357 520.369C144.85 519.362 145.545 518.588 146.443 518.049C147.35 517.502 148.381 517.229 149.537 517.229C151.271 517.229 152.635 517.776 153.627 518.869C154.627 519.963 155.127 521.514 155.127 523.522V524.905H147.053C147.162 525.733 147.49 526.397 148.037 526.897C148.592 527.397 149.291 527.647 150.135 527.647C151.439 527.647 152.459 527.174 153.193 526.229L154.857 528.092C154.35 528.811 153.662 529.373 152.795 529.78C151.928 530.178 150.967 530.377 149.912 530.377ZM149.525 519.971C148.854 519.971 148.307 520.198 147.885 520.651C147.471 521.104 147.205 521.752 147.088 522.596H151.799V522.326C151.783 521.576 151.58 520.998 151.189 520.592C150.799 520.178 150.244 519.971 149.525 519.971ZM164.186 520.639C163.725 520.576 163.318 520.545 162.967 520.545C161.686 520.545 160.846 520.979 160.447 521.846V530.143H157.061V517.463H160.26L160.354 518.975C161.033 517.811 161.975 517.229 163.178 517.229C163.553 517.229 163.904 517.28 164.232 517.381L164.186 520.639Z" fill="white"/>
<path d="M284.185 457.277H210.528V513.037H284.185V457.277Z" fill="#93A1D9"/>
<path d="M235.378 483.171V494.241H232.971V489.699H228.24V494.241H225.833V483.171H228.24V487.538H232.971V483.171H235.378Z" fill="white"/>
<path d="M239.999 485.259H236.657V483.171H245.733V485.259H242.391V494.241H239.985V485.259H239.999Z" fill="white"/>
<path d="M261.05 483.171H263.456V492.152H268.682V494.241H261.05V483.171Z" fill="white"/>
<path d="M256.401 494.241L256.387 487.596L253.32 493.073H252.234L249.181 487.742V494.241H246.912V483.171H248.906L252.811 490.049L256.648 483.171H258.629L258.656 494.241H256.401V494.241Z" fill="white"/>
<path d="M284.776 465.558C284.776 465.69 268.149 465.806 247.645 465.806C227.126 465.806 210.5 465.69 210.5 465.558C210.5 465.427 227.126 465.31 247.645 465.31C268.149 465.31 284.776 465.427 284.776 465.558Z" fill="white"/>
<path d="M216.537 461.484C216.537 461.995 216.097 462.404 215.547 462.404C214.997 462.404 214.557 461.995 214.557 461.484C214.557 460.972 214.997 460.563 215.547 460.563C216.097 460.563 216.537 460.972 216.537 461.484Z" fill="white"/>
<path d="M220.154 461.484C220.154 461.995 219.714 462.404 219.164 462.404C218.613 462.404 218.173 461.995 218.173 461.484C218.173 460.972 218.613 460.563 219.164 460.563C219.714 460.563 220.154 460.972 220.154 461.484Z" fill="white"/>
<path d="M223.77 461.484C223.77 461.995 223.33 462.404 222.78 462.404C222.23 462.404 221.79 461.995 221.79 461.484C221.79 460.972 222.23 460.563 222.78 460.563C223.33 460.563 223.77 460.972 223.77 461.484Z" fill="white"/>
<path d="M52.336 601.904H-1.97168V643.015H52.336V601.904Z" fill="#93A1D9"/>
<path d="M52.7478 607.994C52.7478 608.096 40.4945 608.169 25.3671 608.169C10.2396 608.169 -2.01367 608.081 -2.01367 607.994C-2.01367 607.906 10.2396 607.818 25.3671 607.818C40.4945 607.818 52.7478 607.906 52.7478 607.994Z" fill="white"/>
<path d="M2.45579 605C2.45579 605.379 2.12573 605.686 1.72692 605.686C1.3281 605.686 0.998047 605.379 0.998047 605C0.998047 604.62 1.3281 604.313 1.72692 604.313C2.12573 604.313 2.45579 604.62 2.45579 605Z" fill="white"/>
<path d="M5.12375 605C5.12375 605.379 4.7937 605.686 4.39489 605.686C3.99607 605.686 3.66602 605.379 3.66602 605C3.66602 604.62 3.99607 604.313 4.39489 604.313C4.7937 604.313 5.12375 604.62 5.12375 605Z" fill="white"/>
<path d="M7.79172 605C7.79172 605.379 7.46167 605.686 7.06285 605.686C6.66404 605.686 6.33398 605.379 6.33398 605C6.33398 604.62 6.66404 604.313 7.06285 604.313C7.46167 604.313 7.79172 604.62 7.79172 605Z" fill="white"/>
<path d="M321.577 443.492C321.577 437.198 326.087 432.539 332.125 432.539C334.999 432.539 337.584 433.532 339.358 435.533L338.423 436.555C336.677 434.73 334.559 434 332.18 434C326.981 434 323.048 438.074 323.048 443.507C323.048 448.94 326.968 453.014 332.18 453.014C334.559 453.014 336.69 452.24 338.423 450.429L339.358 451.452C337.584 453.452 334.999 454.475 332.125 454.475C326.087 454.446 321.577 449.787 321.577 443.492Z" fill="#93A1D9"/>
<path d="M342.164 451.509L342.837 450.34C344.226 451.889 346.826 453.057 349.549 453.057C353.619 453.057 355.421 451.173 355.421 448.822C355.421 442.337 342.714 446.237 342.714 438.263C342.714 435.21 344.928 432.523 349.92 432.523C352.161 432.523 354.486 433.268 356.053 434.466L355.503 435.736C353.812 434.495 351.749 433.911 349.92 433.911C345.973 433.911 344.199 435.853 344.199 438.234C344.199 444.718 356.892 440.891 356.892 448.734C356.892 451.786 354.596 454.444 349.562 454.444C346.551 454.444 343.635 453.247 342.164 451.509Z" fill="#93A1D9"/>
<path d="M359.849 451.509L360.523 450.34C361.912 451.889 364.511 453.057 367.234 453.057C371.305 453.057 373.106 451.173 373.106 448.822C373.106 442.337 360.399 446.237 360.399 438.263C360.399 435.21 362.613 432.523 367.605 432.523C369.847 432.523 372.171 433.268 373.739 434.466L373.189 435.736C371.497 434.495 369.434 433.911 367.605 433.911C363.659 433.911 361.884 435.853 361.884 438.234C361.884 444.718 374.578 440.891 374.578 448.734C374.578 451.786 372.281 454.444 367.248 454.444C364.25 454.444 361.334 453.247 359.849 451.509Z" fill="#93A1D9"/>
<path d="M391.906 471.575C391.906 471.575 391.892 471.181 391.878 470.436C391.864 469.662 391.865 468.567 391.851 467.15C391.837 464.244 391.809 460.038 391.782 454.649C391.741 443.856 391.699 428.346 391.631 409.434L391.919 409.741C367.11 409.755 335.563 409.784 301.306 409.814H301.292L301.65 409.434C301.636 431.501 301.636 452.516 301.622 471.59L301.292 471.239C327.875 471.312 350.484 471.371 366.478 471.414C374.468 471.458 380.808 471.487 385.167 471.502C387.326 471.517 388.99 471.531 390.159 471.546C390.709 471.56 391.136 471.56 391.452 471.56C391.754 471.56 391.906 471.575 391.906 471.575C391.906 471.575 391.768 471.59 391.493 471.59C391.191 471.59 390.778 471.604 390.242 471.604C389.1 471.619 387.45 471.633 385.318 471.648C380.973 471.677 374.66 471.706 366.698 471.736C350.649 471.78 327.971 471.838 301.292 471.911H300.962V471.56C300.948 452.502 300.948 431.486 300.935 409.405V409.025H301.292H301.306C335.549 409.054 367.11 409.083 391.919 409.098H392.208V409.405C392.14 428.405 392.098 443.958 392.057 454.809C392.03 460.169 392.002 464.361 391.988 467.238C391.974 468.64 391.961 469.706 391.961 470.465C391.933 471.225 391.906 471.575 391.906 471.575Z" fill="#93A1D9"/>
<path d="M391.906 418.649C391.906 418.854 371.608 419.029 346.578 419.029C321.536 419.029 301.251 418.854 301.251 418.649C301.251 418.445 321.536 418.269 346.578 418.269C371.608 418.269 391.906 418.445 391.906 418.649Z" fill="#93A1D9"/>
<path d="M307.989 414.122C307.989 414.691 307.494 415.159 306.889 415.159C306.284 415.159 305.789 414.691 305.789 414.122C305.789 413.552 306.284 413.085 306.889 413.085C307.494 413.085 307.989 413.552 307.989 414.122Z" fill="#93A1D9"/>
<path d="M312.019 414.122C312.019 414.691 311.524 415.159 310.919 415.159C310.313 415.159 309.818 414.691 309.818 414.122C309.818 413.552 310.313 413.085 310.919 413.085C311.524 413.085 312.019 413.552 312.019 414.122Z" fill="#93A1D9"/>
<path d="M316.048 414.122C316.048 414.691 315.553 415.159 314.948 415.159C314.343 415.159 313.848 414.691 313.848 414.122C313.848 413.552 314.343 413.085 314.948 413.085C315.553 413.085 316.048 413.552 316.048 414.122Z" fill="#93A1D9"/>
<path d="M188.236 402.319V407.002C188.236 407.78 187.992 408.395 187.504 408.848C187.019 409.3 186.355 409.526 185.512 409.526C184.682 409.526 184.022 409.307 183.534 408.867C183.046 408.428 182.797 407.824 182.787 407.056V402.319H184.252V407.012C184.252 407.477 184.363 407.817 184.584 408.032C184.809 408.244 185.118 408.349 185.512 408.349C186.335 408.349 186.754 407.917 186.767 407.051V402.319H188.236ZM190.995 409.429H189.53V402.319H190.995V409.429ZM192.709 410.039H191.659L194.276 402.319H195.326L192.709 410.039ZM201.479 402.319V407.002C201.479 407.78 201.234 408.395 200.746 408.848C200.261 409.3 199.597 409.526 198.754 409.526C197.924 409.526 197.265 409.307 196.776 408.867C196.288 408.428 196.039 407.824 196.029 407.056V402.319H197.494V407.012C197.494 407.477 197.605 407.817 197.826 408.032C198.051 408.244 198.36 408.349 198.754 408.349C199.577 408.349 199.996 407.917 200.009 407.051V402.319H201.479ZM205.224 404.77L206.557 402.319H208.241L206.171 405.845L208.295 409.429H206.591L205.224 406.938L203.856 409.429H202.152L204.276 405.845L202.206 402.319H203.891L205.224 404.77Z" fill="black" fill-opacity="0.55"/>
</g>
</g>
<defs>
<clipPath id="clip0">
<rect width="375" height="812" fill="white"/>
</clipPath>
<clipPath id="clip1">
<rect width="812" height="375" fill="white" transform="translate(375) rotate(90)"/>
</clipPath>
<clipPath id="clip2">
<rect width="404" height="279" fill="white" transform="translate(-2 364)"/>
</clipPath>
</defs>
</svg>
