<?xml version="1.0" encoding="utf-8"?>
<!-- Generator: Adobe Illustrator 23.0.5, SVG Export Plug-In . SVG Version: 6.00 Build 0)  -->
<svg version="1.1" id="Layer_1" xmlns="http://www.w3.org/2000/svg" xmlns:xlink="http://www.w3.org/1999/xlink" x="0px" y="0px"
	 viewBox="0 0 1920 1080" style="enable-background:new 0 0 1920 1080;" xml:space="preserve">
<style type="text/css">
	.st0{fill:#D1E9F9;}
	.st1{fill:#F1F8FD;}
	.st2{opacity:0.36;}
	.st3{fill:#6EAFE0;}
	.st4{fill:#85BEE7;}
	.st5{fill:#A6D1F0;}
	.st6{opacity:0.5;clip-path:url(#SVGID_2_);}
	.st7{fill:#FFFFFF;}
	.st8{fill:#E0E1E0;}
	.st9{opacity:0.3;}
	.st10{opacity:0.3;fill:#E0E1E0;enable-background:new    ;}
	.st11{fill-rule:evenodd;clip-rule:evenodd;fill:#E0E1E0;}
	.st12{opacity:0.3;fill:#EBEBEB;enable-background:new    ;}
	.st13{fill:#95A0D1;}
	.st14{fill:#010101;fill-opacity:0.55;}
</style>
<path class="st0" d="M-10.57,837.31l248.64-134.17L-10.57,569.15V837.31z"/>
<path class="st0" d="M1312.46-7.77l121.52,65.49l121.37-65.49H1312.46z"/>
<path class="st1" d="M-10.57,837.31v253.82h968.73L238.07,703.14L-10.57,837.31z"/>
<path class="st1" d="M1555.35-7.77l-121.37,65.49l480.66,259.15V-7.77H1555.35z"/>
<path class="st1" d="M-10.57-7.77v576.92l248.64,133.98L1433.98,57.73L1312.46-7.77H-10.57z"/>
<path class="st0" d="M1513.4,1091.13h401.24V873.79L1513.4,1091.13z"/>
<g class="st2">
	<path class="st3" d="M666.01,372H507.05l0.27-1.42c2.54-13.12,14.1-22.62,27.48-22.62c1.92,0,3.86,0.2,5.73,0.6
		c8.27-15.76,24.37-25.52,42.21-25.52c15.2,0,29.55,7.31,38.52,19.58c3.26-1,6.68-1.5,10.14-1.5c17.29,0,31.77,12.4,34.41,29.48
		L666.01,372z M509.97,369.63H663.2c-2.99-14.96-16.42-26.11-31.82-26.11c-3.49,0-6.93,0.55-10.22,1.65l-0.85,0.27l-0.5-0.72
		c-8.5-12.07-22.37-19.28-37.1-19.28c-17.24,0-32.76,9.58-40.51,25.02l-0.42,0.85l-0.92-0.22c-1.97-0.5-4.04-0.75-6.08-0.75
		C523.05,350.35,512.83,358.36,509.97,369.63z"/>
	<path class="st3" d="M1249.83,176.12l-0.55-0.27c-56.41-28.83-48.83-84.67-48.76-85.22l0.15-1.02h1.02
		c35.88,0,47.14-11.57,47.24-11.7l0.87-0.92l0.87,0.92c0.1,0.1,11.39,11.67,47.24,11.67h1.02l0.15,1.02
		c0.07,0.55,7.65,56.39-48.76,85.22L1249.83,176.12z M1202.77,91.99c-0.72,7.56-3.09,55.49,47.04,81.48
		c50.15-25.99,47.76-73.9,47.06-81.48c-31.14-0.2-43.83-8.88-47.06-11.62C1246.59,83.11,1233.91,91.79,1202.77,91.99z"/>
	<path class="st4" d="M697.76,489.74H597.25V361.1h2.39v126.27h98.12V489.74z"/>
	<path class="st4" d="M1123.11,404.97h-2.37V272.31h127.89V160.75h2.39v113.93h-127.92V404.97z"/>
	<path class="st4" d="M1536.28,552.74h-133.07v-2.37h130.68v-77.34h2.39V552.74z"/>
	<path class="st3" d="M1328.46,205.57h-20.38v-2.37h18.01V185.2h2.37V205.57z"/>
	<path class="st3" d="M1191.36,205.57h-20.38V185.2h2.37v18.01h18.01V205.57z"/>
	<path class="st3" d="M1328.47,98.83h-2.37v55.89h2.37V98.83z"/>
	<path class="st3" d="M1173.37,98.83h-2.39v55.89h2.39V98.83z"/>
	<path class="st4" d="M598.44,362.27c-4.81,0-8.72-3.92-8.72-8.73c0-4.81,3.91-8.73,8.72-8.73c4.81,0,8.72,3.91,8.72,8.73
		C607.16,358.36,603.25,362.27,598.44,362.27z M598.44,347.18c-3.51,0-6.35,2.84-6.35,6.36c0,3.52,2.84,6.36,6.35,6.36
		s6.35-2.84,6.35-6.36C604.8,350.05,601.96,347.18,598.44,347.18z"/>
	<path class="st4" d="M1249.83,161.95c-4.81,0-8.72-3.92-8.72-8.73s3.91-8.73,8.72-8.73c4.81,0,8.72,3.92,8.72,8.73
		C1258.55,158.01,1254.64,161.95,1249.83,161.95z M1249.83,146.84c-3.49,0-6.35,2.84-6.35,6.36s2.84,6.36,6.35,6.36
		c3.51,0,6.35-2.84,6.35-6.36C1256.19,149.71,1253.32,146.84,1249.83,146.84z"/>
	<path class="st4" d="M1535.09,474.63c-4.81,0-8.73-3.91-8.73-8.73c0-4.81,3.92-8.73,8.73-8.73c4.8,0,8.72,3.91,8.72,8.73
		C1543.81,470.72,1539.89,474.63,1535.09,474.63z M1535.09,459.54c-3.52,0-6.36,2.84-6.36,6.36s2.84,6.36,6.36,6.36
		c3.51,0,6.35-2.84,6.35-6.36S1538.6,459.54,1535.09,459.54z"/>
	<path class="st5" d="M656.32,119.7h-59.9V59.74h59.9V119.7L656.32,119.7z M598.79,117.33h55.14V62.11h-55.14V117.33z"/>
	<path class="st5" d="M627.54,76.08h-2.37v27.96h2.37V76.08z"/>
	<path class="st5" d="M640.35,88.88h-27.93v2.37h27.93V88.88z"/>
	<path class="st5" d="M1569.17,192.05h-85.64v-61.2h85.64V192.05z M1485.93,189.66h80.87v-56.42h-80.87V189.66z"/>
	<path class="st5" d="M1526.36,167.91l-42.38-34.94l1.52-1.85l40.86,33.72l40.87-33.72l1.52,1.85L1526.36,167.91z"/>
	<path class="st5" d="M1538.06,157.58l-1.72,1.63l30.73,32.42l1.72-1.63L1538.06,157.58z"/>
	<path class="st5" d="M1514.64,157.64l-30.71,32.45l1.72,1.63l30.71-32.45L1514.64,157.64z"/>
	<path class="st5" d="M805.79,253.51l-0.9-2.32c-0.8-0.1-1.57-0.27-2.34-0.55l-1.82,1.7l-5.28-3.77l1.02-2.27
		c-0.5-0.65-0.92-1.32-1.27-2.04l-2.49-0.07l-1.07-6.38l2.32-0.9c0.1-0.8,0.27-1.6,0.55-2.35l-1.69-1.82l3.76-5.29l2.27,1.02
		c0.65-0.5,1.32-0.92,2.04-1.27l0.07-2.49l6.38-1.07l0.9,2.32c0.8,0.1,1.59,0.27,2.34,0.55l1.82-1.7l5.28,3.77l-1.02,2.27
		c0.5,0.65,0.92,1.32,1.27,2.04l2.49,0.08l1.07,6.38l-2.32,0.9c-0.1,0.8-0.3,1.6-0.55,2.34l1.72,1.82l-3.76,5.29l-2.27-1.02
		c-0.62,0.5-1.32,0.92-2.04,1.27l-0.08,2.49L805.79,253.51z M802.15,248.59l0.52,0.2c0.95,0.38,1.94,0.6,2.96,0.67l0.55,0.05l0.77,2
		l3.51-0.6l0.08-2.15l0.52-0.22c0.92-0.42,1.79-0.95,2.57-1.6l0.42-0.35l1.94,0.87l2.07-2.89l-1.47-1.57l0.2-0.52
		c0.37-0.95,0.6-1.94,0.67-2.94l0.05-0.55l1.99-0.77l-0.6-3.52l-2.14-0.07l-0.22-0.5c-0.42-0.92-0.95-1.79-1.59-2.57l-0.35-0.42
		l0.87-1.95l-2.89-2.07l-1.57,1.47l-0.52-0.2c-0.95-0.37-1.94-0.6-2.94-0.67l-0.55-0.05l-0.77-2l-3.51,0.6l-0.07,2.15l-0.52,0.22
		c-0.92,0.42-1.79,0.95-2.57,1.6l-0.42,0.35l-1.94-0.87l-2.07,2.89l1.47,1.57l-0.2,0.52c-0.35,0.95-0.6,1.95-0.67,2.97l-0.05,0.55
		l-1.99,0.77l0.6,3.52l2.14,0.07l0.22,0.5c0.42,0.92,0.95,1.8,1.62,2.57l0.35,0.42l-0.87,1.95l2.89,2.07L802.15,248.59z
		 M806.56,245.63c-1.45,0-2.86-0.45-4.06-1.3c-3.16-2.25-3.91-6.66-1.64-9.83c2.24-3.17,6.65-3.91,9.82-1.65
		c1.54,1.1,2.54,2.72,2.87,4.57c0.32,1.85-0.13,3.72-1.2,5.26c-1.1,1.55-2.72,2.54-4.56,2.87
		C807.33,245.58,806.94,245.63,806.56,245.63z M806.59,233.31c-1.64,0-3.26,0.77-4.29,2.22c-0.82,1.15-1.15,2.54-0.9,3.92
		c0.22,1.4,1,2.59,2.14,3.42c1.15,0.82,2.54,1.15,3.91,0.9c1.37-0.22,2.59-1,3.41-2.14c0.82-1.15,1.15-2.54,0.9-3.92
		c-0.23-1.4-1-2.59-2.14-3.42C808.7,233.63,807.63,233.31,806.59,233.31z"/>
	<path class="st5" d="M756.33,260.96l-1.99-5.21c-2.14-0.25-4.24-0.72-6.25-1.42l-4.06,3.82l-11.01-7.86l2.27-5.09
		c-1.32-1.67-2.47-3.49-3.39-5.44l-5.56-0.18l-2.24-13.34l5.21-2c0.25-2.14,0.72-4.24,1.42-6.26l-3.81-4.07l7.82-11.02l5.08,2.27
		c1.67-1.35,3.49-2.47,5.43-3.39l0.17-5.56l13.33-2.25l1.99,5.21c2.14,0.25,4.24,0.72,6.25,1.42l4.06-3.82l11.01,7.86l-2.27,5.09
		c1.35,1.67,2.47,3.49,3.39,5.44l5.56,0.17l2.24,13.34l-5.21,2c-0.25,2.14-0.72,4.24-1.45,6.26l3.81,4.07l-7.85,11.02l-5.08-2.27
		c-1.67,1.35-3.49,2.47-5.43,3.39l-0.17,5.56L756.33,260.96z M747.54,251.59l0.7,0.27c2.27,0.87,4.64,1.4,7.05,1.62l0.75,0.07
		l1.82,4.76l9.49-1.6l0.15-5.09l0.67-0.3c2.22-1,4.28-2.27,6.13-3.84l0.57-0.47l4.66,2.07l5.58-7.86l-3.49-3.72l0.27-0.7
		c0.87-2.27,1.42-4.64,1.62-7.06l0.07-0.75l4.76-1.82l-1.59-9.5l-5.08-0.15l-0.3-0.67c-1-2.22-2.29-4.29-3.84-6.14l-0.47-0.57
		l2.07-4.66l-7.85-5.59l-3.71,3.49l-0.7-0.28c-2.27-0.87-4.63-1.4-7.05-1.62l-0.75-0.07l-1.82-4.76l-9.49,1.6l-0.17,5.09l-0.67,0.3
		c-2.22,1-4.29,2.27-6.13,3.84l-0.57,0.47l-4.66-2.07l-5.58,7.86l3.49,3.72l-0.27,0.7c-0.87,2.25-1.4,4.64-1.62,7.06l-0.08,0.75
		l-4.76,1.82l1.59,9.5l5.08,0.15l0.3,0.67c1,2.22,2.29,4.29,3.84,6.13l0.47,0.57l-2.07,4.66l7.85,5.59L747.54,251.59z
		 M757.53,242.86c-3.09,0-6.2-0.92-8.89-2.84c-6.9-4.91-8.52-14.54-3.61-21.47c4.91-6.91,14.53-8.53,21.43-3.62
		c6.9,4.91,8.52,14.54,3.61,21.45C767.07,240.61,762.34,242.86,757.53,242.86z M757.55,214.48c-4.06,0-8.07,1.9-10.61,5.46
		c-2.02,2.84-2.82,6.29-2.22,9.7c0.57,3.42,2.44,6.43,5.28,8.43c5.83,4.17,13.98,2.79,18.14-3.07c2.02-2.82,2.82-6.29,2.22-9.7
		c-0.57-3.42-2.44-6.43-5.28-8.43C762.81,215.25,760.17,214.48,757.55,214.48z"/>
	<path class="st4" d="M445.39,273.49c-24.44,0-44.32-19.93-44.32-44.4h2.37c0,23.17,18.81,42,41.96,42s41.96-18.83,41.96-42
		c0-23.14-18.81-42-41.96-42v-2.37c24.44,0,44.32,19.9,44.32,44.37C489.74,253.56,469.83,273.49,445.39,273.49z M445.39,267.3
		c-21.05,0-38.17-17.13-38.17-38.21c0-21.07,17.12-38.21,38.17-38.21s38.17,17.14,38.17,38.21h-2.37c0-19.75-16.05-35.84-35.8-35.84
		c-19.73,0-35.8,16.06-35.8,35.84c0,19.75,16.05,35.84,35.8,35.84V267.3z"/>
	<path class="st4" d="M439.96,243.81l-15.97-16.01l1.67-1.67l14.3,14.32l25.19-25.19l1.67,1.67L439.96,243.81z"/>
	<path class="st4" d="M896.61,115.46h65.48v47.51v10l-9.99-10h-55.49V115.46z"/>
	<path class="st3" d="M1491.96,313.29h-63.64v-63.7h63.64V313.29z M1430.47,311.14h59.37v-59.43h-59.37V311.14z"/>
	<path class="st3" d="M1650.3,272.93h-145.64v-15.56h145.64V272.93z M1506.81,270.81h141.37v-11.32h-141.37V270.81z"/>
	<path class="st3" d="M1650.3,345.34h-221.98v-15.56h221.98V345.34z M1430.47,343.22h217.71v-11.32h-217.71V343.22z"/>
	<path class="st3" d="M1569.72,375.24h-141.37v-15.56h141.37V375.24z M1430.47,373.12h137.13V361.8h-137.13V373.12z"/>
	<path class="st3" d="M1603.31,302.64h-98.62v-15.56h98.62V302.64z M1506.81,300.52h94.38v-11.32h-94.38V300.52z"/>
	<path class="st3" d="M1675.58,409.08h-272.52V215.74h272.5v193.34H1675.58z M1405.18,406.96h268.26v-189.1h-268.26V406.96z"/>
</g>
<g>
	<defs>
		<rect id="SVGID_1_" x="940.64" y="703.23" width="943" height="651"/>
	</defs>
	<clipPath id="SVGID_2_">
		<use xlink:href="#SVGID_1_"  style="overflow:visible;"/>
	</clipPath>
	<g class="st6">
		<path class="st7" d="M1387.25,911.99H985.29v285.7h401.96V911.99z"/>
		<path class="st8" d="M1387.25,1197.69c0,0-0.03-1.77-0.06-5.21c0-3.44-0.03-8.48-0.06-15.06c-0.03-13.22-0.1-32.61-0.16-57.45
			c-0.06-49.65-0.16-120.97-0.29-207.97l0.58,0.61c-110.74,0.03-250.47,0.1-401.92,0.17h-0.03l0.71-0.75
			c-0.03,101.79-0.03,198.56-0.06,285.7l-0.67-0.72c118.32,0.14,218.73,0.27,289.57,0.34c35.44,0.07,63.49,0.14,82.72,0.2
			c9.6,0.03,16.98,0.07,22.02,0.07c2.47,0.03,4.36,0.03,5.68,0.03C1386.57,1197.65,1387.25,1197.69,1387.25,1197.69
			s-0.61,0.03-1.86,0.03c-1.28,0-3.15,0.03-5.62,0.03c-4.98,0.03-12.33,0.03-21.86,0.07c-19.2,0.03-47.19,0.1-82.59,0.21
			c-70.97,0.07-171.51,0.2-289.99,0.34h-0.67v-0.72c-0.03-87.13-0.03-183.91-0.06-285.7v-0.75h0.71h0.03
			c151.42,0.07,291.15,0.1,401.92,0.17h0.58v0.61c-0.13,87.13-0.22,158.63-0.29,208.34c-0.06,24.77-0.13,44.13-0.16,57.32
			c-0.03,6.54-0.06,11.55-0.06,14.96C1387.28,1195.98,1387.25,1197.69,1387.25,1197.69z"/>
		<path class="st8" d="M985.29,937.48c0-0.41,89.91-0.75,200.79-0.75c110.94,0,200.82,0.34,200.82,0.75s-89.88,0.75-200.82,0.75
			C1075.2,938.26,985.29,937.92,985.29,937.48z"/>
		<g class="st9">
			<g class="st9">
				<path class="st10" d="M1001.15,924.63c0,1.87-1.44,3.41-3.21,3.41s-3.21-1.53-3.21-3.41c0-1.87,1.44-3.41,3.21-3.41
					S1001.15,922.76,1001.15,924.63z"/>
			</g>
		</g>
		<g class="st9">
			<g class="st9">
				<path class="st10" d="M1008.95,928.04c1.77,0,3.21-1.53,3.21-3.41c0-1.88-1.44-3.41-3.21-3.41c-1.77,0-3.21,1.53-3.21,3.41
					C1005.74,926.51,1007.18,928.04,1008.95,928.04z"/>
			</g>
		</g>
		<g class="st9">
			<g class="st9">
				<path class="st10" d="M1023.07,924.63c0,1.87-1.44,3.41-3.21,3.41s-3.21-1.53-3.21-3.41c0-1.87,1.44-3.41,3.21-3.41
					S1023.07,922.76,1023.07,924.63z"/>
			</g>
		</g>
		<path class="st8" d="M1127.05,967.29h-107.21v113.82h107.21V967.29z"/>
		<path class="st8" d="M1332.1,999.46c0,0.41-41.83,0.75-93.38,0.75c-51.58,0-93.41-0.34-93.41-0.75s41.79-0.75,93.41-0.75
			C1290.31,998.68,1332.1,999.02,1332.1,999.46z"/>
		<path class="st8" d="M1332.1,1020.62c0,0.41-41.83,0.75-93.38,0.75c-51.58,0-93.41-0.34-93.41-0.75c0-0.41,41.79-0.75,93.41-0.75
			C1290.31,1019.84,1332.1,1020.18,1332.1,1020.62z"/>
		<path class="st8" d="M1332.1,1041.75c0,0.41-41.83,0.75-93.38,0.75c-51.58,0-93.41-0.34-93.41-0.75c0-0.41,41.79-0.75,93.41-0.75
			C1290.31,1041,1332.1,1041.34,1332.1,1041.75z"/>
		<path class="st11" d="M1806.47,1097.02c-3.21,4.7-6.97,8.82-11.11,12.37l2.89,15.57l-22.6,10.63l-8.92-12.71
			c-5.26,0.89-10.69,1.06-16.11,0.44l-8.31,13.15l-23.05-9.44l2.15-15.68c-4.43-3.41-8.31-7.39-11.65-11.79l-14.67,3.07
			l-10.02-23.99l11.97-9.47c-0.83-5.59-0.99-11.35-0.42-17.11l-12.39-8.83l8.89-24.5l14.77,2.28c3.21-4.7,6.97-8.83,11.11-12.37
			l-2.89-15.57l22.6-10.63l8.92,12.71c5.26-0.89,10.69-1.06,16.11-0.44l8.31-13.15l23.05,9.44l-2.15,15.67
			c4.43,3.41,8.35,7.4,11.68,11.79l14.67-3.07l10.02,23.99l-11.97,9.47c0.83,5.59,0.99,11.35,0.42,17.11l12.39,8.83l-8.89,24.47
			L1806.47,1097.02z M1781.53,1070.27c5.27-14.52-1.54-30.81-15.21-36.39c-13.68-5.59-29.02,1.64-34.28,16.15
			c-5.26,14.52,1.54,30.8,15.21,36.39C1760.92,1092.01,1776.27,1084.79,1781.53,1070.27z"/>
		<path class="st7" d="M1702.89,703.88H1326.1v162.48h376.79V703.88z"/>
		<path class="st8" d="M1702.89,866.36c0,0-0.03-0.99-0.03-2.9c0-1.91-0.03-4.74-0.03-8.42c-0.03-7.43-0.06-18.3-0.1-32.34
			c-0.06-28.05-0.13-68.6-0.23-118.83l0.42,0.44c-95.85,0.03-229.29,0.1-376.79,0.2h-0.03l0.61-0.65
			c0,56.91-0.03,111.81-0.03,162.48l-0.58-0.61c109.17,0.1,203.29,0.21,270.15,0.27c33.45,0.07,60.09,0.14,78.36,0.17
			c9.15,0.03,16.18,0.07,20.96,0.07c2.38,0,4.17,0.03,5.43,0.03C1702.24,866.33,1702.89,866.36,1702.89,866.36s-0.61,0.03-1.8,0.03
			c-1.22,0-3.02,0.03-5.36,0.03c-4.75,0.03-11.78,0.03-20.86,0.07c-18.27,0.03-44.84,0.1-78.23,0.17
			c-66.96,0.07-161.2,0.17-270.54,0.27h-0.58v-0.61c0-50.67-0.03-105.57-0.03-162.48v-0.61h0.61h0.03
			c147.5,0.07,280.91,0.14,376.79,0.2h0.42v0.44c-0.1,50.33-0.16,90.98-0.23,119.06c-0.03,13.97-0.06,24.84-0.1,32.24
			c-0.03,3.65-0.03,6.44-0.03,8.35C1702.92,865.41,1702.89,866.36,1702.89,866.36z"/>
		<path class="st8" d="M1326.45,725.79c0-0.34,84.23-0.65,188.11-0.65c103.91,0,188.11,0.27,188.11,0.65
			c0,0.34-84.2,0.65-188.11,0.65C1410.68,726.41,1326.45,726.13,1326.45,725.79z"/>
		<g class="st9">
			<g class="st9">
				<path class="st12" d="M1342.24,715.98c0,1.6-1.22,2.9-2.73,2.9s-2.73-1.29-2.73-2.9c0-1.6,1.22-2.9,2.73-2.9
					S1342.24,714.38,1342.24,715.98z"/>
			</g>
		</g>
		<g class="st9">
			<g class="st9">
				<path class="st12" d="M1351.62,715.98c0,1.6-1.22,2.9-2.73,2.9c-1.51,0-2.73-1.29-2.73-2.9c0-1.6,1.22-2.9,2.73-2.9
					C1350.4,713.08,1351.62,714.38,1351.62,715.98z"/>
			</g>
		</g>
		<g class="st9">
			<g class="st9">
				<path class="st12" d="M1358.1,718.88c1.51,0,2.73-1.3,2.73-2.9c0-1.6-1.22-2.9-2.73-2.9c-1.51,0-2.73,1.3-2.73,2.9
					C1355.37,717.58,1356.59,718.88,1358.1,718.88z"/>
			</g>
		</g>
		<path class="st8" d="M1449.1,752.2h-91v96.61h91V752.2z"/>
		<path class="st8" d="M1676.82,778.07c0,0.34-46.83,0.65-104.58,0.65c-57.78,0-104.61-0.27-104.61-0.65
			c0-0.34,46.83-0.65,104.61-0.65C1629.99,777.45,1676.82,777.73,1676.82,778.07z"/>
		<path class="st8" d="M1676.82,797.76c0,0.34-46.83,0.65-104.58,0.65c-57.78,0-104.61-0.27-104.61-0.65
			c0-0.34,46.83-0.65,104.61-0.65C1629.99,797.12,1676.82,797.42,1676.82,797.76z"/>
		<path class="st8" d="M1602.29,817.46c0,0.03-0.48,0.1-1.38,0.14c-1.03,0.03-2.31,0.07-3.92,0.1c-3.56,0.04-8.44,0.1-14.44,0.21
			c-12.33,0.03-29.08,0.1-47.61,0.17c-18.52-0.07-35.28-0.14-47.6-0.17c-5.97-0.07-10.85-0.14-14.44-0.21
			c-1.6-0.03-2.89-0.1-3.92-0.1c-0.9-0.03-1.38-0.07-1.38-0.14c0-0.03,0.48-0.1,1.38-0.14c1.03-0.03,2.31-0.07,3.92-0.1
			c3.56-0.03,8.44-0.1,14.44-0.2c12.33-0.03,29.08-0.1,47.6-0.17c18.52,0.07,35.28,0.14,47.61,0.17c5.97,0.07,10.85,0.14,14.44,0.2
			c1.6,0.03,2.89,0.1,3.92,0.1C1601.8,817.36,1602.29,817.39,1602.29,817.46z"/>
		<path class="st13" d="M1222.16,709.78h-190.19v143.94h190.19V709.78z"/>
		<path class="st7" d="M1223.67,731.14c0,0.48-42.95,0.89-95.88,0.89c-52.97,0-95.88-0.41-95.88-0.89c0-0.48,42.92-0.89,95.88-0.89
			C1180.72,730.26,1223.67,730.67,1223.67,731.14z"/>
		<path class="st7" d="M1047.5,720.65c0,1.33-1.16,2.39-2.57,2.39c-1.41,0-2.57-1.06-2.57-2.39c0-1.33,1.16-2.39,2.57-2.39
			C1046.35,718.26,1047.5,719.32,1047.5,720.65z"/>
		<path class="st7" d="M1056.81,720.65c0,1.33-1.16,2.39-2.57,2.39s-2.57-1.06-2.57-2.39c0-1.33,1.16-2.39,2.57-2.39
			C1055.69,718.26,1056.81,719.32,1056.81,720.65z"/>
		<path class="st7" d="M1063.58,723.03c1.42,0,2.57-1.07,2.57-2.39c0-1.32-1.15-2.39-2.57-2.39s-2.57,1.07-2.57,2.39
			C1061.02,721.96,1062.17,723.03,1063.58,723.03z"/>
		<path class="st7" d="M1077.84,794.81h-9.5l-1.81,5.42h-5.76l9.79-26.3h5.02l9.85,26.3h-5.76L1077.84,794.81z M1069.8,790.42h6.58
			l-3.31-9.85L1069.8,790.42z M1091.48,780.69l0.16,2.26c1.4-1.75,3.27-2.62,5.62-2.62c2.07,0,3.61,0.61,4.63,1.82
			c1.01,1.22,1.53,3.04,1.55,5.46v12.63h-5.22v-12.5c0-1.11-0.24-1.91-0.72-2.4c-0.48-0.51-1.28-0.76-2.4-0.76
			c-1.47,0-2.57,0.63-3.31,1.88v13.78h-5.22v-19.55H1091.48z M1106.6,790.32c0-3.05,0.68-5.47,2.04-7.28
			c1.37-1.81,3.25-2.71,5.62-2.71c1.9,0,3.47,0.71,4.72,2.13v-9.97h5.24v27.75h-4.72l-0.25-2.08c-1.3,1.63-2.98,2.44-5.02,2.44
			c-2.3,0-4.15-0.9-5.55-2.71C1107.29,796.07,1106.6,793.54,1106.6,790.32z M1111.82,790.69c0,1.83,0.32,3.23,0.96,4.21
			c0.64,0.98,1.56,1.46,2.78,1.46c1.61,0,2.75-0.68,3.41-2.04v-7.71c-0.65-1.36-1.78-2.04-3.38-2.04
			C1113.08,784.57,1111.82,786.61,1111.82,790.69z M1139.25,785.58c-0.71-0.1-1.34-0.14-1.88-0.14c-1.97,0-3.27,0.67-3.88,2.01
			v12.79h-5.22v-19.55h4.93l0.14,2.33c1.05-1.79,2.5-2.69,4.35-2.69c0.58,0,1.12,0.08,1.63,0.23L1139.25,785.58z M1140.31,790.28
			c0-1.94,0.37-3.67,1.12-5.18c0.75-1.52,1.82-2.69,3.22-3.52c1.41-0.83,3.04-1.25,4.9-1.25c2.64,0,4.79,0.81,6.45,2.42
			c1.68,1.61,2.61,3.81,2.8,6.58l0.04,1.34c0,3-0.84,5.41-2.51,7.23c-1.67,1.81-3.92,2.71-6.74,2.71s-5.07-0.9-6.76-2.71
			c-1.67-1.81-2.51-4.26-2.51-7.37V790.28z M1145.54,790.66c0,1.85,0.35,3.28,1.05,4.26c0.7,0.98,1.7,1.46,3,1.46
			c1.27,0,2.25-0.48,2.96-1.45c0.71-0.98,1.07-2.53,1.07-4.66c0-1.82-0.36-3.23-1.07-4.23c-0.71-1-1.71-1.5-3-1.5
			c-1.28,0-2.27,0.5-2.96,1.5C1145.88,787.04,1145.54,788.58,1145.54,790.66z M1167.56,800.23h-5.24v-19.55h5.24V800.23z
			 M1162.01,775.63c0-0.78,0.26-1.43,0.78-1.93c0.53-0.51,1.25-0.76,2.15-0.76c0.89,0,1.6,0.25,2.13,0.76
			c0.53,0.51,0.8,1.15,0.8,1.93c0,0.79-0.27,1.45-0.81,1.95c-0.53,0.51-1.23,0.76-2.11,0.76c-0.88,0-1.59-0.25-2.13-0.76
			C1162.28,777.07,1162.01,776.42,1162.01,775.63z M1171.06,790.32c0-3.05,0.68-5.47,2.04-7.28c1.37-1.81,3.25-2.71,5.62-2.71
			c1.9,0,3.47,0.71,4.71,2.13v-9.97h5.24v27.75h-4.72l-0.25-2.08c-1.3,1.63-2.97,2.44-5.02,2.44c-2.3,0-4.15-0.9-5.55-2.71
			C1171.76,796.07,1171.06,793.54,1171.06,790.32z M1176.28,790.69c0,1.83,0.32,3.23,0.96,4.21c0.64,0.98,1.57,1.46,2.78,1.46
			c1.61,0,2.75-0.68,3.41-2.04v-7.71c-0.65-1.36-1.78-2.04-3.38-2.04C1177.54,784.57,1176.28,786.61,1176.28,790.69z"/>
		<path class="st13" d="M1341.6,952.23h-94.92v71.84h94.92V952.23z"/>
		<path class="st7" d="M1342.35,962.9c0,0.24-21.44,0.44-47.85,0.44c-26.43,0-47.85-0.2-47.85-0.44c0-0.24,21.42-0.44,47.85-0.44
			C1320.91,962.46,1342.35,962.66,1342.35,962.9z"/>
		<path class="st7" d="M1254.43,957.66c0,0.66-0.58,1.19-1.28,1.19s-1.28-0.53-1.28-1.19c0-0.66,0.58-1.19,1.28-1.19
			S1254.43,957,1254.43,957.66z"/>
		<path class="st7" d="M1259.07,957.66c0,0.66-0.58,1.19-1.28,1.19s-1.28-0.53-1.28-1.19c0-0.66,0.58-1.19,1.28-1.19
			C1258.51,956.47,1259.07,957,1259.07,957.66z"/>
		<path class="st7" d="M1262.45,958.85c0.71,0,1.28-0.53,1.28-1.19c0-0.66-0.57-1.19-1.28-1.19s-1.28,0.53-1.28,1.19
			C1261.17,958.32,1261.75,958.85,1262.45,958.85z"/>
		<path class="st7" d="M1271.43,989.26h-6.75v6.97h-3.52v-17.06h11.11v2.85h-7.59v4.41h6.75V989.26z M1277.66,996.23h-3.4v-18h3.4
			V996.23z M1288.06,994.95c-0.84,1.02-1.99,1.52-3.47,1.52c-1.36,0-2.4-0.39-3.12-1.17c-0.71-0.78-1.07-1.93-1.09-3.43v-8.31h3.39
			v8.19c0,1.32,0.6,1.98,1.8,1.98c1.15,0,1.94-0.4,2.37-1.2v-8.98h3.4v12.68h-3.19L1288.06,994.95z M1297.95,980.44v3.12h2.17v2.48
			h-2.17v6.33c0,0.47,0.09,0.8,0.27,1.01c0.18,0.2,0.52,0.3,1.03,0.3c0.38,0,0.71-0.03,1-0.08v2.57c-0.66,0.2-1.35,0.3-2.05,0.3
			c-2.38,0-3.59-1.2-3.63-3.6v-6.83h-1.85v-2.48h1.85v-3.12H1297.95z M1306.06,980.44v3.12h2.17v2.48h-2.17v6.33
			c0,0.47,0.09,0.8,0.27,1.01c0.18,0.2,0.52,0.3,1.03,0.3c0.38,0,0.71-0.03,1-0.08v2.57c-0.66,0.2-1.35,0.3-2.05,0.3
			c-2.38,0-3.59-1.2-3.63-3.6v-6.83h-1.85v-2.48h1.85v-3.12H1306.06z M1315.95,996.47c-1.86,0-3.38-0.57-4.55-1.71
			c-1.16-1.14-1.75-2.66-1.75-4.56v-0.33c0-1.27,0.25-2.41,0.74-3.41c0.49-1.01,1.19-1.78,2.09-2.32c0.91-0.55,1.94-0.82,3.09-0.82
			c1.73,0,3.1,0.55,4.09,1.64c1,1.09,1.5,2.64,1.5,4.65V991h-8.07c0.11,0.83,0.44,1.49,0.98,1.99c0.55,0.5,1.25,0.75,2.1,0.75
			c1.31,0,2.32-0.47,3.06-1.42l1.66,1.86c-0.51,0.72-1.2,1.28-2.06,1.69C1317.97,996.27,1317,996.47,1315.95,996.47z
			 M1315.56,986.06c-0.67,0-1.22,0.23-1.64,0.68c-0.41,0.45-0.68,1.1-0.8,1.95h4.71v-0.27c-0.02-0.75-0.22-1.33-0.61-1.73
			C1316.84,986.27,1316.28,986.06,1315.56,986.06z M1330.22,986.73c-0.46-0.06-0.87-0.09-1.22-0.09c-1.28,0-2.12,0.43-2.52,1.3v8.3
			h-3.39v-12.68h3.2l0.09,1.51c0.68-1.16,1.62-1.75,2.82-1.75c0.38,0,0.73,0.05,1.06,0.15L1330.22,986.73z"/>
		<path class="st13" d="M1608.64,920.88h-171.93v130.11h171.93V920.88z"/>
		<path class="st7" d="M1494.72,981.3v25.83h-5.62v-10.6h-11.04v10.6h-5.62V981.3h5.62v10.19h11.04V981.3H1494.72z"/>
		<path class="st7" d="M1505.5,986.17h-7.8v-4.87h21.19v4.87h-7.8v20.96h-5.62v-20.96H1505.5z"/>
		<path class="st7" d="M1554.64,981.3h5.62v20.96h12.2v4.87h-17.82V981.3z"/>
		<path class="st7" d="M1543.79,1007.13l-0.03-15.5l-7.16,12.78h-2.54l-7.13-12.44v15.16h-5.3V981.3h4.65l9.12,16.05l8.96-16.05
			h4.62l0.06,25.83H1543.79z"/>
		<path class="st7" d="M1610.02,940.2c0,0.31-38.81,0.58-86.67,0.58c-47.89,0-86.7-0.27-86.7-0.58s38.81-0.58,86.7-0.58
			C1571.21,939.62,1610.02,939.9,1610.02,940.2z"/>
		<path class="st7" d="M1450.74,930.7c0,1.19-1.03,2.15-2.31,2.15c-1.28,0-2.31-0.95-2.31-2.15c0-1.19,1.03-2.15,2.31-2.15
			C1449.71,928.55,1450.74,929.5,1450.74,930.7z"/>
		<path class="st7" d="M1459.18,930.7c0,1.19-1.03,2.15-2.31,2.15c-1.28,0-2.31-0.95-2.31-2.15c0-1.19,1.03-2.15,2.31-2.15
			C1458.16,928.55,1459.18,929.5,1459.18,930.7z"/>
		<path class="st7" d="M1467.63,930.7c0,1.19-1.03,2.15-2.31,2.15c-1.28,0-2.31-0.95-2.31-2.15c0-1.19,1.03-2.15,2.31-2.15
			C1466.6,928.55,1467.63,929.5,1467.63,930.7z"/>
		<path class="st13" d="M1695.92,888.71c0-14.69,10.53-25.56,24.62-25.56c6.71,0,12.74,2.32,16.89,6.99l-2.18,2.39
			c-4.08-4.26-9.02-5.96-14.57-5.96c-12.13,0-21.31,9.51-21.31,22.18c0,12.68,9.15,22.18,21.31,22.18c5.55,0,10.53-1.81,14.57-6.03
			l2.18,2.39c-4.14,4.67-10.18,7.05-16.89,7.05C1706.45,914.27,1695.92,903.4,1695.92,888.71z"/>
		<path class="st13" d="M1743.97,907.42l1.57-2.73c3.24,3.61,9.31,6.34,15.67,6.34c9.5,0,13.71-4.4,13.71-9.88
			c0-15.13-29.66-6.03-29.66-24.64c0-7.12,5.17-13.39,16.82-13.39c5.23,0,10.66,1.74,14.32,4.53l-1.28,2.96
			c-3.95-2.9-8.76-4.26-13.03-4.26c-9.21,0-13.35,4.53-13.35,10.09c0,15.13,29.63,6.2,29.63,24.5c0,7.12-5.36,13.32-17.11,13.32
			C1754.21,914.27,1747.41,911.48,1743.97,907.42z"/>
		<path class="st13" d="M1785.26,907.42l1.57-2.73c3.24,3.61,9.31,6.34,15.67,6.34c9.5,0,13.71-4.4,13.71-9.88
			c0-15.13-29.66-6.03-29.66-24.64c0-7.12,5.17-13.39,16.82-13.39c5.23,0,10.66,1.74,14.32,4.53l-1.28,2.96
			c-3.95-2.9-8.76-4.26-13.03-4.26c-9.21,0-13.35,4.53-13.35,10.09c0,15.13,29.63,6.2,29.63,24.5c0,7.12-5.36,13.32-17.11,13.32
			C1795.53,914.27,1788.72,911.48,1785.26,907.42z"/>
		<path class="st13" d="M1860.08,954.24c0,0-0.03-0.92-0.06-2.66c-0.03-1.81-0.03-4.36-0.06-7.67c-0.03-6.78-0.1-16.6-0.16-29.17
			c-0.1-25.18-0.19-61.37-0.35-105.5l0.67,0.72c-57.91,0.03-131.55,0.1-211.51,0.17h-0.03l0.84-0.89
			c-0.03,51.49-0.03,100.53-0.06,145.03l-0.77-0.82c62.05,0.17,114.82,0.31,152.15,0.41c18.65,0.1,33.45,0.17,43.62,0.2
			c5.04,0.03,8.92,0.07,11.65,0.1c1.28,0.03,2.28,0.03,3.02,0.03C1859.73,954.21,1860.08,954.24,1860.08,954.24
			s-0.32,0.03-0.96,0.03c-0.71,0-1.67,0.03-2.92,0.03c-2.67,0.03-6.52,0.07-11.49,0.1c-10.14,0.07-24.88,0.14-43.46,0.2
			c-37.46,0.1-90.39,0.24-152.67,0.41h-0.77v-0.82c-0.03-44.47-0.03-93.51-0.06-145.03v-0.89h0.83h0.03
			c79.93,0.07,153.6,0.14,211.51,0.17h0.67v0.72c-0.16,44.33-0.26,80.63-0.35,105.95c-0.06,12.51-0.13,22.29-0.16,29
			c-0.03,3.27-0.06,5.76-0.06,7.53C1860.14,953.43,1860.08,954.24,1860.08,954.24z"/>
		<path class="st13" d="M1860.08,830.75c0,0.48-47.38,0.89-105.8,0.89c-58.45,0-105.8-0.41-105.8-0.89s47.35-0.89,105.8-0.89
			C1812.7,829.86,1860.08,830.27,1860.08,830.75z"/>
		<path class="st13" d="M1664.21,820.19c0,1.33-1.16,2.42-2.57,2.42s-2.57-1.09-2.57-2.42c0-1.33,1.16-2.42,2.57-2.42
			S1664.21,818.86,1664.21,820.19z"/>
		<path class="st13" d="M1673.61,820.19c0,1.33-1.15,2.42-2.57,2.42c-1.41,0-2.57-1.09-2.57-2.42c0-1.33,1.16-2.42,2.57-2.42
			C1672.46,817.77,1673.61,818.86,1673.61,820.19z"/>
		<path class="st13" d="M1683.02,820.19c0,1.33-1.16,2.42-2.57,2.42c-1.41,0-2.57-1.09-2.57-2.42c0-1.33,1.16-2.42,2.57-2.42
			C1681.86,817.77,1683.02,818.86,1683.02,820.19z"/>
		<path class="st14" d="M1385.08,793.17v11.24c0,1.87-0.59,3.34-1.76,4.43c-1.16,1.09-2.76,1.63-4.78,1.63
			c-1.99,0-3.57-0.53-4.75-1.58c-1.17-1.05-1.77-2.5-1.79-4.35v-11.37h3.52v11.26c0,1.12,0.27,1.93,0.8,2.45
			c0.54,0.51,1.28,0.76,2.23,0.76c1.98,0,2.98-1.04,3.01-3.12v-11.36H1385.08z M1391.7,810.23h-3.52v-17.06h3.52V810.23z
			 M1395.81,811.7h-2.52l6.28-18.53h2.52L1395.81,811.7z M1416.86,793.17v11.24c0,1.87-0.59,3.34-1.76,4.43
			c-1.16,1.09-2.76,1.63-4.78,1.63c-1.99,0-3.58-0.53-4.75-1.58c-1.17-1.05-1.77-2.5-1.79-4.35v-11.37h3.52v11.26
			c0,1.12,0.27,1.93,0.8,2.45c0.54,0.51,1.28,0.76,2.23,0.76c1.98,0,2.98-1.04,3.01-3.12v-11.36H1416.86z M1425.85,799.05l3.2-5.88
			h4.04l-4.97,8.46l5.1,8.6h-4.09l-3.28-5.98l-3.28,5.98h-4.09l5.1-8.6l-4.97-8.46h4.04L1425.85,799.05z"/>
	</g>
</g>
</svg>
