<svg width="794" height="489" viewBox="0 0 794 489" fill="none" xmlns="http://www.w3.org/2000/svg">
<path opacity="0.3" d="M783.704 187.77C782.447 187.77 781.253 188.011 780.149 188.429C779.539 178.622 771.414 170.858 761.448 170.883C756.204 170.896 751.481 173.078 748.104 176.567C664.388 66.9246 508.051 103.755 427.343 195.255C424.385 198.604 417.491 212.18 413.746 213.854C406.852 216.912 408.579 214.336 403.64 208.97C389.573 193.72 383.2 168.993 371.824 151.459C349.594 117.191 311.1 93.0347 269.419 95.2803C229.592 97.4371 203.134 120.528 180.18 150.647C169.261 164.971 158.584 179.497 151.728 196.435C151.665 196.6 151.601 196.752 151.538 196.917C150.852 197.234 150.167 197.564 149.481 197.919V197.907C146.18 199.429 141.902 202.664 140.67 203.616C140.543 203.717 140.429 203.806 140.302 203.895C140.429 203.641 140.556 203.387 140.683 203.146C140.772 203.134 140.848 203.121 140.937 203.096L140.886 202.753C145.558 193.288 149.634 183.037 152.097 172.748C152.147 172.735 152.198 172.723 152.249 172.723L152.185 172.367C154.001 164.641 154.902 156.889 154.433 149.454C154.369 148.376 154.242 147.209 154.077 145.991C154.077 145.991 154.09 145.991 154.103 145.991L154.026 145.61C152.922 138.29 149.773 129.256 142.905 126.757C142.905 126.719 142.917 126.694 142.917 126.681L142.524 126.618C141.572 126.313 140.569 126.123 139.477 126.085C135.478 125.945 131.948 128.064 128.952 130.995L128.66 131.248C128.66 131.248 128.673 131.274 128.685 131.274C125.778 134.204 123.404 137.858 121.652 140.891C119.697 144.253 117.957 147.729 116.408 151.281L116.129 151.497C116.129 151.51 116.18 151.56 116.243 151.662C112.384 160.568 109.642 169.995 107.407 179.497L107.128 179.726C107.128 179.739 107.191 179.815 107.293 179.954C106.569 183.075 105.884 186.196 105.236 189.317C105.249 188.277 105.249 187.237 105.249 186.184C105.592 185.651 105.795 185.359 105.807 185.334L105.249 184.953C105.249 179.282 105.173 173.623 104.982 167.965C104.766 161.279 104.5 154.529 104.055 147.78C104.22 147.615 104.322 147.513 104.335 147.513L104.017 147.145C103.141 133.811 101.554 120.464 98.3423 107.549C98.4565 107.435 98.5327 107.371 98.5327 107.358L98.2026 107.003C96.8949 101.852 95.346 96.7647 93.4543 91.7914C91.7531 87.3128 89.3663 81.8193 86.1034 77.2139C86.1161 77.2012 86.1288 77.1885 86.1415 77.1885L85.8241 76.8079C82.447 72.1644 78.1431 68.4851 72.6966 67.7746C71.2112 67.5843 69.8019 67.6097 68.4435 67.8127H67.9229C67.9229 67.8254 67.9229 67.8634 67.9229 67.9142C58.0836 69.7411 51.7992 81.2357 48.6506 90.8906L48.4602 91.3854C48.4729 91.3854 48.4729 91.3981 48.4855 91.3981C47.9777 93.0093 47.5588 94.5572 47.216 95.9908C44.9053 105.925 44.3721 116.595 45.0831 127.455L44.918 127.924C44.9815 127.95 45.0577 127.975 45.1211 128C46.1241 142.464 49.3362 157.244 53.5131 171.073L53.3608 171.517C53.475 171.555 53.5766 171.593 53.6909 171.631C53.8051 171.999 53.9194 172.367 54.0336 172.735C53.9702 172.672 53.9194 172.608 53.8559 172.545C52.8783 171.467 47.3937 165.567 42.9755 162.573V162.586C41.6044 161.545 40.2078 160.568 38.8113 159.706L38.5828 159.503C38.5828 159.503 38.5574 159.528 38.5447 159.541C31.8032 155.455 24.9728 153.857 19.8183 158.335L19.539 158.475C19.539 158.488 19.5644 158.526 19.577 158.564C16.2761 161.634 15.1716 166.798 15.1208 171.733V172.088V172.367C15.1335 174.714 15.3747 176.985 15.7302 178.914C16.5427 183.367 18.0662 187.82 20.0214 192.147L19.9452 192.476C19.9579 192.476 20.0468 192.502 20.1991 192.54C23.7159 200.165 28.6419 207.358 33.7837 213.41C32.3872 214.615 31.016 215.884 29.683 217.229C-7.71908 255.125 -1.23149 342.159 39.3953 383.215H748.676C783.145 329.98 791.385 263.131 766.996 208.285L783.742 208.234C789.379 208.221 793.949 203.628 793.949 197.983C793.949 192.324 789.353 187.757 783.704 187.77Z" fill="#6CA4F4"/>
<path d="M702.095 216.049C672.361 196.486 656.529 208.056 641.154 223.661C624.916 240.142 608.996 268.536 586.981 243.961" stroke="white" stroke-miterlimit="10"/>
<path d="M630.464 213.93C621.869 224.917 610.481 236.209 596.186 238.353" stroke="white" stroke-miterlimit="10"/>
<path d="M46.1368 341.22C51.9642 333.684 65.3203 340.827 72.3665 343.999C84.491 349.442 94.5462 353.819 106.226 343.758" stroke="white" stroke-miterlimit="10"/>
<path opacity="0.3" d="M29.137 50.241C51.4564 17.2545 88.084 35.8285 115.063 53.7046C149.545 76.5541 184.75 100.203 224.653 68.003" stroke="#6CA4F4" stroke-miterlimit="10"/>
<path opacity="0.3" d="M121.944 29.1804C173.197 63.9685 198.246 70.3248 256.939 53.5524" stroke="#6CA4F4" stroke-miterlimit="10"/>
<path opacity="0.3" d="M773.61 26.1609C742.848 9.90865 721.329 47.6402 699.124 62.5349" stroke="#6CA4F4" stroke-miterlimit="10"/>
<path opacity="0.3" d="M759.226 54.4912C750.555 50.3045 733.25 59.6549 728.756 67.1784" stroke="#6CA4F4" stroke-miterlimit="10"/>
<path d="M0 383.189H794" stroke="#0E263F" stroke-width="2" stroke-miterlimit="10"/>
<path d="M49.133 193.403L57.944 202.22L78.0796 182.098" stroke="white" stroke-width="2" stroke-miterlimit="10" stroke-linecap="round" stroke-linejoin="round"/>
<path opacity="0.3" d="M749.196 130.221L758.007 139.026L778.143 118.916" stroke="#6CA4F4" stroke-miterlimit="10"/>
<path d="M736.754 282.441L756.674 302.347" stroke="white" stroke-width="2" stroke-miterlimit="10" stroke-linecap="round" stroke-linejoin="round"/>
<path d="M756.674 282.441L736.754 302.347" stroke="white" stroke-width="2" stroke-miterlimit="10" stroke-linecap="round" stroke-linejoin="round"/>
<g opacity="0.3">
<path opacity="0.3" d="M170.201 9.50266L190.133 29.4215" stroke="#6CA4F4" stroke-miterlimit="10"/>
<path opacity="0.3" d="M190.133 9.50266L170.201 29.4215" stroke="#6CA4F4" stroke-miterlimit="10"/>
</g>
<path d="M759.632 247.653C759.632 251.218 756.738 254.11 753.17 254.11C749.602 254.11 746.708 251.218 746.708 247.653C746.708 244.088 749.602 241.195 753.17 241.195C756.738 241.195 759.632 244.088 759.632 247.653Z" stroke="white" stroke-width="2" stroke-miterlimit="10" stroke-linecap="round" stroke-linejoin="round"/>
<path opacity="0.3" d="M15.7429 130.005C19.3118 130.005 22.2051 127.114 22.2051 123.547C22.2051 119.981 19.3118 117.09 15.7429 117.09C12.1739 117.09 9.28067 119.981 9.28067 123.547C9.28067 127.114 12.1739 130.005 15.7429 130.005Z" stroke="#6CA4F4" stroke-miterlimit="10"/>
<path d="M43.3183 311.355C43.3183 314.92 40.4237 317.813 36.8561 317.813C33.2886 317.813 30.3939 314.92 30.3939 311.355C30.3939 307.79 33.2886 304.897 36.8561 304.897C40.4237 304.897 43.3183 307.802 43.3183 311.355Z" stroke="white" stroke-width="2" stroke-miterlimit="10" stroke-linecap="round" stroke-linejoin="round"/>
<path opacity="0.3" d="M658.903 412.141C658.878 418.574 534.039 423.826 380.076 423.877C226.088 423.915 101.3 418.751 101.326 412.319C101.351 405.887 226.19 400.634 380.178 400.583C534.141 400.545 658.929 405.709 658.903 412.141Z" fill="#C1C1C1"/>
<path d="M593.202 60.3146L636.558 399.15C636.558 399.15 640.456 412.23 626.389 412.23C598.928 412.23 538.94 412.23 525.355 412.23C518.893 412.23 562.732 148.046 562.732 148.046L593.202 60.3146Z" fill="#0E263F"/>
<path d="M537.835 408.475C537.505 410.543 535.525 412.23 533.43 412.23H126.895C124.8 412.23 123.353 410.543 123.683 408.475L174.721 87.5666C175.051 85.4986 177.031 83.8112 179.126 83.8112H585.661C587.756 83.8112 589.203 85.4986 588.873 87.5666L537.835 408.475Z" fill="#84BEF7"/>
<path d="M593.202 60.3146C594.167 54.2882 590.193 49.3529 584.086 49.3529H192.139C186.033 49.3529 180.256 54.2882 179.291 60.3146L175.698 83.1768C174.733 89.2032 178.948 94.1258 185.055 94.1258H577.002C583.109 94.1258 588.644 89.1905 589.609 83.1768L593.202 60.3146Z" fill="#6CA4F4"/>
<path d="M587.552 95.8766L173.4 95.8893L177.247 71.7457H591.399L587.552 95.8766Z" fill="#6CA4F4"/>
<path d="M548.03 65.6686C548.03 68.9926 545.339 71.6823 542.012 71.6823C538.686 71.6823 535.994 68.9926 535.994 65.6686C535.994 62.3446 538.686 59.6549 542.012 59.6549C545.339 59.6549 548.03 62.3446 548.03 65.6686Z" fill="white"/>
<path d="M556.968 49.3656H550.76C550.76 45.661 549.731 42.2228 547.878 39.66L552.905 36.0061C555.521 39.6219 556.968 44.3669 556.968 49.3656Z" fill="#0E263F"/>
<path d="M540.057 65.6686C531.944 65.6686 525.368 58.3735 525.368 49.3783" stroke="#C1C1C1" stroke-width="8" stroke-miterlimit="10"/>
<path d="M556.968 49.3656H550.76C550.76 45.661 549.731 42.2228 547.878 39.66L552.905 36.0061C555.521 39.6219 556.968 44.3669 556.968 49.3656Z" fill="#0E263F"/>
<path d="M502.312 65.6686C502.312 68.9926 499.621 71.6823 496.294 71.6823C492.968 71.6823 490.277 68.9926 490.277 65.6686C490.277 62.3446 492.968 59.6549 496.294 59.6549C499.621 59.6549 502.312 62.3446 502.312 65.6686Z" fill="white"/>
<path d="M511.237 49.3656H505.029C505.029 45.661 504.001 42.2228 502.147 39.66L507.175 36.0061C509.79 39.6219 511.237 44.3669 511.237 49.3656Z" fill="#0E263F"/>
<path d="M494.339 65.6686C486.227 65.6686 479.65 58.3735 479.65 49.3783" stroke="#C1C1C1" stroke-width="8" stroke-miterlimit="10"/>
<path d="M511.237 49.3656H505.029C505.029 45.661 504.001 42.2228 502.147 39.66L507.175 36.0061C509.79 39.6219 511.237 44.3669 511.237 49.3656Z" fill="#0E263F"/>
<path d="M456.582 65.6686C456.582 68.9926 453.89 71.6823 450.564 71.6823C447.238 71.6823 444.546 68.9926 444.546 65.6686C444.546 62.3446 447.25 59.6549 450.564 59.6549C453.89 59.6549 456.582 62.3446 456.582 65.6686Z" fill="white"/>
<path d="M465.507 49.3656H459.299C459.299 45.661 458.27 42.2228 456.417 39.66L461.444 36.0061C464.072 39.6219 465.507 44.3669 465.507 49.3656Z" fill="#0E263F"/>
<path d="M448.609 65.6686C440.496 65.6686 433.92 58.3735 433.92 49.3783" stroke="#C1C1C1" stroke-width="8" stroke-miterlimit="10"/>
<path d="M465.507 49.3656H459.299C459.299 45.661 458.27 42.2228 456.417 39.66L461.444 36.0061C464.072 39.6219 465.507 44.3669 465.507 49.3656Z" fill="#0E263F"/>
<path d="M410.864 65.6686C410.864 68.9926 408.172 71.6823 404.846 71.6823C401.52 71.6823 398.828 68.9926 398.828 65.6686C398.828 62.3446 401.52 59.6549 404.846 59.6549C408.16 59.6549 410.864 62.3446 410.864 65.6686Z" fill="white"/>
<path d="M419.789 49.3656H413.581C413.581 45.661 412.565 42.2228 410.712 39.66L415.739 36.0061C418.342 39.6219 419.789 44.3669 419.789 49.3656Z" fill="#0E263F"/>
<path d="M402.878 65.6686C394.766 65.6686 388.189 58.3735 388.189 49.3783" stroke="#C1C1C1" stroke-width="8" stroke-miterlimit="10"/>
<path d="M419.789 49.3656H413.581C413.581 45.661 412.565 42.2228 410.712 39.66L415.739 36.0061C418.342 39.6219 419.789 44.3669 419.789 49.3656Z" fill="#0E263F"/>
<path d="M365.133 65.6686C365.133 68.9926 362.442 71.6823 359.115 71.6823C355.789 71.6823 353.098 68.9926 353.098 65.6686C353.098 62.3446 355.789 59.6549 359.115 59.6549C362.442 59.6549 365.133 62.3446 365.133 65.6686Z" fill="white"/>
<path d="M374.059 49.3656H367.85C367.85 45.661 366.835 42.2228 364.968 39.66L369.996 36.0061C372.624 39.6219 374.059 44.3669 374.059 49.3656Z" fill="#0E263F"/>
<path d="M357.16 65.6686C349.048 65.6686 342.471 58.3735 342.471 49.3783" stroke="#C1C1C1" stroke-width="8" stroke-miterlimit="10"/>
<path d="M374.059 49.3656H367.85C367.85 45.661 366.835 42.2228 364.968 39.66L369.996 36.0061C372.624 39.6219 374.059 44.3669 374.059 49.3656Z" fill="#0E263F"/>
<path d="M319.403 65.6686C319.403 68.9926 316.711 71.6823 313.385 71.6823C310.059 71.6823 307.367 68.9926 307.367 65.6686C307.367 62.3446 310.059 59.6549 313.385 59.6549C316.711 59.6549 319.403 62.3446 319.403 65.6686Z" fill="white"/>
<path d="M328.341 49.3656H322.132C322.132 45.661 321.117 42.2228 319.25 39.66L324.278 36.0061C326.893 39.6219 328.341 44.3669 328.341 49.3656Z" fill="#0E263F"/>
<path d="M311.43 65.6686C303.317 65.6686 296.741 58.3735 296.741 49.3783" stroke="#C1C1C1" stroke-width="8" stroke-miterlimit="10"/>
<path d="M328.341 49.3656H322.132C322.132 45.661 321.117 42.2228 319.25 39.66L324.278 36.0061C326.893 39.6219 328.341 44.3669 328.341 49.3656Z" fill="#0E263F"/>
<path d="M273.685 65.6686C273.685 68.9926 270.993 71.6823 267.667 71.6823C264.341 71.6823 261.649 68.9926 261.649 65.6686C261.649 62.3446 264.341 59.6549 267.667 59.6549C270.993 59.6549 273.685 62.3446 273.685 65.6686Z" fill="white"/>
<path d="M282.61 49.3656H276.402C276.402 45.661 275.373 42.2228 273.52 39.66L278.547 36.0061C281.163 39.6219 282.61 44.3669 282.61 49.3656Z" fill="#0E263F"/>
<path d="M265.712 65.6686C257.599 65.6686 251.023 58.3735 251.023 49.3783" stroke="#C1C1C1" stroke-width="8" stroke-miterlimit="10"/>
<path d="M282.61 49.3656H276.402C276.402 45.661 275.373 42.2228 273.52 39.66L278.547 36.0061C281.163 39.6219 282.61 44.3669 282.61 49.3656Z" fill="#0E263F"/>
<path d="M227.954 65.6686C227.954 68.9926 225.263 71.6823 221.937 71.6823C218.61 71.6823 215.919 68.9926 215.919 65.6686C215.919 62.3446 218.61 59.6549 221.937 59.6549C225.263 59.6549 227.954 62.3446 227.954 65.6686Z" fill="white"/>
<path d="M236.88 49.3656H230.671C230.671 45.661 229.656 42.2228 227.789 39.66L232.817 36.0061C235.445 39.6219 236.88 44.3669 236.88 49.3656Z" fill="#0E263F"/>
<path d="M219.981 65.6686C211.869 65.6686 205.292 58.3735 205.292 49.3783" stroke="#C1C1C1" stroke-width="8" stroke-miterlimit="10"/>
<path d="M236.88 49.3656H230.671C230.671 45.661 229.656 42.2228 227.789 39.66L232.817 36.0061C235.445 39.6219 236.88 44.3669 236.88 49.3656Z" fill="#0E263F"/>
<path opacity="0.2" d="M300.283 95.8893H273.012L302.809 49.3529H330.08L300.283 95.8893Z" fill="#EDEDED"/>
<path opacity="0.2" d="M538.508 95.8893H529.558L559.368 49.3529H568.305L538.508 95.8893Z" fill="#EDEDED"/>
<path opacity="0.2" d="M211.767 95.8893H202.829L232.626 49.3529H241.577L211.767 95.8893Z" fill="#EDEDED"/>
<path opacity="0.2" d="M455.109 95.8893H386.323L416.12 49.3529H484.906L455.109 95.8893Z" fill="#EDEDED"/>
<path opacity="0.2" d="M211.082 412.23H142.295L169.617 368.104H238.403L211.082 412.23Z" fill="#EDEDED"/>
<path opacity="0.2" d="M334.13 412.23H304.726L332.048 368.104H361.439L334.13 412.23Z" fill="#EDEDED"/>
<path opacity="0.2" d="M500.725 412.23H471.334L498.643 368.104H528.047L500.725 412.23Z" fill="#EDEDED"/>
<path opacity="0.2" d="M373.068 412.23H358.366L385.688 368.104H400.377L373.068 412.23Z" fill="#EDEDED"/>
<path d="M542.012 68.7642C533.773 68.7642 527.069 60.0609 527.069 49.3656C527.069 38.6704 533.773 29.967 542.012 29.967C546.202 29.967 550.061 32.1111 552.905 36.0188C553.908 37.4017 553.604 39.3428 552.22 40.3578C550.836 41.36 548.893 41.0556 547.878 39.6727C546.24 37.427 544.158 36.1837 542.012 36.1837C537.277 36.1837 533.278 42.2228 533.278 49.3783C533.278 56.5338 537.277 62.5729 542.012 62.5729C543.726 62.5729 545.123 63.9558 545.123 65.6813C545.123 67.3813 543.726 68.7642 542.012 68.7642Z" fill="#0E263F"/>
<path d="M542.012 68.7642C533.773 68.7642 527.069 60.0609 527.069 49.3656C527.069 38.6704 533.773 29.967 542.012 29.967C546.202 29.967 550.061 32.1111 552.905 36.0188C553.908 37.4017 553.604 39.3428 552.22 40.3578C550.836 41.36 548.893 41.0556 547.878 39.6727C546.24 37.427 544.158 36.1837 542.012 36.1837C537.277 36.1837 533.278 42.2228 533.278 49.3783C533.278 56.5338 537.277 62.5729 542.012 62.5729C543.726 62.5729 545.123 63.9558 545.123 65.6813C545.123 67.3813 543.726 68.7642 542.012 68.7642Z" fill="#0E263F"/>
<path d="M496.294 68.7642C488.055 68.7642 481.351 60.0609 481.351 49.3656C481.351 38.6704 488.055 29.967 496.294 29.967C500.471 29.967 504.344 32.1111 507.175 36.0188C508.178 37.4017 507.873 39.3428 506.489 40.3578C505.105 41.36 503.163 41.0556 502.147 39.6727C500.509 37.427 498.427 36.1837 496.294 36.1837C491.559 36.1837 487.56 42.2228 487.56 49.3783C487.56 56.5338 491.559 62.5729 496.294 62.5729C498.008 62.5729 499.405 63.9558 499.405 65.6813C499.392 67.3813 498.008 68.7642 496.294 68.7642Z" fill="#0E263F"/>
<path d="M496.294 68.7642C488.055 68.7642 481.351 60.0609 481.351 49.3656C481.351 38.6704 488.055 29.967 496.294 29.967C500.471 29.967 504.344 32.1111 507.175 36.0188C508.178 37.4017 507.873 39.3428 506.489 40.3578C505.105 41.36 503.163 41.0556 502.147 39.6727C500.509 37.427 498.427 36.1837 496.294 36.1837C491.559 36.1837 487.56 42.2228 487.56 49.3783C487.56 56.5338 491.559 62.5729 496.294 62.5729C498.008 62.5729 499.405 63.9558 499.405 65.6813C499.392 67.3813 498.008 68.7642 496.294 68.7642Z" fill="#0E263F"/>
<path d="M450.564 68.7642C442.324 68.7642 435.608 60.0609 435.608 49.3656C435.608 38.6704 442.312 29.967 450.564 29.967C454.741 29.967 458.613 32.1111 461.444 36.0188C462.447 37.4017 462.143 39.3428 460.759 40.3578C459.375 41.36 457.42 41.0556 456.417 39.6727C454.779 37.427 452.697 36.1837 450.564 36.1837C445.828 36.1837 441.829 42.2228 441.829 49.3783C441.829 56.5338 445.828 62.5729 450.564 62.5729C452.278 62.5729 453.674 63.9558 453.674 65.6813C453.674 67.3813 452.278 68.7642 450.564 68.7642Z" fill="#0E263F"/>
<path d="M450.564 68.7642C442.324 68.7642 435.608 60.0609 435.608 49.3656C435.608 38.6704 442.312 29.967 450.564 29.967C454.741 29.967 458.613 32.1111 461.444 36.0188C462.447 37.4017 462.143 39.3428 460.759 40.3578C459.375 41.36 457.42 41.0556 456.417 39.6727C454.779 37.427 452.697 36.1837 450.564 36.1837C445.828 36.1837 441.829 42.2228 441.829 49.3783C441.829 56.5338 445.828 62.5729 450.564 62.5729C452.278 62.5729 453.674 63.9558 453.674 65.6813C453.674 67.3813 452.278 68.7642 450.564 68.7642Z" fill="#0E263F"/>
<path d="M404.846 68.7642C396.606 68.7642 389.903 60.0609 389.903 49.3656C389.903 38.6704 396.606 29.967 404.846 29.967C409.023 29.967 412.895 32.1111 415.739 36.0188C416.742 37.4017 416.437 39.3428 415.053 40.3578C413.67 41.36 411.727 41.0556 410.711 39.6727C409.074 37.427 406.992 36.1837 404.846 36.1837C400.11 36.1837 396.111 42.2228 396.111 49.3783C396.111 56.5338 400.11 62.5729 404.846 62.5729C406.56 62.5729 407.956 63.9558 407.956 65.6813C407.944 67.3813 406.56 68.7642 404.846 68.7642Z" fill="#0E263F"/>
<path d="M404.846 68.7642C396.606 68.7642 389.903 60.0609 389.903 49.3656C389.903 38.6704 396.606 29.967 404.846 29.967C409.023 29.967 412.895 32.1111 415.739 36.0188C416.742 37.4017 416.437 39.3428 415.053 40.3578C413.67 41.36 411.727 41.0556 410.711 39.6727C409.074 37.427 406.992 36.1837 404.846 36.1837C400.11 36.1837 396.111 42.2228 396.111 49.3783C396.111 56.5338 400.11 62.5729 404.846 62.5729C406.56 62.5729 407.956 63.9558 407.956 65.6813C407.944 67.3813 406.56 68.7642 404.846 68.7642Z" fill="#0E263F"/>
<path d="M359.116 68.7642C350.876 68.7642 344.172 60.0609 344.172 49.3656C344.172 38.6704 350.876 29.967 359.116 29.967C363.292 29.967 367.165 32.1111 369.996 36.0188C370.999 37.4017 370.694 39.3428 369.31 40.3578C367.926 41.36 365.984 41.0556 364.968 39.6727C363.331 37.427 361.248 36.1837 359.116 36.1837C354.38 36.1837 350.381 42.2228 350.381 49.3783C350.381 56.5338 354.38 62.5729 359.116 62.5729C360.829 62.5729 362.226 63.9558 362.226 65.6813C362.226 67.3813 360.829 68.7642 359.116 68.7642Z" fill="#0E263F"/>
<path d="M359.116 68.7642C350.876 68.7642 344.172 60.0609 344.172 49.3656C344.172 38.6704 350.876 29.967 359.116 29.967C363.292 29.967 367.165 32.1111 369.996 36.0188C370.999 37.4017 370.694 39.3428 369.31 40.3578C367.926 41.36 365.984 41.0556 364.968 39.6727C363.331 37.427 361.248 36.1837 359.116 36.1837C354.38 36.1837 350.381 42.2228 350.381 49.3783C350.381 56.5338 354.38 62.5729 359.116 62.5729C360.829 62.5729 362.226 63.9558 362.226 65.6813C362.226 67.3813 360.829 68.7642 359.116 68.7642Z" fill="#0E263F"/>
<path d="M313.385 68.7642C305.145 68.7642 298.442 60.0609 298.442 49.3656C298.442 38.6704 305.145 29.967 313.385 29.967C317.562 29.967 321.434 32.1111 324.278 36.0188C325.281 37.4017 324.976 39.3428 323.592 40.3578C322.209 41.36 320.266 41.0556 319.25 39.6727C317.613 37.427 315.531 36.1837 313.398 36.1837C308.662 36.1837 304.663 42.2228 304.663 49.3783C304.663 56.5338 308.662 62.5729 313.398 62.5729C315.112 62.5729 316.508 63.9558 316.508 65.6813C316.495 67.3813 315.099 68.7642 313.385 68.7642Z" fill="#0E263F"/>
<path d="M313.385 68.7642C305.145 68.7642 298.442 60.0609 298.442 49.3656C298.442 38.6704 305.145 29.967 313.385 29.967C317.562 29.967 321.434 32.1111 324.278 36.0188C325.281 37.4017 324.976 39.3428 323.592 40.3578C322.209 41.36 320.266 41.0556 319.25 39.6727C317.613 37.427 315.531 36.1837 313.398 36.1837C308.662 36.1837 304.663 42.2228 304.663 49.3783C304.663 56.5338 308.662 62.5729 313.398 62.5729C315.112 62.5729 316.508 63.9558 316.508 65.6813C316.495 67.3813 315.099 68.7642 313.385 68.7642Z" fill="#0E263F"/>
<path d="M267.667 68.7642C259.427 68.7642 252.724 60.0609 252.724 49.3656C252.724 38.6704 259.427 29.967 267.667 29.967C271.844 29.967 275.716 32.1111 278.56 36.0188C279.563 37.4017 279.258 39.3428 277.875 40.3578C276.491 41.36 274.548 41.0556 273.533 39.6727C271.895 37.427 269.813 36.1837 267.667 36.1837C262.932 36.1837 258.932 42.2228 258.932 49.3783C258.932 56.5338 262.932 62.5729 267.667 62.5729C269.381 62.5729 270.778 63.9558 270.778 65.6813C270.765 67.3813 269.381 68.7642 267.667 68.7642Z" fill="#0E263F"/>
<path d="M267.667 68.7642C259.427 68.7642 252.724 60.0609 252.724 49.3656C252.724 38.6704 259.427 29.967 267.667 29.967C271.844 29.967 275.716 32.1111 278.56 36.0188C279.563 37.4017 279.258 39.3428 277.875 40.3578C276.491 41.36 274.548 41.0556 273.533 39.6727C271.895 37.427 269.813 36.1837 267.667 36.1837C262.932 36.1837 258.932 42.2228 258.932 49.3783C258.932 56.5338 262.932 62.5729 267.667 62.5729C269.381 62.5729 270.778 63.9558 270.778 65.6813C270.765 67.3813 269.381 68.7642 267.667 68.7642Z" fill="#0E263F"/>
<path d="M221.937 68.7642C213.697 68.7642 206.994 60.0609 206.994 49.3656C206.994 38.6704 213.697 29.967 221.937 29.967C226.114 29.967 229.986 32.1111 232.817 36.0188C233.82 37.4017 233.515 39.3428 232.131 40.3578C230.748 41.36 228.805 41.0556 227.789 39.6727C226.152 37.427 224.069 36.1837 221.937 36.1837C217.201 36.1837 213.202 42.2228 213.202 49.3783C213.202 56.5338 217.201 62.5729 221.937 62.5729C223.651 62.5729 225.047 63.9558 225.047 65.6813C225.047 67.3813 223.651 68.7642 221.937 68.7642Z" fill="#0E263F"/>
<path d="M221.937 68.7642C213.697 68.7642 206.994 60.0609 206.994 49.3656C206.994 38.6704 213.697 29.967 221.937 29.967C226.114 29.967 229.986 32.1111 232.817 36.0188C233.82 37.4017 233.515 39.3428 232.131 40.3578C230.748 41.36 228.805 41.0556 227.789 39.6727C226.152 37.427 224.069 36.1837 221.937 36.1837C217.201 36.1837 213.202 42.2228 213.202 49.3783C213.202 56.5338 217.201 62.5729 221.937 62.5729C223.651 62.5729 225.047 63.9558 225.047 65.6813C225.047 67.3813 223.651 68.7642 221.937 68.7642Z" fill="#0E263F"/>
<path d="M581.293 57.5108L540.133 361.951C540.133 361.951 539.803 368.092 532.96 368.092C526.549 368.092 184.496 368.054 141.216 368.054C136.011 368.054 137.319 363.131 137.319 363.131L139.439 354.161L531.487 354.745L581.293 57.5108Z" fill="#6CA4F4"/>
<path d="M533.316 359.87C532.986 361.938 530.992 363.626 528.897 363.626H140.569C138.474 363.626 137.027 361.938 137.344 359.87L178.06 99.6447C178.377 97.5767 180.358 95.8893 182.452 95.8893H571.898C573.993 95.8893 575.44 97.5767 575.098 99.6447L533.316 359.87Z" fill="#EDEDED"/>
<path d="M179.558 89.4443H576.621L571.048 123.547H174.099L179.558 89.4443Z" fill="#EDEDED"/>
<path d="M226.05 150.926C226.126 150.926 226.164 150.939 226.202 150.951L220.73 184.864C220.705 184.991 220.426 185.232 220.108 185.232H172.943C172.88 185.232 172.829 185.219 172.791 185.207L178.263 151.281C178.275 151.167 178.542 150.913 178.885 150.913H226.05V150.926ZM226.05 149.657H178.898C177.996 149.657 177.146 150.304 177.019 151.091L171.534 185.067C171.407 185.854 172.042 186.501 172.943 186.501H220.108C221.01 186.501 221.86 185.854 221.987 185.067L227.472 151.091C227.599 150.304 226.964 149.657 226.05 149.657Z" fill="white"/>
<path d="M228.361 145.585C228.234 146.371 227.383 147.018 226.482 147.018H179.329C178.428 147.018 177.793 146.371 177.92 145.585L179.101 138.29C179.228 137.503 180.078 136.856 180.98 136.856H228.132C229.034 136.856 229.668 137.503 229.541 138.29L228.361 145.585Z" fill="#FFAF99"/>
<path d="M223.752 144.215H197.789L198.589 139.317H224.539L223.752 144.215Z" fill="#E88379"/>
<path d="M275.247 185.067C275.12 185.854 274.269 186.501 273.368 186.501H226.202C225.301 186.501 224.666 185.854 224.793 185.067L230.278 151.091C230.405 150.304 231.255 149.657 232.157 149.657H279.309C280.211 149.657 280.845 150.304 280.718 151.091L275.247 185.067Z" fill="#8BC9E8"/>
<path d="M281.607 145.585C281.48 146.371 280.63 147.018 279.728 147.018H232.576C231.674 147.018 231.04 146.371 231.166 145.585L232.347 138.29C232.474 137.503 233.312 136.856 234.226 136.856H281.379C282.28 136.856 282.915 137.503 282.788 138.29L281.607 145.585Z" fill="#FFAF99"/>
<path d="M277.011 144.215H251.048L251.848 139.317H277.798L277.011 144.215Z" fill="#E88379"/>
<path d="M328.493 185.067C328.366 185.854 327.515 186.501 326.614 186.501H279.462C278.56 186.501 277.925 185.854 278.052 185.067L283.537 151.091C283.664 150.304 284.502 149.657 285.416 149.657H332.568C333.47 149.657 334.117 150.304 333.978 151.091L328.493 185.067Z" fill="white"/>
<path d="M334.866 145.585C334.739 146.371 333.889 147.018 332.987 147.018H285.835C284.933 147.018 284.299 146.371 284.426 145.585L285.606 138.29C285.733 137.503 286.584 136.856 287.485 136.856H334.638C335.539 136.856 336.174 137.503 336.06 138.29L334.866 145.585Z" fill="#FFAF99"/>
<path d="M330.27 144.215H304.307L305.107 139.317H331.058L330.27 144.215Z" fill="#E88379"/>
<path d="M381.752 185.067C381.625 185.854 380.775 186.501 379.873 186.501H332.721C331.819 186.501 331.185 185.854 331.312 185.067L336.796 151.091C336.923 150.304 337.774 149.657 338.675 149.657H385.828C386.729 149.657 387.377 150.304 387.237 151.091L381.752 185.067Z" fill="white"/>
<path d="M388.126 145.585C387.999 146.371 387.161 147.018 386.247 147.018H339.094C338.193 147.018 337.558 146.371 337.685 145.585L338.866 138.29C338.993 137.503 339.83 136.856 340.745 136.856H387.897C388.798 136.856 389.433 137.503 389.306 138.29L388.126 145.585Z" fill="#FFAF99"/>
<path d="M379.759 167.559H364.27L366.454 154.034H381.943L379.759 167.559Z" fill="#EDEDED"/>
<path d="M383.53 144.215H357.567L358.354 139.317H384.317L383.53 144.215Z" fill="#E88379"/>
<path d="M435.011 185.067C434.885 185.854 434.034 186.501 433.132 186.501H385.98C385.079 186.501 384.444 185.854 384.571 185.067L390.055 151.091C390.182 150.304 391.033 149.657 391.934 149.657H439.1C440.001 149.657 440.636 150.304 440.509 151.091L435.011 185.067Z" fill="white"/>
<path d="M441.385 145.585C441.258 146.371 440.407 147.018 439.506 147.018H392.341C391.439 147.018 390.804 146.371 390.931 145.585L392.112 138.29C392.239 137.503 393.077 136.856 393.991 136.856H441.144C442.045 136.856 442.68 137.503 442.553 138.29L441.385 145.585Z" fill="#FFAF99"/>
<path d="M433.018 167.559H417.529L419.713 154.034H435.202L433.018 167.559Z" fill="#EDEDED"/>
<path d="M273.139 167.559H257.65L259.834 154.034H275.323L273.139 167.559Z" fill="#C1C1C1"/>
<path d="M326.398 167.559H310.909L313.093 154.034H328.582L326.398 167.559Z" fill="#EDEDED"/>
<path d="M436.789 144.215H410.826L411.613 139.317H437.576L436.789 144.215Z" fill="#E88379"/>
<path d="M488.271 185.067C488.144 185.854 487.293 186.501 486.392 186.501H439.226C438.325 186.501 437.69 185.854 437.817 185.067L443.302 151.091C443.429 150.304 444.279 149.657 445.181 149.657H492.346C493.247 149.657 493.882 150.304 493.755 151.091L488.271 185.067Z" fill="white"/>
<path d="M494.644 145.585C494.517 146.371 493.666 147.018 492.765 147.018H445.612C444.711 147.018 444.076 146.371 444.191 145.585L445.371 138.29C445.498 137.503 446.349 136.856 447.25 136.856H494.415C495.317 136.856 495.952 137.503 495.825 138.29L494.644 145.585Z" fill="#FFAF99"/>
<path d="M486.277 167.559H470.788L472.972 154.034H488.461L486.277 167.559Z" fill="#EDEDED"/>
<path d="M490.048 144.215H464.085L464.872 139.317H490.835L490.048 144.215Z" fill="#E88379"/>
<path d="M541.53 185.067C541.403 185.854 540.565 186.501 539.651 186.501H492.498C491.597 186.501 490.962 185.854 491.089 185.067L496.574 151.091C496.701 150.304 497.551 149.657 498.453 149.657H545.605C546.507 149.657 547.141 150.304 547.014 151.091L541.53 185.067Z" fill="white"/>
<path d="M547.903 145.585C547.776 146.371 546.926 147.018 546.024 147.018H498.872C497.97 147.018 497.335 146.371 497.462 145.585L498.643 138.29C498.77 137.503 499.621 136.856 500.522 136.856H547.675C548.576 136.856 549.211 137.503 549.084 138.29L547.903 145.585Z" fill="#FFAF99"/>
<path d="M539.537 167.559H524.048L526.231 154.034H541.72L539.537 167.559Z" fill="#FFAF99"/>
<path d="M215.525 225.032C215.398 225.818 214.548 226.465 213.646 226.465H166.494C165.592 226.465 164.958 225.818 165.072 225.032L170.556 191.055C170.683 190.269 171.534 189.622 172.435 189.622H219.588C220.489 189.622 221.124 190.269 220.997 191.055L215.525 225.032Z" fill="white"/>
<path d="M213.532 207.523H198.043L200.227 193.999H215.716L213.532 207.523Z" fill="#EDEDED"/>
<path d="M268.784 225.032C268.657 225.818 267.819 226.465 266.905 226.465H219.753C218.851 226.465 218.217 225.818 218.344 225.032L223.828 191.055C223.955 190.269 224.793 189.622 225.707 189.622H272.86C273.761 189.622 274.396 190.269 274.269 191.055L268.784 225.032Z" fill="white"/>
<path d="M266.791 207.523H251.302L253.486 193.999H268.975L266.791 207.523Z" fill="#EDEDED"/>
<path d="M322.044 225.032C321.917 225.818 321.066 226.465 320.165 226.465H273.012C272.111 226.465 271.476 225.818 271.603 225.032L277.087 191.055C277.214 190.269 278.065 189.622 278.966 189.622H326.119C327.02 189.622 327.655 190.269 327.528 191.055L322.044 225.032Z" fill="#6CA4F4"/>
<path d="M320.05 207.523H304.561L306.745 193.999H322.234L320.05 207.523Z" fill="#C1C1C1"/>
<path d="M328.988 117.787H182.757L184.941 104.276H331.172L328.988 117.787Z" fill="#6CA4F4"/>
<path d="M547.586 117.787H512.431L514.615 104.276H549.769L547.586 117.787Z" fill="#6CA4F4"/>
<path d="M226.939 125.4H181.678L182.77 119.805H228.031L226.939 125.4Z" fill="#8BC9E8"/>
<path d="M283.867 125.4H229.579L230.671 119.805H284.959L283.867 125.4Z" fill="#8BC9E8"/>
<path d="M375.303 225.032C375.176 225.818 374.325 226.465 373.424 226.465H326.271C325.37 226.465 324.735 225.818 324.862 225.032L330.347 191.055C330.474 190.269 331.324 189.622 332.226 189.622H379.391C380.292 189.622 380.927 190.269 380.8 191.055L375.303 225.032Z" fill="#6CA4F4"/>
<path d="M373.31 207.523H357.821L360.004 193.999H375.493L373.31 207.523Z" fill="#C1C1C1"/>
<path d="M428.562 225.032C428.435 225.818 427.597 226.465 426.683 226.465H379.518C378.616 226.465 377.982 225.818 378.096 225.032L383.58 191.055C383.707 190.269 384.558 189.622 385.459 189.622H432.612C433.513 189.622 434.148 190.269 434.034 191.055L428.562 225.032Z" fill="#6CA4F4"/>
<path d="M426.569 207.523H411.08L413.263 193.999H428.752L426.569 207.523Z" fill="#C1C1C1"/>
<path d="M481.821 225.032C481.694 225.818 480.844 226.465 479.942 226.465H432.79C431.888 226.465 431.253 225.818 431.38 225.032L436.865 191.055C436.992 190.269 437.843 189.622 438.744 189.622H485.897C486.798 189.622 487.433 190.269 487.306 191.055L481.821 225.032Z" fill="#6CA4F4"/>
<path d="M479.828 207.523H464.339L466.523 193.999H481.999L479.828 207.523Z" fill="#C1C1C1"/>
<path d="M535.08 225.032C534.953 225.818 534.103 226.465 533.201 226.465H486.049C485.147 226.465 484.513 225.818 484.64 225.032L490.124 191.055C490.251 190.269 491.089 189.622 492.003 189.622H539.156C540.057 189.622 540.692 190.269 540.565 191.055L535.08 225.032Z" fill="white"/>
<path d="M533.074 207.523H517.598L519.782 193.999H535.258L533.074 207.523Z" fill="#FFAF99"/>
<path d="M209.076 264.996C208.949 265.783 208.098 266.43 207.197 266.43H160.044C159.143 266.43 158.508 265.783 158.635 264.996L164.12 231.02C164.247 230.233 165.097 229.586 165.999 229.586H213.164C214.065 229.586 214.7 230.233 214.573 231.02L209.076 264.996Z" fill="white"/>
<path d="M207.082 247.488H191.593L193.777 233.963H209.266L207.082 247.488Z" fill="#EDEDED"/>
<path d="M262.335 264.996C262.208 265.783 261.37 266.43 260.456 266.43H213.303C212.402 266.43 211.755 265.783 211.894 264.996L217.379 231.02C217.506 230.233 218.356 229.586 219.258 229.586H266.41C267.312 229.586 267.946 230.233 267.819 231.02L262.335 264.996Z" fill="white"/>
<path d="M260.342 247.488H244.853L247.036 233.963H262.525L260.342 247.488Z" fill="#EDEDED"/>
<path d="M315.594 264.996C315.467 265.783 314.629 266.43 313.715 266.43H266.563C265.661 266.43 265.026 265.783 265.153 264.996L270.638 231.02C270.765 230.233 271.616 229.586 272.517 229.586H319.669C320.571 229.586 321.206 230.233 321.079 231.02L315.594 264.996Z" fill="white"/>
<path d="M313.601 247.488H298.112L300.296 233.963H315.784L313.601 247.488Z" fill="#EDEDED"/>
<path d="M368.853 264.996C368.726 265.783 367.876 266.43 366.974 266.43H319.809C318.908 266.43 318.273 265.783 318.4 264.996L323.884 231.02C324.011 230.233 324.862 229.586 325.763 229.586H372.916C373.817 229.586 374.452 230.233 374.325 231.02L368.853 264.996Z" fill="white"/>
<path d="M366.86 247.488H351.371L353.542 233.963H369.031L366.86 247.488Z" fill="#EDEDED"/>
<path d="M422.112 264.996C421.985 265.783 421.135 266.43 420.233 266.43H373.068C372.167 266.43 371.532 265.783 371.659 264.996L377.144 231.02C377.271 230.233 378.121 229.586 379.023 229.586H426.175C427.076 229.586 427.711 230.233 427.584 231.02L422.112 264.996Z" fill="white"/>
<path d="M420.106 247.488H404.618L406.801 233.963H422.29L420.106 247.488Z" fill="#EDEDED"/>
<path d="M475.372 264.996C475.245 265.783 474.394 266.43 473.493 266.43H426.34C425.439 266.43 424.804 265.783 424.918 264.996L430.403 231.02C430.53 230.233 431.38 229.586 432.282 229.586H479.434C480.336 229.586 480.97 230.233 480.844 231.02L475.372 264.996Z" fill="white"/>
<path d="M473.366 247.488H457.889L460.06 233.963H475.549L473.366 247.488Z" fill="#EDEDED"/>
<path d="M528.631 264.996C528.504 265.783 527.653 266.43 526.752 266.43H479.599C478.698 266.43 478.063 265.783 478.19 264.996L483.675 231.02C483.802 230.233 484.652 229.586 485.554 229.586H532.706C533.608 229.586 534.242 230.233 534.115 231.02L528.631 264.996Z" fill="white"/>
<path d="M526.625 247.488H511.136L513.32 233.963H528.809L526.625 247.488Z" fill="#FFAF99"/>
<path d="M202.626 304.961C202.499 305.747 201.649 306.394 200.747 306.394H153.595C152.693 306.394 152.059 305.747 152.185 304.961L157.67 270.972C157.797 270.185 158.648 269.538 159.549 269.538H206.702C207.603 269.538 208.238 270.185 208.111 270.972L202.626 304.961Z" fill="white"/>
<path d="M200.62 287.452H185.144L187.315 273.928H202.804L200.62 287.452Z" fill="#EDEDED"/>
<path d="M255.885 304.961C255.758 305.747 254.908 306.394 254.006 306.394H206.854C205.952 306.394 205.318 305.747 205.445 304.961L210.929 270.972C211.056 270.185 211.907 269.538 212.808 269.538H259.961C260.862 269.538 261.497 270.185 261.37 270.972L255.885 304.961Z" fill="#FFAF99"/>
<path d="M253.879 287.452H238.403L240.574 273.928H256.063L253.879 287.452Z" fill="#E88379"/>
<path d="M309.145 304.961C309.018 305.747 308.18 306.394 307.266 306.394H260.113C259.212 306.394 258.577 305.747 258.704 304.961L264.188 270.972C264.315 270.185 265.166 269.538 266.067 269.538H313.22C314.121 269.538 314.756 270.185 314.629 270.972L309.145 304.961Z" fill="white"/>
<path d="M307.139 287.452H291.65L293.833 273.928H309.322L307.139 287.452Z" fill="#EDEDED"/>
<path d="M362.404 304.961C362.277 305.747 361.426 306.394 360.525 306.394H313.36C312.458 306.394 311.823 305.747 311.95 304.961L317.435 270.972C317.562 270.185 318.4 269.538 319.314 269.538H366.479C367.38 269.538 368.015 270.185 367.888 270.972L362.404 304.961Z" fill="white"/>
<path d="M360.398 287.452H344.909L347.093 273.928H362.581L360.398 287.452Z" fill="#EDEDED"/>
<path d="M415.65 304.961C415.523 305.747 414.685 306.394 413.771 306.394H366.606C365.705 306.394 365.07 305.747 365.197 304.961L370.681 270.972C370.808 270.185 371.646 269.538 372.56 269.538H419.713C420.614 269.538 421.262 270.185 421.122 270.972L415.65 304.961Z" fill="white"/>
<path d="M413.657 287.452H398.168L400.352 273.928H415.841L413.657 287.452Z" fill="#EDEDED"/>
<path d="M468.909 304.961C468.782 305.747 467.932 306.394 467.03 306.394H419.878C418.977 306.394 418.342 305.747 418.469 304.961L423.953 270.972C424.08 270.185 424.931 269.538 425.832 269.538H472.985C473.886 269.538 474.521 270.185 474.394 270.972L468.909 304.961Z" fill="#FFA71A"/>
<path d="M466.916 287.452H451.427L453.611 273.928H469.1L466.916 287.452Z" fill="#C1C1C1"/>
<path d="M522.169 304.961C522.042 305.747 521.204 306.394 520.29 306.394H473.124C472.223 306.394 471.588 305.747 471.715 304.961L477.2 270.972C477.327 270.185 478.177 269.538 479.079 269.538H526.244C527.145 269.538 527.78 270.185 527.653 270.972L522.169 304.961Z" fill="#FFA71A"/>
<path d="M520.175 287.452H504.686L506.87 273.928H522.359L520.175 287.452Z" fill="#C1C1C1"/>
<path d="M196.164 344.925C196.037 345.712 195.186 346.359 194.285 346.359H147.133C146.231 346.359 145.584 345.712 145.723 344.925L151.208 310.949C151.335 310.162 152.185 309.515 153.087 309.515H200.239C201.141 309.515 201.776 310.162 201.649 310.949L196.164 344.925Z" fill="white"/>
<path d="M194.171 327.417H178.682L180.865 313.892H196.354L194.171 327.417Z" fill="#EDEDED"/>
<path d="M249.423 344.925C249.296 345.712 248.446 346.359 247.544 346.359H200.392C199.49 346.359 198.855 345.712 198.982 344.925L204.467 310.949C204.594 310.162 205.445 309.515 206.346 309.515H253.499C254.4 309.515 255.035 310.162 254.908 310.949L249.423 344.925Z" fill="white"/>
<path d="M247.43 327.417H231.941L234.125 313.892H249.614L247.43 327.417Z" fill="#EDEDED"/>
<path d="M302.682 344.925C302.555 345.712 301.705 346.359 300.803 346.359H253.651C252.749 346.359 252.115 345.712 252.242 344.925L257.726 310.949C257.853 310.162 258.691 309.515 259.605 309.515H306.758C307.659 309.515 308.294 310.162 308.167 310.949L302.682 344.925Z" fill="white"/>
<path d="M300.689 327.417H285.2L287.384 313.892H302.873L300.689 327.417Z" fill="#EDEDED"/>
<path d="M355.942 344.925C355.815 345.712 354.964 346.359 354.063 346.359H306.897C305.996 346.359 305.361 345.712 305.488 344.925L310.973 310.949C311.1 310.162 311.95 309.515 312.852 309.515H360.017C360.918 309.515 361.553 310.162 361.426 310.949L355.942 344.925Z" stroke="white" stroke-miterlimit="10"/>
<path d="M409.201 344.925C409.074 345.712 408.223 346.359 407.322 346.359H360.169C359.268 346.359 358.633 345.712 358.76 344.925L364.245 310.949C364.372 310.162 365.21 309.515 366.124 309.515H413.289C414.19 309.515 414.825 310.162 414.698 310.949L409.201 344.925Z" stroke="white" stroke-miterlimit="10"/>
<path d="M466.535 310.784C466.599 310.784 466.65 310.797 466.688 310.809L461.216 344.735C461.19 344.862 460.911 345.103 460.594 345.103H413.441C413.365 345.103 413.327 345.09 413.289 345.077L418.761 311.152C418.786 311.025 419.065 310.784 419.383 310.784H466.535ZM466.535 309.515H419.37C418.469 309.515 417.618 310.162 417.491 310.949L412.007 344.925C411.88 345.712 412.514 346.359 413.416 346.359H460.568C461.47 346.359 462.32 345.712 462.447 344.925L467.932 310.949C468.072 310.162 467.437 309.515 466.535 309.515Z" fill="white"/>
<path d="M519.794 310.784C519.858 310.784 519.909 310.797 519.947 310.809L514.462 344.735C514.437 344.862 514.17 345.103 513.84 345.103H466.675C466.611 345.103 466.561 345.09 466.523 345.077L471.994 311.165C472.02 311.038 472.299 310.784 472.617 310.784H519.794ZM519.794 309.515H472.629C471.728 309.515 470.877 310.162 470.75 310.949L465.266 344.925C465.139 345.712 465.773 346.359 466.675 346.359H513.84C514.742 346.359 515.592 345.712 515.719 344.925L521.204 310.949C521.331 310.162 520.696 309.515 519.794 309.515Z" fill="white"/>
<path d="M543.307 144.215H517.344L518.131 139.317H544.094L543.307 144.215Z" fill="#E88379"/>
<path opacity="0.3" d="M22.2051 478.241C22.2178 484.103 64.8124 488.924 117.348 488.987C169.883 489.063 212.453 484.369 212.44 478.508C212.427 472.646 169.833 467.825 117.297 467.762C64.7617 467.686 22.1924 472.38 22.2051 478.241Z" fill="#C1C1C1"/>
<path d="M155.588 150.939C151.462 162.306 162.533 170.984 154.344 181.147C154.344 181.147 139.464 177.112 144.428 159.617C149.392 142.109 155.588 150.939 155.588 150.939Z" fill="#0E263F"/>
<path d="M82.9802 288.15C87.2968 292.185 85.8749 297.31 86.2939 300.799C86.5732 303.172 87.8428 305.861 85.8495 305.037C82.2947 303.552 83.0183 297.627 83.0183 297.627C83.0183 297.627 81.8249 298.16 81.5964 299.67C81.1901 302.284 84.1736 307.79 84.4656 310.403C84.7703 313.194 79.0953 310.67 76.9243 307.523C72.887 302.131 73.1409 292.857 73.179 292.007C73.2552 290.155 73.3694 284.915 73.3694 284.915L83.8816 278.521C83.8689 278.495 82.3073 287.465 82.9802 288.15Z" fill="#FFAF99"/>
<path d="M240.955 181.198C240.955 181.198 262.601 160.048 264.252 159.249C265.902 158.462 265.09 162.154 262.792 163.994C262.792 163.994 258.551 169.525 257.396 170.35C256.228 171.175 264.023 176.909 260.557 181.565C258.78 183.392 256.571 184.56 254.946 185.537C253.321 186.513 248.433 189.444 248.433 189.444L240.955 181.198Z" fill="#FFAF99"/>
<path d="M154.902 450.444C154.902 450.444 154.395 452.613 156.108 459.655C157.822 466.696 138.385 468.066 137.763 463.347C137.115 458.361 138.525 450.406 138.36 448.592C138.22 446.853 154.902 450.444 154.902 450.444Z" fill="white"/>
<path d="M83.0056 449.251C83.0056 449.251 79.9713 453.501 80.2887 458.805C80.6188 464.108 67.2754 460.543 67.0596 458.805C66.8438 457.054 67.4912 450.558 69.6622 445.242C71.8459 439.926 83.0056 449.251 83.0056 449.251Z" fill="white"/>
<path d="M81.8376 458.437C82.028 465.072 88.541 468.257 88.2871 473.331C88.2363 474.308 88.2744 476.3 87.7031 477.087C85.9892 479.434 81.9138 479.713 78.5621 479.713C73.7376 479.7 68.7735 479.358 65.0537 477.886C58.8327 475.438 65.1171 463.753 65.4599 458.196C65.7646 453.501 81.6472 451.789 81.8376 458.437Z" fill="#0E263F"/>
<path d="M133.218 316.1C129.206 333.507 114.276 375.209 109.667 382.593C106.087 388.34 92.2609 428.457 86.4716 442.565C86.1923 443.25 86.5732 445.166 86.2812 445.762C84.8592 448.617 83.8689 450.571 83.5389 451.18C81.5329 455.024 66.9453 450.101 67.6309 445.737C67.7325 445.128 68.5323 442.527 69.1544 440.319C69.3322 439.66 70.551 438.81 70.7795 438.036C75.0834 422.862 80.1998 385.042 89.6456 372.672C98.7485 325.361 97.5805 300.063 103.814 278.381C103.814 278.381 106.023 279.091 113.374 280.69C133.434 285.067 151.792 282.174 153.76 281.971C156.4 281.705 159.13 281.362 161.936 280.944C166.075 317.889 165.745 354.529 164.894 370.629C164.513 377.924 159.625 418.485 156.515 439.736C156.4 440.522 157.492 441.182 157.378 441.918C156.946 444.976 156.718 449.048 156.477 451.129C156.299 454.745 137.268 453.895 137.763 450.748C138.169 448.173 137.23 445.306 137.522 442.692C137.585 442.108 139.159 440.307 139.21 439.736C141.419 417.952 137.534 392.578 140.074 375.108L133.218 316.1Z" fill="#0E263F"/>
<path d="M136.608 460.137C136.557 461.012 136.506 462.078 136.557 462.788C136.608 463.765 136.074 470.287 135.909 474.22C135.833 476.008 136.125 476.935 138.245 477.176C144.631 477.899 161.936 478.419 165.948 478.419C170.823 478.419 175.457 478.089 176.396 476.186C177.069 474.816 177.691 472.355 176.333 470.363C174.886 468.244 171.305 466.62 166.341 465.085C161.53 463.6 162.063 462.408 160.26 458.589C159.295 456.572 155.499 456.686 149.837 457.244C148.453 457.384 147.386 462.002 144.631 462.243C140.975 462.56 138.677 460.822 137.572 459.629C136.976 459.046 136.658 459.274 136.608 460.137Z" fill="#0E263F"/>
<path d="M147.945 170.223L140.772 168.447L134.246 161.19L128.8 169.119L113.793 172.558L116.485 292.311L150.154 292.857L155.347 182.504L147.945 170.223Z" fill="#0E263F"/>
<path d="M105.782 176.059C109.4 172.773 126.629 168.726 129.409 167.813H143.489C143.489 167.813 161.631 174.118 165.364 176.389C169.096 178.66 197.522 204.402 199.109 206.661C203.718 205.265 218.128 194.608 231.954 185.93C232.728 185.219 235.343 185.296 236.016 184.674C238.251 182.606 239.876 181.096 240.6 180.487C244.84 176.909 252.851 185.752 249.563 189.203C249.004 189.787 247.468 191.423 245.259 193.732C244.738 194.278 244.408 196.308 243.824 196.917C228.919 208.018 199.693 229.675 194.856 229.066C189.194 226.579 166.392 206.8 166.392 206.8C166.392 206.8 167.624 214.489 165.021 224.905C163.371 231.515 161.695 254.834 164.056 262.332C165.808 267.901 163.231 270.883 163.231 270.883C163.231 270.883 164.475 279.929 162.05 281.997C159.828 283.887 149.316 286.069 133.891 286.031C118.884 285.993 104.068 282.53 103.243 280.436C102.316 278.089 103.243 269.538 103.243 269.538L101.021 267.736L105.769 211.9" fill="#FFA71A"/>
<path d="M165.427 265.694C159.155 269.424 135.402 269.081 135.402 269.081L134.576 265.694L133.891 269.094H132.24L131.669 267.394L129.523 269.094C129.523 269.094 117.31 269.081 110.975 268.295L109.616 265.694L108.486 268.066L101.021 267.724L103.243 269.525C103.243 269.525 113.793 273.027 132.456 273.027C153.95 273.027 163.218 270.883 163.218 270.883L165.427 265.694Z" fill="#C1C1C1"/>
<path d="M232.347 185.676C232.347 185.676 237.197 189.508 241.234 194.532L239.216 197.12L241.856 195.306L242.364 195.762L241.628 196.701L242.923 196.054L244.002 196.676L244.688 194.988C244.688 194.988 243.799 188.696 235.737 184.839L232.347 185.676Z" fill="#C1C1C1"/>
<path d="M105.769 211.888L107.686 204.085L93.3274 230.36L105.769 211.888Z" fill="#C1C1C1"/>
<path d="M139.959 473.382C139.959 473.382 140.035 468.866 143.908 468.866C147.729 468.866 148.593 473.649 148.593 473.649C148.593 473.649 159.447 474.207 164.653 474.004C170.277 473.775 177.196 473.179 176.879 471.568C177.412 473.268 176.93 475.082 176.384 476.186C175.444 478.089 170.81 478.419 165.935 478.419C161.923 478.419 144.619 477.899 138.233 477.176C136.112 476.935 135.82 476.008 135.897 474.22C135.935 473.42 135.973 472.519 136.036 471.581C135.935 473.268 139.959 473.382 139.959 473.382Z" fill="white" stroke="white" stroke-width="0.5" stroke-miterlimit="10" stroke-linecap="round" stroke-linejoin="round"/>
<path d="M73.7503 473.382C79.3492 473.966 88.249 473.319 88.0459 471.365C88.2236 471.999 88.3252 472.634 88.2871 473.319C88.2363 474.296 88.2744 476.288 87.7031 477.074C85.9891 479.421 81.9138 479.7 78.5621 479.7C73.7376 479.688 68.7735 479.345 65.0536 477.873C62.0066 476.681 61.9685 473.268 62.743 469.462C62.5653 470.578 68.3419 472.824 73.7503 473.382Z" fill="white" stroke="white" stroke-width="0.5" stroke-miterlimit="10" stroke-linecap="round" stroke-linejoin="round"/>
<path d="M156.642 172.608C155.093 181.591 149.075 189.774 136.658 188.949C124.889 188.163 118.821 178.115 119.252 170.591L123.683 169.411L149.887 170.185L156.642 172.608Z" fill="#C1C1C1"/>
<path d="M129.688 146.003C130.628 154.314 128.609 167.153 127.136 168.447L122.541 169.703C122.287 188.264 150.89 191.766 153.836 171.416L147.526 169.157C147.526 169.157 147.729 163.753 147.526 159.972C147.221 154.301 146.65 144.646 146.65 144.646L129.688 146.003Z" fill="#FFAF99"/>
<path d="M117.119 190.497C116.688 196.524 97.809 238.175 97.809 238.175C97.809 238.175 90.9532 264.298 88.6045 276.96C88.4775 277.671 86.497 278.965 86.37 279.612C85.6971 283.24 85.2147 285.904 85.1004 286.742C84.5545 290.408 71.8713 287.643 71.9094 283.989C71.9221 283.113 72.3538 280.043 73.014 275.869C73.1663 274.943 71.4778 274.029 71.6428 273.014C73.8519 259.414 80.3014 231.616 80.3014 231.616L95.4476 188.036C98.7104 180.145 106.62 174.334 113.45 172.266C118.465 170.769 117.119 190.497 117.119 190.497Z" fill="#FFA71A"/>
<path d="M88.6045 276.96C84.6942 277.1 78.2447 275.45 78.2447 275.45C78.2447 275.45 77.4829 271.987 77.4575 272.304C77.4321 272.608 77.1655 275.082 77.1655 275.082L76.0483 274.638L75.6801 273.281L75.0453 274.232C75.0453 274.232 73.0013 274.296 71.6936 273.484L73.0013 275.577C73.0013 275.577 79.2223 281.629 86.3827 279.624L88.6045 276.96Z" fill="#C1C1C1"/>
<path d="M166.392 206.8V200.368L193.942 228.597C193.942 228.597 173.832 214.463 166.392 206.8Z" fill="#C1C1C1"/>
<path d="M104.893 222.202L110.822 208.247C110.822 208.247 107.014 233.367 102.43 251.154L104.893 222.202Z" fill="#C1C1C1"/>
<path d="M132.469 113.753C122.528 117.229 116.028 125.4 118.364 136.856C120.446 147.069 127.302 148.845 124.585 155.557C121.868 162.268 110.81 181.54 116.777 192.946C122.096 203.121 141.318 202.385 142.473 186.247C143.375 173.598 133.523 170.261 131.77 159.604C130.158 149.746 125.892 133.887 133.522 124.372C141.153 114.869 132.469 113.753 132.469 113.753Z" fill="#0E263F"/>
<path d="M147.488 162.484C144.441 162.509 134.602 154.935 134.005 152.994C133.396 151.053 131.783 148.883 131.783 148.883C131.783 148.883 131.593 157.929 136.252 162.395C142.562 168.447 147.386 163.562 147.386 163.562C147.386 163.562 147.615 163.816 147.488 162.484Z" fill="#E88379"/>
<path d="M124.064 135.79C124.661 145.255 132.812 152.449 142.283 151.852C151.754 151.269 159.13 142.185 158.546 132.72C158.419 130.677 158.381 127.353 157.607 125.577C152.947 114.806 135.884 112.852 127.098 122.9C124.039 126.427 123.81 131.527 124.064 135.79Z" fill="#FFAF99"/>
<path d="M158.292 136.615C158.318 145.686 154.293 161.025 146.282 162.877C142.524 163.753 133.002 157.777 132.139 151.497C131.275 145.217 130.361 138.353 130.361 138.353" fill="#FFAF99"/>
<path d="M156.769 143.923C156.629 145.166 155.753 146.105 154.826 146.003C153.899 145.902 153.252 144.798 153.392 143.542C153.531 142.286 154.395 141.36 155.334 141.461C156.261 141.563 156.908 142.667 156.769 143.923Z" fill="#0E263F"/>
<path d="M144.403 142.921C144.339 144.177 143.527 145.166 142.587 145.115C141.648 145.065 140.95 144.012 141 142.756C141.064 141.487 141.864 140.51 142.803 140.561C143.755 140.599 144.466 141.652 144.403 142.921Z" fill="#0E263F"/>
<path d="M152.439 150.584C152.122 150.736 150.433 151.332 149.9 151.231C149.354 151.142 147.069 150.228 146.942 149.949C146.802 149.683 153.023 150.292 152.439 150.584Z" fill="#E88379"/>
<path d="M144.504 138.328C143.578 137.96 142.625 137.731 141.711 137.782C141.242 137.82 140.785 137.922 140.327 138.099C139.87 138.264 139.426 138.518 138.956 138.772L138.931 138.785C138.766 138.873 138.55 138.81 138.461 138.645C138.398 138.518 138.41 138.366 138.499 138.252C138.88 137.808 139.312 137.402 139.845 137.11C140.353 136.78 140.975 136.628 141.597 136.539C142.219 136.45 142.867 136.539 143.438 136.755C144.022 136.983 144.53 137.3 144.936 137.795C145.063 137.947 145.038 138.163 144.885 138.277C144.784 138.366 144.657 138.379 144.543 138.328H144.504Z" fill="#0E263F"/>
<path d="M152.935 137.985C153.265 137.757 153.468 137.731 153.722 137.655C153.963 137.592 154.191 137.579 154.433 137.567C154.915 137.541 155.398 137.63 155.867 137.77C156.35 137.909 156.781 138.201 157.162 138.556C157.505 138.949 157.759 139.406 157.835 139.901C157.873 140.129 157.721 140.345 157.492 140.383C157.34 140.408 157.188 140.345 157.099 140.231L157.061 140.193C156.819 139.901 156.604 139.635 156.337 139.444C156.083 139.229 155.766 139.102 155.448 138.962C155.118 138.823 154.763 138.772 154.395 138.708C154.204 138.683 154.026 138.67 153.836 138.67C153.671 138.645 153.43 138.696 153.392 138.658L152.922 138.277C152.846 138.214 152.833 138.099 152.896 138.023C152.909 137.998 152.922 137.985 152.935 137.985Z" fill="#0E263F"/>
<path d="M152.147 154.656C151.932 154.149 144.543 153.882 144.022 154.136C143.501 154.39 146.269 156.991 147.932 157.117C149.215 157.206 152.414 155.265 152.147 154.656Z" fill="white"/>
<path d="M159.943 133.443C159.308 133.672 158.559 133.532 156.743 133.481C156.235 133.469 156.286 129.218 155.715 129.18C155.423 129.168 154.521 133.38 154.217 133.354C153.823 133.329 153.849 131.553 153.442 131.527C152.96 131.489 152.287 132.606 151.779 132.555C147.526 132.098 141.407 131.375 139.528 129.942C139.236 129.726 139.54 123.458 139.223 123.332C138.614 123.103 137.382 130.436 136.925 130.157C135.681 129.371 133.967 130.83 133.624 136.019C133.332 140.586 132.888 144.1 132.888 144.1L131.44 144.024C131.44 144.024 130.323 137.186 127.72 137.148C124.712 137.097 125.004 141.182 125.004 141.182L126.971 145.521C126.971 145.521 123.874 140.789 122.807 134.737C121.208 125.641 120.992 117.483 132.151 113.753C137.28 112.027 144.593 111.774 150.738 114.235C155.499 116.138 158.038 118.447 159.79 122.811C161.58 127.214 159.943 133.443 159.943 133.443Z" fill="#0E263F"/>
<path d="M124.115 143.022C124.712 146.042 127.314 149.81 129.511 148.49C131.275 147.424 129.828 138.302 127.378 137.96C124.737 137.592 123.518 139.99 124.115 143.022Z" fill="#E88379"/>
<path d="M650.029 2.48668C601.289 2.48668 561.78 41.969 561.78 90.6749C561.78 139.381 601.289 178.863 650.029 178.863C698.768 178.863 738.278 139.381 738.278 90.6749C738.278 41.9817 698.768 2.48668 650.029 2.48668ZM650.029 164.146C609.427 164.146 576.507 131.248 576.507 90.6749C576.507 50.1015 609.427 17.2037 650.029 17.2037C690.63 17.2037 723.551 50.1015 723.551 90.6749C723.551 131.261 690.63 164.146 650.029 164.146Z" fill="#E88379"/>
<path d="M650.029 176.376C698.767 176.376 738.278 136.893 738.278 88.1882C738.278 39.4832 698.767 0 650.029 0C601.29 0 561.78 39.4832 561.78 88.1882C561.78 136.893 601.29 176.376 650.029 176.376Z" fill="#FFAF99"/>
<g opacity="0.4">
<path opacity="0.4" d="M723.551 88.1882C723.551 128.762 690.63 161.659 650.029 161.659C609.427 161.659 576.507 128.762 576.507 88.1882C576.507 47.6148 609.427 14.7171 650.029 14.7171C690.63 14.7171 723.551 47.6148 723.551 88.1882Z" fill="#C1C1C1"/>
</g>
<path d="M723.551 91.4234C723.551 131.997 690.63 164.895 650.029 164.895C609.427 164.895 576.507 131.997 576.507 91.4234C576.507 50.85 609.427 17.9523 650.029 17.9523C690.63 17.9523 723.551 50.85 723.551 91.4234Z" fill="#EDEDED"/>
<path d="M650.029 36.8815C649.089 36.8815 648.328 36.1203 648.328 35.1687V21.1621C648.328 20.2233 649.089 19.4494 650.029 19.4494C650.968 19.4494 651.73 20.2106 651.73 21.1621V35.1687C651.73 36.1203 650.968 36.8815 650.029 36.8815Z" fill="#E88379"/>
<path d="M650.029 159.084C649.089 159.084 648.328 158.323 648.328 157.371V143.365C648.328 142.426 649.089 141.652 650.029 141.652C650.968 141.652 651.73 142.413 651.73 143.365V157.371C651.73 158.323 650.968 159.084 650.029 159.084Z" fill="#E88379"/>
<path d="M616.924 29.7429L614.956 30.8784L621.964 43.0081L623.932 41.8726L616.924 29.7429Z" fill="#E88379"/>
<path d="M678.051 135.536L676.083 136.671L683.091 148.801L685.059 147.666L678.051 135.536Z" fill="#E88379"/>
<path d="M591.579 54.2291L590.442 56.1958L602.58 63.2005L603.717 61.2338L591.579 54.2291Z" fill="#E88379"/>
<path d="M697.468 115.353L696.331 117.319L708.47 124.323L709.606 122.356L697.468 115.353Z" fill="#E88379"/>
<path d="M595.894 90.9794H581.877C580.938 90.9794 580.176 90.2182 580.176 89.2666C580.176 88.3151 580.938 87.5539 581.877 87.5539H595.894C596.833 87.5539 597.595 88.3151 597.595 89.2666C597.608 90.2182 596.833 90.9794 595.894 90.9794Z" fill="#E88379"/>
<path d="M718.18 90.9794H704.164C703.224 90.9794 702.463 90.2182 702.463 89.2666C702.463 88.3278 703.224 87.5539 704.164 87.5539H718.18C719.12 87.5539 719.881 88.3151 719.881 89.2666C719.881 90.2182 719.12 90.9794 718.18 90.9794Z" fill="#E88379"/>
<path d="M602.607 115.333L590.467 122.334L591.602 124.301L603.743 117.3L602.607 115.333Z" fill="#E88379"/>
<path d="M708.463 54.2366L696.326 61.2426L697.463 63.2091L709.599 56.203L708.463 54.2366Z" fill="#E88379"/>
<path d="M621.975 135.546L614.961 147.673L616.929 148.81L623.943 136.683L621.975 135.546Z" fill="#E88379"/>
<path d="M683.129 29.69L676.124 41.8225L678.092 42.9575L685.098 30.825L683.129 29.69Z" fill="#E88379"/>
<path d="M650.029 89.9898C649.927 89.9898 649.813 89.9771 649.711 89.9391C649.115 89.7614 648.759 89.1271 648.937 88.5308L661.938 44.4684C662.115 43.8721 662.75 43.5169 663.359 43.6945C663.956 43.8721 664.312 44.5064 664.134 45.1027L651.133 89.1651C650.968 89.6726 650.524 89.9898 650.029 89.9898Z" fill="#0E263F"/>
<path d="M672.335 105.747C671.904 105.747 671.472 105.62 671.091 105.379L648.785 90.7637C647.731 90.0786 647.439 88.6577 648.124 87.6173C648.81 86.5643 650.232 86.2725 651.273 86.9576L673.58 101.573C674.633 102.258 674.925 103.679 674.24 104.72C673.795 105.379 673.072 105.747 672.335 105.747Z" fill="#0E263F"/>
<path d="M656.935 88.1882C656.935 92.0071 653.838 95.1027 650.016 95.1027C646.195 95.1027 643.097 92.0071 643.097 88.1882C643.097 84.3694 646.195 81.2737 650.016 81.2737C653.838 81.2737 656.935 84.3821 656.935 88.1882Z" fill="#0E263F"/>
<path d="M650.029 0C601.289 0 561.78 39.4824 561.78 88.1882C561.78 136.894 601.289 176.376 650.029 176.376C698.768 176.376 738.278 136.894 738.278 88.1882C738.278 39.4824 698.768 0 650.029 0ZM650.029 161.659C609.427 161.659 576.507 128.762 576.507 88.1882C576.507 47.6148 609.427 14.7171 650.029 14.7171C690.63 14.7171 723.551 47.6148 723.551 88.1882C723.551 128.762 690.63 161.659 650.029 161.659Z" fill="#FFAF99"/>
<g opacity="0.4">
<path opacity="0.4" d="M709.141 97.9066C709.141 127.277 682.683 151.091 650.029 151.091C617.388 151.091 590.917 127.277 590.917 97.9066C590.917 87.8837 709.141 87.8837 709.141 97.9066Z" fill="white"/>
</g>
<path d="M653.367 469.183C661.187 465.389 670.633 457.904 678.873 451.877C696 439.343 712.009 424.511 726.013 408.551C736.055 397.107 745.666 381.806 748.472 366.569C749.817 359.249 749.868 347.754 743.673 342.375C728.59 329.282 701.256 360.403 693.968 370.769C674.188 398.871 659.55 435.08 653.367 469.183Z" fill="#6CA4F4"/>
<path d="M721.037 344.227L721.608 343.72C721.684 343.821 729.898 353.26 731.562 363.512C738.938 350.761 743.204 342.438 743.331 342.172L743.991 342.527C743.877 342.781 739.636 351.04 732.323 363.677C742.036 358.107 748.879 358.107 749.184 358.107V358.855C749.095 358.855 741.68 358.843 731.574 364.983C726.407 373.877 719.805 384.788 712.086 396.549C728.857 384.953 743.191 381.794 743.343 381.756L743.496 382.492C743.343 382.517 728.299 385.841 711.007 398.211L710.969 398.249C705.078 407.168 698.552 416.544 691.57 425.869C710.118 414.768 721.456 413.08 721.57 413.08L721.672 413.829C721.557 413.841 709.725 415.592 690.364 427.48H690.351C684.879 434.712 679.128 441.893 673.148 448.807C687.888 440.167 695.505 438.188 695.582 438.175L695.772 438.899C695.683 438.924 687.494 441.017 671.574 450.609C665.772 457.231 659.767 463.575 653.622 469.436L653.101 468.916C659.233 463.055 665.238 456.699 671.04 450.076C674.824 438.023 667.029 421.187 666.952 421.022L667.625 420.718C667.701 420.883 675.002 436.615 672.17 448.794C678.302 441.728 684.206 434.369 689.805 426.947C692.357 409.236 679.877 393.783 679.737 393.631L680.321 393.161C680.448 393.326 692.535 408.259 690.706 425.755C697.829 416.265 704.456 406.737 710.448 397.665C712.924 385.118 698.095 365.618 697.943 365.427L698.54 364.971C699.136 365.745 712.556 383.392 711.413 396.219C719.158 384.407 725.785 373.458 730.952 364.552C729.695 354.187 721.126 344.316 721.037 344.227Z" fill="#9B9B9B"/>
<path opacity="0.5" d="M703.453 359.274C703.453 359.274 710.715 351.218 716.441 347.336C716.441 347.336 703.174 420.02 660.795 460.162L659.69 456.026L675.027 395.8L703.453 359.274Z" fill="#C1C1C1"/>
<path d="M652.682 470.692C652.911 464.856 663.042 451.573 666.229 445.458C676.703 425.374 686.225 405.392 694.617 384.293C708.1 350.38 719.97 305.544 711.477 269.056C708.341 255.582 698.743 233.672 681.527 235.904C668.666 237.579 661.214 253.337 657.113 264.146C646.322 292.54 644.557 323.649 643.567 353.704C642.437 388.239 644.557 423.116 646.423 457.726L652.682 470.692Z" fill="#FFAF99"/>
<path d="M660.414 422.075C655.12 392.235 642.729 374.296 642.589 374.131L643.516 373.496C643.63 373.674 655.463 390.802 661.036 419.386C664.045 406.305 666.686 393.758 669.022 381.806C657.938 342.108 644.468 329.777 644.328 329.662L645.065 328.825C645.611 329.32 658.433 341.03 669.492 379.383C672.526 363.588 675.002 348.833 677.046 335.257C668.489 298.668 651.324 282.606 651.159 282.454L651.908 281.642C652.073 281.807 668.641 297.285 677.477 332.365C679.94 315.516 681.692 300.545 682.936 287.719C679.534 258.97 665.86 247.082 665.721 246.968L666.445 246.118C666.584 246.232 679.115 257.092 683.394 282.986C686.123 253.273 686.047 236.336 686.047 235.943L687.151 235.93C687.164 236.349 687.24 254.402 684.219 285.981C687.786 281.045 698.895 266.595 709.623 262.598L710.017 263.626C697.74 268.193 684.409 287.617 683.99 288.214C682.746 300.964 680.981 315.833 678.544 332.555C682.022 326.909 692.306 313.207 713.787 305.519L714.156 306.572C687.228 316.201 678.201 335.372 678.112 335.575L678.074 335.663C676.068 349.061 673.63 363.6 670.634 379.168C674.049 374.41 683.584 363.689 703.872 356.787L704.227 357.828C678.137 366.709 670.164 381.895 670.088 382.06L670.076 382.086C667.905 393.225 665.454 404.884 662.699 417.001C665.607 413.156 672.221 407.447 687.228 400.875L687.659 401.89C667.562 410.682 662.928 417.851 661.849 420.705C658.675 434.483 655.082 448.845 651.057 463.727L649.991 463.435C653.863 449.175 657.316 435.359 660.414 422.075Z" fill="#E88379"/>
<path d="M651.273 469.081C645.192 467.292 637.498 463.029 630.833 459.68C616.994 452.702 603.689 443.948 591.691 434.128C583.083 427.087 574.336 417.229 570.476 406.584C568.636 401.472 567.214 393.212 571.022 388.594C580.316 377.353 603.727 396.485 610.215 403.083C627.836 420.946 642.729 445.267 651.273 469.081Z" fill="#FFA71A"/>
<path d="M587.552 387.224L587.083 386.932C587.045 387.008 582.258 394.798 582.284 402.372C575.441 394.075 571.378 388.594 571.251 388.416L570.807 388.746C570.921 388.911 574.971 394.354 581.75 402.575C574.095 399.733 569.156 400.545 568.94 400.583L569.029 401.116C569.093 401.104 574.438 400.215 582.449 403.425C587.235 409.211 593.304 416.277 600.274 423.826C586.803 417.483 576.101 416.924 575.986 416.912L575.961 417.457C576.075 417.457 587.298 418.054 601.239 424.892L601.277 424.905C606.596 430.627 612.411 436.589 618.568 442.476C603.879 436.704 595.513 436.856 595.424 436.856L595.437 437.401C595.525 437.389 604.247 437.236 619.622 443.479H619.635C624.447 448.033 629.449 452.512 634.578 456.775C622.936 452.322 617.21 451.814 617.146 451.814L617.096 452.36C617.159 452.36 623.317 452.892 635.924 457.891C640.9 461.964 645.979 465.821 651.108 469.297L651.425 468.853C646.296 465.364 641.218 461.52 636.241 457.447C632.064 449.213 635.67 436.171 635.695 436.044L635.175 435.904C635.137 436.031 631.772 448.224 635.263 456.661C630.007 452.309 624.866 447.716 619.94 443.047C615.978 430.601 623.114 417.977 623.19 417.851L622.72 417.584C622.644 417.711 615.737 429.916 619.152 442.299C612.881 436.323 606.977 430.246 601.569 424.435C598.28 415.694 606.609 399.886 606.698 399.721L606.215 399.467C605.885 400.101 598.331 414.412 600.693 423.509C593.697 415.935 587.616 408.843 582.817 403.057C582.499 395.42 587.489 387.3 587.552 387.224Z" fill="#9B9B9B"/>
<path opacity="0.5" d="M602.013 395.953C602.013 395.953 595.817 391.017 591.234 388.911C591.234 388.911 609.516 439.66 644.849 463.486L645.141 460.378L626.872 418.853L602.013 395.953Z" fill="#C1C1C1"/>
<path d="M651.946 470.096C651.083 465.922 642.183 457.561 639.174 453.552C629.22 440.345 619.965 427.1 611.395 412.915C597.608 390.104 583.68 359.249 585.419 331.959C586.054 321.872 590.345 304.948 603.003 304.504C612.462 304.161 619.724 314.615 623.964 321.911C635.136 341.055 640.151 363.245 644.468 384.775C649.432 409.502 652.086 434.877 654.891 460.023L651.946 470.096Z" fill="#6CA4F4"/>
<path d="M640.545 436.019C640.773 413.892 647.553 399.505 647.617 399.353L646.88 398.998C646.817 399.137 640.355 412.89 639.771 434.154C636.038 425.095 632.623 416.379 629.512 408.043C632.724 378.127 640.951 367.635 641.027 367.533L640.393 367.026C640.05 367.445 632.229 377.417 628.865 406.369C624.789 395.356 621.235 385.029 618.137 375.501C619.914 348.122 630.337 334.509 630.439 334.382L629.804 333.887C629.703 334.014 619.635 347.158 617.477 373.471C613.68 361.634 610.621 351.066 608.183 341.982C607.18 320.883 615.598 310.67 615.686 310.581L615.064 310.048C614.975 310.15 607.256 319.475 607.294 338.632C601.759 317.559 599.779 305.354 599.74 305.075L598.941 305.202C598.991 305.506 601.099 318.51 607.053 340.89C603.892 337.769 594.154 328.698 585.94 327.1L585.775 327.886C595.157 329.7 607.091 342.096 607.46 342.476C609.897 351.51 612.931 362.002 616.702 373.75C613.528 370.096 604.476 361.469 588.086 358.5L587.946 359.312C608.501 363.017 617.286 375.742 617.375 375.869L617.413 375.92C620.473 385.333 623.977 395.509 627.989 406.356C624.967 403.349 616.804 396.765 601.378 394.227L601.251 395.026C621.095 398.3 628.674 408.285 628.738 408.386L628.75 408.399C631.658 416.163 634.806 424.258 638.247 432.656C635.682 430.233 630.249 426.909 618.645 423.991L618.454 424.778C633.981 428.698 638.184 433.304 639.301 435.232C643.249 444.773 647.553 454.681 652.238 464.907L652.974 464.577C648.505 454.745 644.366 445.204 640.545 436.019Z" fill="#9B9B9B"/>
<path d="M701.282 472.748C701.282 474.143 700.139 475.285 698.743 475.285H607.993C606.596 475.285 605.454 474.143 605.454 472.748V465.605C605.454 464.209 606.596 463.068 607.993 463.068H698.743C700.139 463.068 701.282 464.209 701.282 465.605V472.748Z" fill="#0E263F"/>
<path opacity="0.3" d="M571.429 475.171C571.441 480.309 608.818 484.534 654.917 484.61C701.015 484.674 738.379 480.563 738.367 475.412C738.354 470.261 700.977 466.036 654.879 465.973C608.78 465.909 571.416 470.02 571.429 475.171Z" fill="#C1C1C1"/>
</svg>
