<svg id="Layer_1" data-name="Layer 1" xmlns="http://www.w3.org/2000/svg" xmlns:xlink="http://www.w3.org/1999/xlink" viewBox="0 0 1485.98 902.01"><defs><clipPath id="clip-path" transform="translate(-220.99 -115.99)"><rect x="344" y="382" width="1304" height="636" fill="none"/></clipPath><clipPath id="clip-path-2" transform="translate(-220.99 -115.99)"><rect x="221" y="116" width="1486" height="622" fill="none"/></clipPath></defs><title>members</title><g clip-path="url(#clip-path)"><g opacity="0.88"><path d="M365.88,1018H1581.09c-38.47-8.59-72.74-6.67-110.66-8.1-93.39-3.51-189.87-3-283.29-5.5-118.43-3.14-236.89-5.45-355.36-6.27C677.17,997.05,518.55,989.1,365.88,1018Z" transform="translate(-220.99 -115.99)" fill="#ab97ff"/><g opacity="0.45"><path d="M1576.57,610.91l-2-1.5c.84-1.08,1.67-2.17,2.48-3.26l2,1.45C1578.25,608.72,1577.41,609.81,1576.57,610.91Z" transform="translate(-220.99 -115.99)" fill="#3d3c3b" fill-rule="evenodd"/><path d="M1571.91,616.7l-1.88-1.56q1.31-1.57,2.58-3.18l1.93,1.53C1573.67,614.57,1572.8,615.64,1571.91,616.7Z" transform="translate(-220.99 -115.99)" fill="#3d3c3b" fill-rule="evenodd"/><path d="M1567,622.3l-1.82-1.65c.92-1,1.82-2,2.71-3.06l1.86,1.6C1568.89,620.24,1568,621.27,1567,622.3Z" transform="translate(-220.99 -115.99)" fill="#3d3c3b" fill-rule="evenodd"/><path d="M1589.27,592.56l-2.09-1.28,1.07-1.74,1-1.77,2.12,1.24-1.05,1.78Z" transform="translate(-220.99 -115.99)" fill="#3d3c3b" fill-rule="evenodd"/><path d="M1585.26,598.82l-2-1.35c.38-.57.75-1.14,1.12-1.71l1.12-1.73,2.07,1.32c-.37.59-.75,1.16-1.12,1.74S1585.65,598.25,1585.26,598.82Z" transform="translate(-220.99 -115.99)" fill="#3d3c3b" fill-rule="evenodd"/><path d="M1581,604.91l-2-1.43c.79-1.11,1.58-2.22,2.35-3.35l2,1.39C1582.65,602.66,1581.85,603.78,1581,604.91Z" transform="translate(-220.99 -115.99)" fill="#3d3c3b" fill-rule="evenodd"/><path d="M1599.8,572.87l-2.24-1,.83-1.86.8-1.88,2.26.94-.81,1.92Z" transform="translate(-220.99 -115.99)" fill="#3d3c3b" fill-rule="evenodd"/><path d="M1596.58,579.58l-2.2-1.11c.6-1.22,1.24-2.43,1.81-3.66l2.21,1.05C1597.82,577.11,1597.18,578.34,1596.58,579.58Z" transform="translate(-220.99 -115.99)" fill="#3d3c3b" fill-rule="evenodd"/><path d="M1593.07,586.11l-2.14-1.2c.34-.58.66-1.19,1-1.78l1-1.8,2.17,1.14-1,1.83C1593.75,584.91,1593.42,585.51,1593.07,586.11Z" transform="translate(-220.99 -115.99)" fill="#3d3c3b" fill-rule="evenodd"/><path d="M1607.39,551.87l-2.37-.63.49-2c.16-.66.34-1.31.48-2l2.39.54c-.14.68-.32,1.35-.49,2Z" transform="translate(-220.99 -115.99)" fill="#3d3c3b" fill-rule="evenodd"/><path d="M1605.25,559l-2.34-.77c.23-.64.43-1.29.63-1.93l.6-1.95,2.36.69-.62,2C1605.68,557.68,1605.48,558.35,1605.25,559Z" transform="translate(-220.99 -115.99)" fill="#3d3c3b" fill-rule="evenodd"/><path d="M1602.72,566l-2.29-.89c.52-1.26,1-2.54,1.44-3.82l2.32.83C1603.7,563.39,1603.24,564.69,1602.72,566Z" transform="translate(-220.99 -115.99)" fill="#3d3c3b" fill-rule="evenodd"/><path d="M1610.83,529.78l-2.45-.1.07-2v-2l2.45,0v2.09Z" transform="translate(-220.99 -115.99)" fill="#3d3c3b" fill-rule="evenodd"/><path d="M1610.23,537.22l-2.43-.3.22-2c.09-.67.11-1.35.17-2l2.45.18c-.06.7-.09,1.39-.17,2.08Z" transform="translate(-220.99 -115.99)" fill="#3d3c3b" fill-rule="evenodd"/><path d="M1609.08,544.56l-2.41-.47.36-2c.06-.34.13-.67.18-1l.15-1,2.43.37-.16,1c-.05.34-.12.68-.18,1Z" transform="translate(-220.99 -115.99)" fill="#3d3c3b" fill-rule="evenodd"/><path d="M1608.7,507.5l-2.39.57-.23-1-.27-1-.55-1.94,2.35-.71.57,2,.28,1Z" transform="translate(-220.99 -115.99)" fill="#3d3c3b" fill-rule="evenodd"/><path d="M1610.1,514.84l-2.43.34c-.16-1.34-.44-2.65-.67-4l2.41-.47C1609.65,512.1,1609.94,513.46,1610.1,514.84Z" transform="translate(-220.99 -115.99)" fill="#3d3c3b" fill-rule="evenodd"/><path d="M1610.8,522.25l-2.45.12,0-1,0-.5,0-.5-.18-2,2.44-.24.19,2.08,0,.52,0,.52Z" transform="translate(-220.99 -115.99)" fill="#3d3c3b" fill-rule="evenodd"/><path d="M1600.3,486.74l-2.12,1.24-.51-.88c-.17-.29-.33-.58-.52-.87l-1.1-1.69,2.06-1.34,1.13,1.75c.2.29.37.6.54.9Z" transform="translate(-220.99 -115.99)" fill="#3d3c3b" fill-rule="evenodd"/><path d="M1603.76,493.37l-2.23,1-.41-.92c-.14-.31-.31-.6-.46-.9l-.92-1.8,2.17-1.14.95,1.85c.15.31.32.61.47.93Z" transform="translate(-220.99 -115.99)" fill="#3d3c3b" fill-rule="evenodd"/><path d="M1606.57,500.27l-2.32.81-.32-.95-.38-.94-.74-1.88,2.27-.94.77,1.95.38,1Z" transform="translate(-220.99 -115.99)" fill="#3d3c3b" fill-rule="evenodd"/><path d="M1586.64,469l-1.76,1.71-.69-.73-.74-.71-1.47-1.41,1.69-1.77,1.51,1.44.74.72Z" transform="translate(-220.99 -115.99)" fill="#3d3c3b" fill-rule="evenodd"/><path d="M1591.67,474.53l-1.88,1.57c-.9-1-1.77-2.05-2.68-3.05l1.81-1.65C1589.86,472.42,1590.75,473.48,1591.67,474.53Z" transform="translate(-220.99 -115.99)" fill="#3d3c3b" fill-rule="evenodd"/><path d="M1596.22,480.42l-2,1.41-1.18-1.65c-.19-.27-.4-.53-.61-.8l-.63-.8,1.94-1.5.64.81c.21.27.43.54.63.83Z" transform="translate(-220.99 -115.99)" fill="#3d3c3b" fill-rule="evenodd"/><path d="M1569.52,454.59l-1.4,2c-.55-.38-1.1-.77-1.67-1.12s-1.13-.73-1.71-1.07l1.27-2.1c.6.36,1.18.74,1.77,1.11S1568.94,454.19,1569.52,454.59Z" transform="translate(-220.99 -115.99)" fill="#3d3c3b" fill-rule="evenodd"/><path d="M1575.51,459,1574,461c-.53-.44-1.08-.84-1.62-1.25l-1.64-1.22,1.47-2,1.66,1.25C1574.42,458.18,1575,458.59,1575.51,459Z" transform="translate(-220.99 -115.99)" fill="#3d3c3b" fill-rule="evenodd"/><path d="M1581.2,463.82l-1.63,1.82L1578,464.3l-.77-.67-.79-.65,1.57-1.88.81.65.78.69Z" transform="translate(-220.99 -115.99)" fill="#3d3c3b" fill-rule="evenodd"/><path d="M1549.15,445.17l-.62,2.36-1-.25-1-.22c-.65-.14-1.31-.3-2-.41l.46-2.41c.69.11,1.37.28,2,.43l1,.23Z" transform="translate(-220.99 -115.99)" fill="#3d3c3b" fill-rule="evenodd"/><path d="M1556.29,447.49l-.9,2.28c-.63-.24-1.25-.5-1.89-.7s-1.26-.46-1.91-.65l.75-2.34c.67.21,1.33.45,2,.68S1555.64,447.24,1556.29,447.49Z" transform="translate(-220.99 -115.99)" fill="#3d3c3b" fill-rule="evenodd"/><path d="M1563.08,450.64l-1.17,2.16c-1.17-.65-2.39-1.22-3.6-1.8l1-2.23C1560.59,449.37,1561.85,450,1563.08,450.64Z" transform="translate(-220.99 -115.99)" fill="#3d3c3b" fill-rule="evenodd"/><path d="M1526.78,443.22l.16,2.44-2,.16c-.67.05-1.35.14-2,.21l-.28-2.44c.69-.07,1.38-.16,2.08-.21Z" transform="translate(-220.99 -115.99)" fill="#3d3c3b" fill-rule="evenodd"/><path d="M1534.27,443.08l-.07,2.45c-1.35,0-2.7,0-4,0l-.07-2.45C1531.48,443,1532.88,443.05,1534.27,443.08Z" transform="translate(-220.99 -115.99)" fill="#3d3c3b" fill-rule="evenodd"/><path d="M1541.73,443.7l-.34,2.42c-.67-.1-1.33-.16-2-.24l-1-.11-1-.07.19-2.44,1,.08,1,.11C1540.34,443.52,1541,443.58,1541.73,443.7Z" transform="translate(-220.99 -115.99)" fill="#3d3c3b" fill-rule="evenodd"/><path d="M1504.72,447.18l.66,2.36c-1.31.37-2.62.74-3.93,1.15l-.72-2.34C1502.05,447.93,1503.39,447.56,1504.72,447.18Z" transform="translate(-220.99 -115.99)" fill="#3d3c3b" fill-rule="evenodd"/><path d="M1512,445.38l.52,2.39c-1.32.3-2.65.6-4,.94l-.6-2.37C1509.25,446,1510.61,445.68,1512,445.38Z" transform="translate(-220.99 -115.99)" fill="#3d3c3b" fill-rule="evenodd"/><path d="M1519.28,444l.37,2.42-2,.32-2,.36-.45-2.4,2-.38Z" transform="translate(-220.99 -115.99)" fill="#3d3c3b" fill-rule="evenodd"/><path d="M1483.59,454.47l.92,2.28c-1.27.51-2.55,1-3.81,1.55l-1-2.26Z" transform="translate(-220.99 -115.99)" fill="#3d3c3b" fill-rule="evenodd"/><path d="M1490.53,451.8l.85,2.3c-1.28.46-2.56,1-3.84,1.45l-.89-2.29C1487.94,452.77,1489.23,452.27,1490.53,451.8Z" transform="translate(-220.99 -115.99)" fill="#3d3c3b" fill-rule="evenodd"/><path d="M1497.54,449.36l.77,2.32-2,.65-1.94.67-.81-2.31c.65-.24,1.31-.45,2-.68Z" transform="translate(-220.99 -115.99)" fill="#3d3c3b" fill-rule="evenodd"/><path d="M1463.15,463.38l1,2.23-3.74,1.74-1-2.22Z" transform="translate(-220.99 -115.99)" fill="#3d3c3b" fill-rule="evenodd"/><path d="M1469.9,460.31l1,2.24-3.75,1.69-1-2.22Z" transform="translate(-220.99 -115.99)" fill="#3d3c3b" fill-rule="evenodd"/><path d="M1476.68,457.34l1,2.25-3.78,1.63-1-2.24Z" transform="translate(-220.99 -115.99)" fill="#3d3c3b" fill-rule="evenodd"/><path d="M1443,472.89l1.06,2.21-3.74,1.77-1-2.21Z" transform="translate(-220.99 -115.99)" fill="#3d3c3b" fill-rule="evenodd"/><path d="M1449.7,469.71l1,2.21L1447,473.7l-1.06-2.22Z" transform="translate(-220.99 -115.99)" fill="#3d3c3b" fill-rule="evenodd"/><path d="M1456.38,466.55l1,2.21-3.74,1.77-1-2.22Z" transform="translate(-220.99 -115.99)" fill="#3d3c3b" fill-rule="evenodd"/><path d="M1422.82,482.25l1,2.23-3.79,1.68-1-2.25Z" transform="translate(-220.99 -115.99)" fill="#3d3c3b" fill-rule="evenodd"/><path d="M1429.56,479.19l1,2.22-3.76,1.72-1-2.23Z" transform="translate(-220.99 -115.99)" fill="#3d3c3b" fill-rule="evenodd"/><path d="M1436.25,476.07l1,2.22-3.75,1.75-1-2.22Z" transform="translate(-220.99 -115.99)" fill="#3d3c3b" fill-rule="evenodd"/><path d="M1402.32,490.8l.89,2.29c-1.29.51-2.59,1-3.89,1.46l-.85-2.29C1399.75,491.77,1401,491.3,1402.32,490.8Z" transform="translate(-220.99 -115.99)" fill="#3d3c3b" fill-rule="evenodd"/><path d="M1409.2,488.08l.93,2.27c-1.28.53-2.57,1-3.85,1.55l-.91-2.28C1406.65,489.12,1407.93,488.6,1409.2,488.08Z" transform="translate(-220.99 -115.99)" fill="#3d3c3b" fill-rule="evenodd"/><path d="M1416,485.24l1,2.25-3.82,1.61-1-2.26Z" transform="translate(-220.99 -115.99)" fill="#3d3c3b" fill-rule="evenodd"/><path d="M1381.3,497.87l.68,2.36c-1.35.37-2.68.75-4,1.1l-.63-2.37C1378.66,498.61,1380,498.24,1381.3,497.87Z" transform="translate(-220.99 -115.99)" fill="#3d3c3b" fill-rule="evenodd"/><path d="M1388.36,495.73l.76,2.33c-1.32.43-2.65.83-4,1.24l-.71-2.34C1385.75,496.55,1387.06,496.16,1388.36,495.73Z" transform="translate(-220.99 -115.99)" fill="#3d3c3b" fill-rule="evenodd"/><path d="M1395.34,493.38l.82,2.31c-1.31.45-2.62.92-3.93,1.35l-.78-2.32C1392.75,494.29,1394,493.83,1395.34,493.38Z" transform="translate(-220.99 -115.99)" fill="#3d3c3b" fill-rule="evenodd"/><path d="M1359.67,502.63l.37,2.42-2.07.3-2.07.27-.3-2.44c.68-.08,1.36-.16,2-.26Z" transform="translate(-220.99 -115.99)" fill="#3d3c3b" fill-rule="evenodd"/><path d="M1366.93,501.36l.48,2.4c-.67.15-1.36.26-2.05.39s-1.36.27-2,.37l-.42-2.41,2-.36C1365.59,501.62,1366.26,501.5,1366.93,501.36Z" transform="translate(-220.99 -115.99)" fill="#3d3c3b" fill-rule="evenodd"/><path d="M1374.11,499.77l.58,2.38-2,.48-2,.46-.52-2.4,2-.44Z" transform="translate(-220.99 -115.99)" fill="#3d3c3b" fill-rule="evenodd"/><path d="M1337.62,504.19l0,2.45c-1.4,0-2.8-.07-4.19-.12l.12-2.45C1334.89,504.12,1336.25,504.19,1337.62,504.19Z" transform="translate(-220.99 -115.99)" fill="#3d3c3b" fill-rule="evenodd"/><path d="M1345,504.08l.11,2.45c-1.39.05-2.78.11-4.18.11l0-2.45C1342.25,504.19,1343.61,504.13,1345,504.08Z" transform="translate(-220.99 -115.99)" fill="#3d3c3b" fill-rule="evenodd"/><path d="M1352.31,503.55l.24,2.44c-.69.08-1.39.14-2.08.19l-2.09.16-.17-2.44,2-.17C1351,503.69,1351.63,503.63,1352.31,503.55Z" transform="translate(-220.99 -115.99)" fill="#3d3c3b" fill-rule="evenodd"/><path d="M1315.68,501.81l-.5,2.4c-.69-.13-1.37-.29-2-.45l-2-.47.59-2.38,2,.47C1314.34,501.53,1315,501.68,1315.68,501.81Z" transform="translate(-220.99 -115.99)" fill="#3d3c3b" fill-rule="evenodd"/><path d="M1322.93,503.07l-.34,2.42-2.08-.3-2.06-.36.43-2.41,2,.35Z" transform="translate(-220.99 -115.99)" fill="#3d3c3b" fill-rule="evenodd"/><path d="M1330.22,503.87l-.19,2.44-2.09-.19-1-.09-1-.12.27-2.44,1,.12,1,.09Z" transform="translate(-220.99 -115.99)" fill="#3d3c3b" fill-rule="evenodd"/><path d="M1294.6,495.27l-.94,2.26c-1.3-.52-2.57-1.1-3.84-1.68l1-2.22C1292.09,494.19,1293.34,494.76,1294.6,495.27Z" transform="translate(-220.99 -115.99)" fill="#3d3c3b" fill-rule="evenodd"/><path d="M1301.48,497.9l-.81,2.31-2-.7-2-.74.89-2.29,1.91.73Z" transform="translate(-220.99 -115.99)" fill="#3d3c3b" fill-rule="evenodd"/><path d="M1308.48,500.08l-.66,2.36-2-.58-1-.3-1-.32.74-2.33,1,.31,1,.29Z" transform="translate(-220.99 -115.99)" fill="#3d3c3b" fill-rule="evenodd"/><path d="M1275,485l-1.32,2.07c-.59-.36-1.17-.75-1.75-1.13l-1.75-1.15,1.38-2,1.71,1.13C1273.88,484.3,1274.45,484.68,1275,485Z" transform="translate(-220.99 -115.99)" fill="#3d3c3b" fill-rule="evenodd"/><path d="M1281.36,488.81l-1.2,2.13c-.62-.33-1.22-.69-1.82-1l-1.81-1,1.27-2.11,1.77,1C1280.17,488.13,1280.75,488.48,1281.36,488.81Z" transform="translate(-220.99 -115.99)" fill="#3d3c3b" fill-rule="evenodd"/><path d="M1287.85,492.22l-1.08,2.2-.94-.46-.93-.48-1.86-1,1.15-2.16,1.83.94.91.47Z" transform="translate(-220.99 -115.99)" fill="#3d3c3b" fill-rule="evenodd"/><path d="M1257.23,471.91l-1.58,1.87c-1.06-.9-2.12-1.79-3.15-2.72l1.62-1.84C1255.14,470.15,1256.19,471,1257.23,471.91Z" transform="translate(-220.99 -115.99)" fill="#3d3c3b" fill-rule="evenodd"/><path d="M1263,476.55l-1.51,1.93c-.55-.43-1.11-.84-1.64-1.28l-1.62-1.31,1.56-1.9,1.59,1.29C1261.87,475.72,1262.42,476.13,1263,476.55Z" transform="translate(-220.99 -115.99)" fill="#3d3c3b" fill-rule="evenodd"/><path d="M1268.87,480.92l-1.42,2-.86-.6-.84-.62-1.68-1.23,1.47-2,1.65,1.21.83.61Z" transform="translate(-220.99 -115.99)" fill="#3d3c3b" fill-rule="evenodd"/><path d="M1241.15,456.7l-1.78,1.68c-.95-1-1.92-2-2.84-3l1.81-1.66C1239.25,454.71,1240.21,455.7,1241.15,456.7Z" transform="translate(-220.99 -115.99)" fill="#3d3c3b" fill-rule="evenodd"/><path d="M1246.32,462l-1.72,1.74c-.5-.48-1-1-1.48-1.46l-1.46-1.48,1.75-1.71,1.45,1.46C1245.34,461,1245.83,461.48,1246.32,462Z" transform="translate(-220.99 -115.99)" fill="#3d3c3b" fill-rule="evenodd"/><path d="M1251.65,467l-1.66,1.81-3-2.84,1.7-1.77C1249.64,465.15,1250.65,466.08,1251.65,467Z" transform="translate(-220.99 -115.99)" fill="#3d3c3b" fill-rule="evenodd"/><path d="M1226.59,440l-1.92,1.53c-.87-1.08-1.71-2.17-2.57-3.26l1.94-1.5C1224.89,437.85,1225.73,438.93,1226.59,440Z" transform="translate(-220.99 -115.99)" fill="#3d3c3b" fill-rule="evenodd"/><path d="M1231.28,445.69l-1.87,1.58c-.89-1.06-1.79-2.1-2.66-3.19l1.9-1.55C1229.51,443.6,1230.4,444.64,1231.28,445.69Z" transform="translate(-220.99 -115.99)" fill="#3d3c3b" fill-rule="evenodd"/><path d="M1236.11,451.24l-1.84,1.64-2.74-3.12,1.86-1.6Z" transform="translate(-220.99 -115.99)" fill="#3d3c3b" fill-rule="evenodd"/><path d="M1213.32,422.23l-2,1.4-2.35-3.42,2-1.37Z" transform="translate(-220.99 -115.99)" fill="#3d3c3b" fill-rule="evenodd"/><path d="M1217.61,428.24l-2,1.44c-.4-.56-.82-1.11-1.22-1.68l-1.2-1.69,2-1.42,1.19,1.69C1216.79,427.14,1217.21,427.69,1217.61,428.24Z" transform="translate(-220.99 -115.99)" fill="#3d3c3b" fill-rule="evenodd"/><path d="M1222,434.14l-2,1.49c-.83-1.11-1.67-2.2-2.49-3.32l2-1.45C1220.35,432,1221.18,433.05,1222,434.14Z" transform="translate(-220.99 -115.99)" fill="#3d3c3b" fill-rule="evenodd"/><path d="M1207,434.67l-7-10.45,2.53-4.42s5.31,1.6,5.39,2.08-.41,6.65-.5,7.73S1207,434.67,1207,434.67Z" transform="translate(-220.99 -115.99)" fill="#aa2e5b"/><path d="M1172.84,382.19a1,1,0,0,1,1-.08l53.59,29.81a.9.9,0,0,1,.47.91.92.92,0,0,1-.66.79l-11,3.13a2.75,2.75,0,0,0-1.85,1.71l-5.85,16a.94.94,0,0,1-.88.61.92.92,0,0,1-.87-.62L1203.13,424a.93.93,0,0,0-1.44-.41l-15.06,11.7a.91.91,0,0,1-.71.18l-.16,0a1,1,0,0,1-.6-.65l-12.66-51.58A1,1,0,0,1,1172.84,382.19Z" transform="translate(-220.99 -115.99)" fill="#ff496a"/><path d="M1173.29,382l42.07,35.23a2.75,2.75,0,0,0-.91,1.22l-5.85,16a.94.94,0,0,1-.88.61,1,1,0,0,1-.87-.62L1203.13,424l-.12-.19v0l-30.16-41.54A.92.92,0,0,1,1173.29,382Z" transform="translate(-220.99 -115.99)" fill="#cb3d66"/></g><path d="M1114.14,559.28a2,2,0,0,1-2-2V543.1a2,2,0,0,1,4,0v14.17A2,2,0,0,1,1114.14,559.28Z" transform="translate(-220.99 -115.99)" fill="#f4a0bd"/><path d="M1121.24,552.2H1107a2,2,0,1,1,0-4h14.21a2,2,0,1,1,0,4Z" transform="translate(-220.99 -115.99)" fill="#f4a0bd"/><path d="M708.64,418.64a2.81,2.81,0,0,1-4-.06l-13.84-14.16a2.79,2.79,0,0,1,0-4,2.82,2.82,0,0,1,4,.05l13.84,14.16A2.8,2.8,0,0,1,708.64,418.64Z" transform="translate(-220.99 -115.99)" fill="#ff637d" fill-opacity="0.2"/><path d="M708.83,404.65l-14.21,13.81a2.81,2.81,0,1,1-3.92-4l14.21-13.8a2.8,2.8,0,1,1,3.92,4Z" transform="translate(-220.99 -115.99)" fill="#ff637d" fill-opacity="0.2"/><path d="M398.88,895.44l-1.24-2.11.88-.51c.29-.16.58-.33.87-.52l1.7-1.1,1.34,2-1.75,1.14c-.29.19-.59.36-.89.53Z" transform="translate(-220.99 -115.99)" fill="#3d3c3b" fill-rule="evenodd"/><path d="M416.65,881.79,414.93,880l.74-.71.7-.73,1.41-1.46,1.78,1.68-1.44,1.5-.72.75Z" transform="translate(-220.99 -115.99)" fill="#3d3c3b" fill-rule="evenodd"/><path d="M411.12,886.81l-1.58-1.87c1-.9,2-1.77,3-2.67l1.66,1.8C413.22,885,412.16,885.89,411.12,886.81Z" transform="translate(-220.99 -115.99)" fill="#3d3c3b" fill-rule="evenodd"/><path d="M405.21,891.36l-1.42-2,1.65-1.18c.28-.19.54-.4.81-.61l.8-.63,1.51,1.93-.81.65c-.28.21-.55.43-.83.63Z" transform="translate(-220.99 -115.99)" fill="#3d3c3b" fill-rule="evenodd"/><path d="M431.07,864.68l-2-1.39c.38-.55.77-1.1,1.12-1.67s.73-1.13,1.07-1.71l2.1,1.27c-.35.6-.74,1.17-1.11,1.77S431.47,864.11,431.07,864.68Z" transform="translate(-220.99 -115.99)" fill="#3d3c3b" fill-rule="evenodd"/><path d="M426.62,870.67l-1.93-1.52c.44-.52.84-1.07,1.24-1.61l1.23-1.63,2,1.45L427.89,869C427.47,869.58,427.06,870.14,426.62,870.67Z" transform="translate(-220.99 -115.99)" fill="#3d3c3b" fill-rule="evenodd"/><path d="M421.83,876.35,420,874.72l1.35-1.52.67-.77.64-.79,1.89,1.57-.65.81-.69.77Z" transform="translate(-220.99 -115.99)" fill="#3d3c3b" fill-rule="evenodd"/><path d="M440.48,844.35l-2.38-.62.26-1,.21-1c.15-.65.3-1.3.41-2l2.42.45c-.12.69-.28,1.37-.43,2.05l-.23,1Z" transform="translate(-220.99 -115.99)" fill="#3d3c3b" fill-rule="evenodd"/><path d="M438.16,851.48l-2.29-.9c.24-.62.5-1.24.71-1.88s.45-1.26.64-1.9l2.34.74c-.2.67-.45,1.32-.67,2S438.41,850.82,438.16,851.48Z" transform="translate(-220.99 -115.99)" fill="#3d3c3b" fill-rule="evenodd"/><path d="M435,858.25l-2.17-1.15c.65-1.18,1.23-2.39,1.8-3.6l2.23,1C436.28,855.77,435.68,857,435,858.25Z" transform="translate(-220.99 -115.99)" fill="#3d3c3b" fill-rule="evenodd"/><path d="M442.39,822l-2.45.16-.17-2c0-.67-.14-1.35-.21-2l2.44-.29c.07.7.16,1.38.22,2.08Z" transform="translate(-220.99 -115.99)" fill="#3d3c3b" fill-rule="evenodd"/><path d="M442.54,829.51l-2.45-.07c0-1.34,0-2.69,0-4l2.46-.06C442.59,826.73,442.57,828.12,442.54,829.51Z" transform="translate(-220.99 -115.99)" fill="#3d3c3b" fill-rule="evenodd"/><path d="M441.94,836.94l-2.43-.33c.1-.66.16-1.33.23-2,0-.34.08-.67.11-1l.07-1,2.45.18-.08,1.05c0,.34-.07.69-.11,1C442.11,835.57,442.05,836.26,441.94,836.94Z" transform="translate(-220.99 -115.99)" fill="#3d3c3b" fill-rule="evenodd"/><path d="M438.38,800l-2.36.67c-.38-1.31-.75-2.62-1.16-3.92l2.34-.72C437.62,797.39,438,798.72,438.38,800Z" transform="translate(-220.99 -115.99)" fill="#3d3c3b" fill-rule="evenodd"/><path d="M440.2,807.26l-2.4.53c-.31-1.32-.6-2.64-.95-4l2.38-.61C439.58,804.56,439.89,805.91,440.2,807.26Z" transform="translate(-220.99 -115.99)" fill="#3d3c3b" fill-rule="evenodd"/><path d="M441.56,814.57l-2.43.36-.32-2c-.11-.67-.25-1.33-.37-2l2.41-.46c.13.69.27,1.36.38,2Z" transform="translate(-220.99 -115.99)" fill="#3d3c3b" fill-rule="evenodd"/><path d="M431,779l-2.28.92c-.52-1.26-1-2.53-1.57-3.79l2.26-1C430,776.43,430.51,777.71,431,779Z" transform="translate(-220.99 -115.99)" fill="#3d3c3b" fill-rule="evenodd"/><path d="M433.72,785.9l-2.3.85c-.47-1.28-1-2.55-1.46-3.83l2.29-.89C432.74,783.32,433.24,784.61,433.72,785.9Z" transform="translate(-220.99 -115.99)" fill="#3d3c3b" fill-rule="evenodd"/><path d="M436.18,792.88l-2.33.77c-.21-.65-.44-1.29-.66-1.93s-.43-1.29-.67-1.94l2.31-.81c.24.65.46,1.3.69,2S436,792.23,436.18,792.88Z" transform="translate(-220.99 -115.99)" fill="#3d3c3b" fill-rule="evenodd"/><path d="M422.05,758.61l-2.23,1-1.74-3.73,2.22-1Z" transform="translate(-220.99 -115.99)" fill="#3d3c3b" fill-rule="evenodd"/><path d="M425.15,765.34l-2.24,1-1.71-3.73,2.23-1Z" transform="translate(-220.99 -115.99)" fill="#3d3c3b" fill-rule="evenodd"/><path d="M428.14,772.1l-2.25,1c-.54-1.26-1.1-2.51-1.66-3.77l2.25-1C427,769.57,427.6,770.83,428.14,772.1Z" transform="translate(-220.99 -115.99)" fill="#3d3c3b" fill-rule="evenodd"/><path d="M412.49,738.54l-2.22,1.05-1.78-3.72,2.22-1Z" transform="translate(-220.99 -115.99)" fill="#3d3c3b" fill-rule="evenodd"/><path d="M415.69,745.21l-2.21,1.06-1.79-3.73,2.21-1Z" transform="translate(-220.99 -115.99)" fill="#3d3c3b" fill-rule="evenodd"/><path d="M418.87,751.87l-2.22,1-1.77-3.72,2.21-1.05Z" transform="translate(-220.99 -115.99)" fill="#3d3c3b" fill-rule="evenodd"/><path d="M403.07,718.43l-2.24,1-1.69-3.78,2.25-1Z" transform="translate(-220.99 -115.99)" fill="#3d3c3b" fill-rule="evenodd"/><path d="M406.15,725.15l-2.23,1-1.73-3.76,2.23-1Z" transform="translate(-220.99 -115.99)" fill="#3d3c3b" fill-rule="evenodd"/><path d="M409.28,731.81l-2.22,1.05-1.76-3.73,2.22-1Z" transform="translate(-220.99 -115.99)" fill="#3d3c3b" fill-rule="evenodd"/><path d="M394.45,698l-2.29.89c-.5-1.29-1-2.59-1.47-3.88l2.31-.85C393.48,695.44,394,696.72,394.45,698Z" transform="translate(-220.99 -115.99)" fill="#3d3c3b" fill-rule="evenodd"/><path d="M397.19,704.85l-2.27.93c-.52-1.27-1-2.56-1.55-3.84l2.28-.91C396.15,702.32,396.67,703.59,397.19,704.85Z" transform="translate(-220.99 -115.99)" fill="#3d3c3b" fill-rule="evenodd"/><path d="M400.06,711.63l-2.26,1c-.54-1.27-1.09-2.53-1.62-3.81l2.26-.95C399,709.11,399.52,710.37,400.06,711.63Z" transform="translate(-220.99 -115.99)" fill="#3d3c3b" fill-rule="evenodd"/><path d="M387.33,677.05l-2.36.67c-.37-1.33-.76-2.66-1.11-4l2.38-.63C386.58,674.41,387,675.73,387.33,677.05Z" transform="translate(-220.99 -115.99)" fill="#3d3c3b" fill-rule="evenodd"/><path d="M389.49,684.09l-2.34.75c-.43-1.31-.83-2.64-1.25-4l2.35-.71C388.66,681.48,389.06,682.79,389.49,684.09Z" transform="translate(-220.99 -115.99)" fill="#3d3c3b" fill-rule="evenodd"/><path d="M391.86,691l-2.31.82c-.46-1.3-.93-2.6-1.37-3.92l2.33-.78C390.94,688.46,391.41,689.75,391.86,691Z" transform="translate(-220.99 -115.99)" fill="#3d3c3b" fill-rule="evenodd"/><path d="M382.51,655.49l-2.42.37-.31-2.06c-.1-.69-.18-1.38-.27-2.07l2.44-.3c.09.67.17,1.35.26,2Z" transform="translate(-220.99 -115.99)" fill="#3d3c3b" fill-rule="evenodd"/><path d="M383.8,662.72l-2.41.49c-.14-.68-.26-1.36-.39-2.05s-.27-1.35-.38-2l2.42-.43c.11.68.25,1.35.37,2S383.66,662.05,383.8,662.72Z" transform="translate(-220.99 -115.99)" fill="#3d3c3b" fill-rule="evenodd"/><path d="M385.41,669.88l-2.38.59-.49-2-.46-2,2.4-.52.45,2Z" transform="translate(-220.99 -115.99)" fill="#3d3c3b" fill-rule="evenodd"/><path d="M380.91,633.5l-2.46,0c0-1.4.07-2.79.12-4.18l2.46.11C381,630.77,380.91,632.13,380.91,633.5Z" transform="translate(-220.99 -115.99)" fill="#3d3c3b" fill-rule="evenodd"/><path d="M381,640.84l-2.45.11c-.05-1.38-.12-2.77-.12-4.17l2.46,0C380.92,638.11,381,639.48,381,640.84Z" transform="translate(-220.99 -115.99)" fill="#3d3c3b" fill-rule="evenodd"/><path d="M381.58,648.14l-2.45.25c-.08-.69-.14-1.39-.19-2.08l-.17-2.08,2.45-.17.17,2C381.44,646.78,381.5,647.46,381.58,648.14Z" transform="translate(-220.99 -115.99)" fill="#3d3c3b" fill-rule="evenodd"/><path d="M383.26,611.61l-2.41-.5c.13-.68.29-1.35.45-2l.47-2,2.38.58-.46,2C383.54,610.27,383.39,610.94,383.26,611.61Z" transform="translate(-220.99 -115.99)" fill="#3d3c3b" fill-rule="evenodd"/><path d="M382,618.84l-2.43-.34.3-2.07.35-2.06,2.42.43-.34,2Z" transform="translate(-220.99 -115.99)" fill="#3d3c3b" fill-rule="evenodd"/><path d="M381.23,626.11l-2.45-.18.18-2.08.09-1.05.12-1,2.44.27-.12,1-.09,1Z" transform="translate(-220.99 -115.99)" fill="#3d3c3b" fill-rule="evenodd"/><path d="M389.78,590.58l-2.27-.94c.52-1.29,1.1-2.56,1.67-3.83l2.24,1C390.86,588.07,390.29,589.31,389.78,590.58Z" transform="translate(-220.99 -115.99)" fill="#3d3c3b" fill-rule="evenodd"/><path d="M387.16,597.44l-2.32-.8.69-2,.75-1.95,2.29.88-.73,1.91Z" transform="translate(-220.99 -115.99)" fill="#3d3c3b" fill-rule="evenodd"/><path d="M385,604.42l-2.37-.65.58-2,.29-1,.32-1,2.34.73-.31,1-.29,1Z" transform="translate(-220.99 -115.99)" fill="#3d3c3b" fill-rule="evenodd"/><path d="M400,571l-2.08-1.31c.36-.6.75-1.17,1.13-1.75l1.15-1.74,2,1.36-1.13,1.71C400.74,569.89,400.36,570.45,400,571Z" transform="translate(-220.99 -115.99)" fill="#3d3c3b" fill-rule="evenodd"/><path d="M396.24,577.35l-2.15-1.2c.33-.61.69-1.21,1-1.81l1.05-1.8,2.11,1.26-1,1.77C396.91,576.16,396.56,576.75,396.24,577.35Z" transform="translate(-220.99 -115.99)" fill="#3d3c3b" fill-rule="evenodd"/><path d="M392.83,583.84l-2.21-1.08.46-.94.47-.92,1-1.86,2.17,1.15-.95,1.82-.47.9Z" transform="translate(-220.99 -115.99)" fill="#3d3c3b" fill-rule="evenodd"/><path d="M413.13,553.26l-1.87-1.57c.89-1.06,1.78-2.12,2.72-3.15l1.84,1.62C414.9,551.17,414,552.22,413.13,553.26Z" transform="translate(-220.99 -115.99)" fill="#3d3c3b" fill-rule="evenodd"/><path d="M408.49,559l-1.94-1.5c.43-.55.84-1.11,1.28-1.65l1.31-1.61,1.91,1.54-1.29,1.59C409.32,557.89,408.92,558.45,408.49,559Z" transform="translate(-220.99 -115.99)" fill="#3d3c3b" fill-rule="evenodd"/><path d="M404.13,564.88l-2-1.41.59-.86.62-.84,1.23-1.67,2,1.46-1.22,1.65-.61.83Z" transform="translate(-220.99 -115.99)" fill="#3d3c3b" fill-rule="evenodd"/><path d="M428.36,537.2l-1.7-1.77c1-.95,2-1.92,3-2.84l1.67,1.8C430.34,535.3,429.36,536.26,428.36,537.2Z" transform="translate(-220.99 -115.99)" fill="#3d3c3b" fill-rule="evenodd"/><path d="M423.1,542.36l-1.76-1.71c.48-.5,1-1,1.47-1.48l1.48-1.45,1.72,1.75-1.46,1.44C424.06,541.39,423.57,541.87,423.1,542.36Z" transform="translate(-220.99 -115.99)" fill="#3d3c3b" fill-rule="evenodd"/><path d="M418,547.69,416.22,546c.95-1,1.88-2,2.84-3l1.78,1.69C419.9,545.68,419,546.69,418,547.69Z" transform="translate(-220.99 -115.99)" fill="#3d3c3b" fill-rule="evenodd"/><path d="M445.08,522.64l-1.55-1.91c1.08-.87,2.18-1.71,3.27-2.57l1.51,1.93C447.24,520.94,446.15,521.78,445.08,522.64Z" transform="translate(-220.99 -115.99)" fill="#3d3c3b" fill-rule="evenodd"/><path d="M439.38,527.33l-1.59-1.87c1.06-.89,2.11-1.79,3.19-2.66l1.56,1.9C441.47,525.56,440.43,526.45,439.38,527.33Z" transform="translate(-220.99 -115.99)" fill="#3d3c3b" fill-rule="evenodd"/><path d="M433.82,532.16l-1.64-1.83,3.12-2.74,1.61,1.85Z" transform="translate(-220.99 -115.99)" fill="#3d3c3b" fill-rule="evenodd"/><path d="M462.86,509.38l-1.4-2,3.42-2.34,1.38,2Z" transform="translate(-220.99 -115.99)" fill="#3d3c3b" fill-rule="evenodd"/><path d="M456.85,513.66l-1.45-2,1.68-1.22,1.69-1.2,1.43,2-1.68,1.19C458,512.85,457.41,513.27,456.85,513.66Z" transform="translate(-220.99 -115.99)" fill="#3d3c3b" fill-rule="evenodd"/><path d="M450.94,518.06l-1.49-1.94c1.11-.83,2.2-1.68,3.32-2.5l1.46,2C453.12,516.4,452,517.24,450.94,518.06Z" transform="translate(-220.99 -115.99)" fill="#3d3c3b" fill-rule="evenodd"/><path d="M469.09,511.83l10.41-7.08-.7-5s-5.52-.5-5.78-.08-2.11,6.31-2.44,7.35S469.09,511.83,469.09,511.83Z" transform="translate(-220.99 -115.99)" fill="#25124c"/><path d="M520.4,475.86a.92.92,0,0,0-.91-.44l-60.88,7.68a.92.92,0,0,0-.46,1.64l9,7a2.78,2.78,0,0,1,1.07,2.28l-.55,17a.93.93,0,0,0,.59.89,1,1,0,0,0,1-.25l7.36-8.31a.9.9,0,0,1,.78-.32.94.94,0,0,1,.72.46l9.58,16.47a.89.89,0,0,0,.59.43l.17,0a.92.92,0,0,0,.79-.39l31.06-43.14A.86.86,0,0,0,520.4,475.86Z" transform="translate(-220.99 -115.99)" fill="#43299d"/><path d="M520.06,475.54l-52.23,17a2.67,2.67,0,0,1,.39,1.46l-.55,17a.94.94,0,0,0,.59.89,1,1,0,0,0,1-.25l7.36-8.32.18-.13,0,0,43.53-27.3A.82.82,0,0,0,520.06,475.54Z" transform="translate(-220.99 -115.99)" fill="#31185e"/><g opacity="0.2"><path d="M961,436.39a2,2,0,0,1-2-2V420.2a2,2,0,0,1,4,0v14.18A2,2,0,0,1,961,436.39Z" transform="translate(-220.99 -115.99)" fill="#31185e"/><path d="M968.14,429.3H953.92a2,2,0,1,1,0-4h14.22a2,2,0,0,1,0,4Z" transform="translate(-220.99 -115.99)" fill="#31185e"/></g><path d="M1559.58,949l-21.65-17.75,10.23-11.11,22,19.67L1559.86,950Z" transform="translate(-220.99 -115.99)" fill="#f8bd8c"/><path d="M1576.94,937.61l-8.93-2.83a2.62,2.62,0,0,0-3.22,1.58c-1.24,3.32-4.17,9.08-9.91,10.15a2.54,2.54,0,0,0-2,2.16l-3.95,28.65a2.61,2.61,0,0,0,1.1,2.49h0a2.62,2.62,0,0,0,3.63-.66l25.64-36.89a2.58,2.58,0,0,0-.66-3.62l-1-.69A2.49,2.49,0,0,0,1576.94,937.61Z" transform="translate(-220.99 -115.99)" fill="#261a5b"/><path d="M1526,767.62s-15,95.32-13.28,99.3l46.67,55.22-16.07,21.51-54.52-51.49c-22.29-18.22-2.28-125.52-2.28-125.52Z" transform="translate(-220.99 -115.99)" fill="#351f66"/><path d="M1506.65,999.2l2.12-27.87,15,2-3.49,29.27-14.35-2.53Z" transform="translate(-220.99 -115.99)" fill="#f8bd8c"/><path d="M1526,1006.84l-2.8-8.89a2.61,2.61,0,0,0-3.14-1.75c-3.43.9-9.84,1.83-14-2.23a2.57,2.57,0,0,0-3-.41l-25.75,13.22a2.6,2.6,0,0,0,1.21,4.92l45-.26a2.61,2.61,0,0,0,2.6-2.62v-1.21A2.87,2.87,0,0,0,1526,1006.84Z" transform="translate(-220.99 -115.99)" fill="#261a5b"/><path d="M1530.71,769.24s16.07,24.53,13.71,57l-17.8,158.87-23.32-2.21.27-220Z" transform="translate(-220.99 -115.99)" fill="#31185e"/><path d="M1503.3,812a.23.23,0,0,1-.19-.09,44.06,44.06,0,0,0-6.53-6.35c-1.39-1.18-2.81-2.39-4.12-3.68a.25.25,0,1,1,.35-.35c1.29,1.27,2.72,2.47,4.09,3.64a46.1,46.1,0,0,1,6.6,6.43.25.25,0,0,1,0,.35A.25.25,0,0,1,1503.3,812Z" transform="translate(-220.99 -115.99)" fill="#232729"/><path d="M1529.39,651.61s1.07,7.26,3.17,15.29,7.15,34.76,6,41.77l-56.36-2.16s-1.16-29.06.31-36.3a105.45,105.45,0,0,0,1.81-18.34Z" transform="translate(-220.99 -115.99)" fill="#090329"/><path d="M1498.76,680.57l.93,17c.32,5.15,3.68,7.71,8.76,7.36,4.33-.3,8.25-2.82,8.49-7.15l-2.58-25.34Z" transform="translate(-220.99 -115.99)" fill="#f8bd8c"/><path d="M1499.4,692.8l16-13.95-16.82.22Z" transform="translate(-220.99 -115.99)" fill="#eab186"/><path d="M1503.42,685.35c-8,0-14.65-6.28-14.89-12.81l-.47-15.41c-.31-8.19,4.93-15.15,13.13-15.71,8.39-.59,18.17,5.63,18.75,14l.24,12.41C1520.37,677.41,1511.92,683.54,1503.42,685.35Z" transform="translate(-220.99 -115.99)" fill="#f8bd8c"/><path d="M1499.13,669.4h0l-1.54-.09a.81.81,0,0,1-.61-.35,1.23,1.23,0,0,1-.21-1l.62-2.81a.13.13,0,0,1,.16-.1.13.13,0,0,1,.1.15L1497,668a1,1,0,0,0,.17.83.57.57,0,0,0,.41.25l1.55.09a.14.14,0,0,1,.12.14A.12.12,0,0,1,1499.13,669.4Z" transform="translate(-220.99 -115.99)" fill="#090329"/><path d="M1507.16,657.55s-3.66-.34-3.71,1.14c0,0,0,1,3.19,1.24s4,0,4.32-.93S1508.88,657.57,1507.16,657.55Z" transform="translate(-220.99 -115.99)" fill="#090329"/><path d="M1491.54,657.79s3-.28,3.26,1.12c0,0,.13.94-2.52,1.13s-3.51-.16-3.74-.92S1490.1,657.8,1491.54,657.79Z" transform="translate(-220.99 -115.99)" fill="#090329"/><path d="M1499.2,676.59a4.94,4.94,0,0,1-3.3-1.35.25.25,0,0,1,0-.35.23.23,0,0,1,.35,0,4.32,4.32,0,0,0,3.47,1.2,3.32,3.32,0,0,0,2.85-1.91.24.24,0,0,1,.31-.15.23.23,0,0,1,.15.31,3.69,3.69,0,0,1-3.25,2.24Z" transform="translate(-220.99 -115.99)" fill="#090329"/><path d="M1521,668.84s-7.45-9.52-6.39-21.23c0,0,14.38,1.69,12.43,3.8s-5.5,13.37-5.5,13.37Z" transform="translate(-220.99 -115.99)" fill="#090329"/><path d="M1516.94,658.23s-9.51-4.56-32.59-6.36c0,0,.48-15.92,18.89-17.59,19.88-1.81,29.83,11.85,25.12,27l-8.64,2.26-2.15-14.73Z" transform="translate(-220.99 -115.99)" fill="#090329"/><path d="M1524.37,665.84a4.21,4.21,0,1,1-4.49-3.89A4.2,4.2,0,0,1,1524.37,665.84Z" transform="translate(-220.99 -115.99)" fill="#f8bd8c"/><path d="M1494.13,665.84a4.21,4.21,0,1,1-4.49-3.89A4.2,4.2,0,0,1,1494.13,665.84Z" transform="translate(-220.99 -115.99)" fill="#f8bd8c"/><path d="M1493.22,663.83a1.57,1.57,0,1,1-1.67-1.45A1.56,1.56,0,0,1,1493.22,663.83Z" transform="translate(-220.99 -115.99)" fill="#090329"/><path d="M1505.9,663.47a1.56,1.56,0,1,1-1.67-1.45A1.56,1.56,0,0,1,1505.9,663.47Z" transform="translate(-220.99 -115.99)" fill="#090329"/><path d="M1439.61,746.69,1436,751.5a5,5,0,0,1-1.6-.32c-.67-.18-1.33-.38-1.48-.42l-3-.74-3-.77-2.49-.65c-2.23-.59-4.45-1.19-6.67-1.82a37.67,37.67,0,0,0-6-1.35,4.09,4.09,0,0,1-.86-.17c-.14,0-.27-.12-.41-.16a.69.69,0,0,1-.33-.14.53.53,0,0,1-.13-.45.68.68,0,0,1,.49-.71,11.17,11.17,0,0,1,3.9-.37c.69,0,1.37.06,2.06.07h.93a2,2,0,0,0,1.18-.27c.47-.27-1.5-.74-3.54-1.14l-2.89-.56c-1.11-.2-2.83-.27-3.94-.46-.76-.14-1.19-.14-1.41-.93-.35-1.21.36-1.57,1.62-1.6h.72l9.92-.12-10.34-5c-.81-.43-1.3-.79-1-1.65.37-1,1.24-.78,2.23-.32,3.06,1.4,9.21,3.26,10,3.15s-4.29-3.55-6.81-5.23a1.55,1.55,0,0,1-.38-2.23c.49-.66,2.09.16,2.78.61l15.86,8.66-1.49-4.9,4.58,2.75c3.17,5,4.51,8,5,9.85C1440.07,746.23,1439.61,746.69,1439.61,746.69Z" transform="translate(-220.99 -115.99)" fill="#f8bd8c"/><path d="M1502.38,710.61s-4.58,29.38-13.19,52.88a11.94,11.94,0,0,1-14.93,7.27c-5.58-1.83-5.77-8.77-4.79-14.55l9-44.76Z" transform="translate(-220.99 -115.99)" fill="#bbabff"/><path d="M1485.38,749.29l-51.44-10.77-1.28,13,41.94,19.27Z" transform="translate(-220.99 -115.99)" fill="#bbabff"/><path d="M1521.26,698.12s4.56-.23,18.89,8.69l-9.44,62.43-45-.75-7-52.65a8.55,8.55,0,0,1,3.52-9.34l10.75-5.91,7.6-4h5.14l6.72-.65Z" transform="translate(-220.99 -115.99)" fill="#ab97ff"/><path d="M1543.31,729.62c0,22.46-2.86,41.16-9.23,41.16-11.52,0-11.52-18.21-11.52-40.68s5.16-25.14,11.52-25.14S1543.31,707.15,1543.31,729.62Z" transform="translate(-220.99 -115.99)" fill="#9889f4"/><path d="M1492.52,746.3s1.35-1.78-7.59-11.81c-.58-.65-1.35-2.86-1.94-2.22a1.88,1.88,0,0,0-.35,2l2.14,4.68-13.67-5.26c-.6-.28-2-.77-2.3-.19a1.24,1.24,0,0,0,.54,1.74c2.21,1.08,6.65,3.3,6,3.48a38.75,38.75,0,0,1-8.34-1.47c-.85-.25-1.57-.37-1.76.5s.28,1,1,1.22l8.84,2.88-8.53,1.24c-1,.16-1.54.52-1.14,1.45.26.61.61.56,1.24.59.92.05,2.3-.09,3.21,0,1.83.1,5.88.27,5.35.68-.21.28-1.16.38-1.68.44l-1.65.16a9.06,9.06,0,0,0-3.09.72.54.54,0,0,0-.32.62.41.41,0,0,0,.16.35.57.57,0,0,0,.28.08c.11,0,.22.07.34.09a3.48,3.48,0,0,0,.72,0,28.83,28.83,0,0,1,5,.44q2.77.39,5.55.74l4.56.55,2.47.27a14.69,14.69,0,0,0,2.56.27Z" transform="translate(-220.99 -115.99)" fill="#f8bd8c"/><path d="M1541.82,749.29l-51.45-10.77-1.28,13,43.29,19.12Z" transform="translate(-220.99 -115.99)" fill="#9889f4"/><path d="M1515.36,695.73l11.05,3.8s-7.58,11.2-21.62,10c-12.66-1-13.3-8.14-13.3-8.14l9.11-4.81Z" transform="translate(-220.99 -115.99)" fill="#f8bd8c"/><path d="M1442.08,740.54l-2.62,3.62-5.09,7-.46.64a1.62,1.62,0,0,1-2.11.37l-4.88-2.94-9.56-5.75h0L1415,742.1l-5.9-3.55-7.89-4.74a1.32,1.32,0,0,1-.47-1.91l8.18-11.3a1.6,1.6,0,0,1,2.11-.36l18.81,11.3,4.58,2.76,7.18,4.32A1.32,1.32,0,0,1,1442.08,740.54Z" transform="translate(-220.99 -115.99)" fill="#090329"/><path d="M1432,732.81l-4.58-2.75-1.2.23a2.37,2.37,0,0,0-1.79,1.79c-.22,1,2.57.24,3.63.36C1429.45,732.59,1430.76,732.72,1432,732.81Z" transform="translate(-220.99 -115.99)" fill="#f8bd8c"/><path d="M1289.94,990.6l-1.85-24.27L1275,968.05l3,25.49,12.5-2.21Z" transform="translate(-220.99 -115.99)" fill="#f8bd8c"/><path d="M1333.61,992.65l-1.85-24.27-13.06,1.71,3,25.5,12.49-2.21Z" transform="translate(-220.99 -115.99)" fill="#f8bd8c"/><path d="M1316.72,1003.79l2.6-9.73c.38-1.45,1.6-2.28,2.76-1.87,3,1,8.54,2.15,12.25-2.25a1.92,1.92,0,0,1,2.61-.41l22.18,14.89a3.06,3.06,0,0,1,1.19,2.59,2.61,2.61,0,0,1-2.34,2.8l-39.18-.93a2.63,2.63,0,0,1-2.21-2.93l0-1.32A3.46,3.46,0,0,1,1316.72,1003.79Z" transform="translate(-220.99 -115.99)" fill="#0b0635"/><path d="M1317,733.62l11.4,45a11.23,11.23,0,0,0,11.28,8.35,10.54,10.54,0,0,0,10.2-12l-8.66-45.63Z" transform="translate(-220.99 -115.99)" fill="#f8bd8c"/><path d="M1314.51,726l7.32,21.23,31.29-11.32-11.77-21.13c-3-5.67-9-8.4-16.66-8.18l1,.61A14.55,14.55,0,0,0,1314.51,726Z" transform="translate(-220.99 -115.99)" fill="#0b0635"/><path d="M1333.53,765.39C1352.2,754,1378.31,741,1378.31,741l9.77,9.19-40.6,34.37a11.88,11.88,0,1,1-14-19.14Z" transform="translate(-220.99 -115.99)" fill="#f8bd8c"/><path d="M1320.21,672.08a4.74,4.74,0,1,0,4.86-4.75A4.83,4.83,0,0,0,1320.21,672.08Z" transform="translate(-220.99 -115.99)" fill="#f8bd8c"/><path d="M1317.63,687.49l.81,16.19c.28,5.47-3.4,7.91-9.45,8.08-5.17.15-11-1.8-11-6.63l.11-24.55Z" transform="translate(-220.99 -115.99)" fill="#f8bd8c"/><path d="M1298.56,705.6,1318,691.85c.28-4.66-19.76-3.3-19.76-3.3l-.07,16.17Z" transform="translate(-220.99 -115.99)" fill="#eab186"/><path d="M1326.71,661.27l.21,15.82v.5c.07,7.8-4.1,15.22-13.36,15.59-11.12-.31-23.15-8.19-23.43-19.63l-.21-8.07-.12-4.65c.22-9.48,9-17,18.2-17.56.51,0,1,0,1.53,0A18,18,0,0,1,1326.71,661.27Z" transform="translate(-220.99 -115.99)" fill="#f8bd8c"/><path d="M1306.23,663.29s5-1,5.2.49c0,0,.09,1-2.92,1.49s-5.38.67-5.75-.22S1304.6,663.46,1306.23,663.29Z" transform="translate(-220.99 -115.99)" fill="#090329"/><path d="M1321.7,662.92s4.08.17,3.93,1.62c0,0,.19,1-2.49.83-3.05-.18-4.21-.49-4.37-1.45S1320.07,662.73,1321.7,662.92Z" transform="translate(-220.99 -115.99)" fill="#090329"/><path d="M1320.93,669.8a1.53,1.53,0,1,0,1.5-1.54A1.52,1.52,0,0,0,1320.93,669.8Z" transform="translate(-220.99 -115.99)" fill="#090329"/><path d="M1306.66,670.48a1.53,1.53,0,1,0,1.63-1.41A1.53,1.53,0,0,0,1306.66,670.48Z" transform="translate(-220.99 -115.99)" fill="#090329"/><path d="M1317.73,677.38a.21.21,0,0,1-.19-.11.23.23,0,0,1,.09-.3l1.29-.69a.4.4,0,0,0,.07-.5l-1.53-2.74a.21.21,0,0,1,.08-.29.21.21,0,0,1,.3.08l1.51,2.72a.83.83,0,0,1-.16,1.07l0,0-1.32.7A.17.17,0,0,1,1317.73,677.38Z" transform="translate(-220.99 -115.99)" fill="#090329"/><path d="M1272.53,1008.94v-4.25c0-4.91,4.93-13.79,4.93-17.06,0-2.66,9.06.78,12.41,2.14a2.2,2.2,0,0,1,1.37,1.62,15.91,15.91,0,0,0,4.56,8.39,11.65,11.65,0,0,1,3.28,6.74,2.24,2.24,0,0,1-2.33,2.42Z" transform="translate(-220.99 -115.99)" fill="#0b0635"/><path d="M1325.47,654.28c-.79-.9-7.12-3.14-7.82-3.31a28,28,0,0,0-9.48-.62c-6.06.64-12.42,3-13.59,9.71-.68,3.85-1.33,7.89-1.65,10.73a1.15,1.15,0,0,1-.42.78c-1,.84-2.22,3.71,2,12.91.49,1.07-1.85,2.47-2.86,1.87-3.24-1.94-8.2-7.35-10.27-22.48-2.38-17.31,6.77-19.62,9.46-19.93a1.21,1.21,0,0,0,1-.73c.94-2.22,4.81-9.25,16.55-10.26,6-.51,12.31,1.28,16.47,5.73a13.07,13.07,0,0,1,3.39,6.36c.63,3.29-1.07,6.53-2.34,9.5C1326,654.44,1325.6,654.42,1325.47,654.28Z" transform="translate(-220.99 -115.99)" fill="#090329"/><path d="M1335.89,803.89s8,14.37,9.84,77.88c1.79,63.72-.83,102.61-.83,102.61l-28.48,0L1304,807.66l7.69-6.17Z" transform="translate(-220.99 -115.99)" fill="#d6d6d7"/><path d="M1271.85,806.15s-4.71,5.22-4.12,35.56c.72,37.43,2.59,139,2.59,139l28,1.71,22-176.27-22.67-4.89Z" transform="translate(-220.99 -115.99)" fill="#c7c7c9"/><path d="M1287.29,673.25a3.5,3.5,0,1,0,3.58-3.5A3.51,3.51,0,0,0,1287.29,673.25Z" transform="translate(-220.99 -115.99)" fill="#f8bd8c"/><path d="M1313.72,686a2.47,2.47,0,0,1-2.06-.85c-1-1.33-.27-3.66-.23-3.76a.21.21,0,0,1,.27-.14h0a.15.15,0,0,1,.09,0,.24.24,0,0,1,.19.16,7.09,7.09,0,0,0,7.15.88.21.21,0,0,1,.24,0,.22.22,0,0,1,.06.24A6.34,6.34,0,0,1,1314,686Zm-2-4.22c-.16.62-.47,2.2.23,3.11a2.21,2.21,0,0,0,2,.67,6,6,0,0,0,4.72-2.63,7.64,7.64,0,0,1-6.66-.9A2.52,2.52,0,0,1,1311.77,681.74Z" transform="translate(-220.99 -115.99)" fill="#090329"/><path d="M1321.15,706.57h-41c-6,0-1,4.57-1.66,10.57l-11.7,96.71,74.28.48-8.1-97A11.81,11.81,0,0,0,1321.15,706.57Z" transform="translate(-220.99 -115.99)" fill="#0b0635"/><path d="M1292.18,731.81a38.72,38.72,0,0,1,.7-6.55c.68-2.27,4.19-6.54,4.19-6.54s.47-.31.82.54c.54,1.33-2.05,3.14-1,4.93S1292.18,731.81,1292.18,731.81Z" transform="translate(-220.99 -115.99)" fill="#f8bd8c"/><path d="M1299.32,744.76s-9.22-4-9.47-7.55c0,0,3.65-8.32,4.4-11,.83-2.92,7-10.81,9.26-11.36,6-1.47,6-1.13,6.2.29s-4.06,1.54-5.1,2.59a20.71,20.71,0,0,0-1.64,3.85c.82-1.23,2.76-2.75,4.58-2.61,2.26.16,4.29.1,4.76,1.18.85,2-4.41,1.48-4.86,2.71-.16.44-1.51,3.08-1.51,3.08.88-.42,1.77-1.61,2.66-1.83,1.15-.29,5.5-.26,5.54.83.06,1.7-3.87,1.54-4.66,2.62-.31.43-1.24,2.58-1.24,2.58a10.45,10.45,0,0,1,2.58-1.08c.91-.08,4.41.51,4.16,1.22-.68,1.86-3.74.69-5.57,2.74-1.52,1.71-3.67,6.62-6.09,7.71A10.18,10.18,0,0,0,1299.32,744.76Z" transform="translate(-220.99 -115.99)" fill="#f8bd8c"/><path d="M1384.66,729.17a62.64,62.64,0,0,1-4.36,7.9c-1.78,2.4-5,9.65,1.15,12.89s18.73-5.4,18.73-5.4a9,9,0,0,0,2.7-8.63c2-1.75.74-6,.74-6l2.13-4c-4.55-2.24-4.15,2.52-9.34,6.77-1.25,1-4.7,1.78-6.36,2.44h0a33.11,33.11,0,0,1-4.27,1.37h0a42.35,42.35,0,0,0,.28-6.25C1385.86,728.14,1384.66,729.17,1384.66,729.17Z" transform="translate(-220.99 -115.99)" fill="#f8bd8c"/><path d="M1326,654.33c.18.58-2.56,2.54-14.54,2.54s-17.52,6.85-19.85,8.07-3.44-6.08,0-9.73,13.1-9.07,18.14-8.41S1323.53,646.49,1326,654.33Z" transform="translate(-220.99 -115.99)" fill="#090329"/><path d="M1297.9,701.4l10.42,5.32v5.44l-18.54-5.38Z" transform="translate(-220.99 -115.99)" fill="#090329"/><path d="M1318.58,701.4l-11,5.85v6l19.61-5.92Z" transform="translate(-220.99 -115.99)" fill="#090329"/><path d="M1260.86,733.54l-4.19,33.76c0,4.87-.71,15.55,3.21,18.35l3.46,2.35c5.71-7.18,7.5-4.86,9.48-10.67l6.08-42L1261.47,729Z" transform="translate(-220.99 -115.99)" fill="#f8bd8c"/><path d="M1266.85,713.72l-9.53,20.63,30.09,10.28,5.37-17.72a14.6,14.6,0,0,0-25.93-13.19Z" transform="translate(-220.99 -115.99)" fill="#0b0635"/><path d="M1259.16,775c10.29-14,30.69-37.82,30.69-37.82l10.62,6L1275.07,785a9.37,9.37,0,0,1-14.29,3A9.54,9.54,0,0,1,1259.16,775Z" transform="translate(-220.99 -115.99)" fill="#f8bd8c"/><path d="M825.12,651.05s-24.41-10.27-35,4.21c-7.66,10.51-8.1,30,5.75,37.46,13.19,7.06,14.47-38.33,14.47-38.33Z" transform="translate(-220.99 -115.99)" fill="#010103"/><path d="M813.72,697.13l-2.85,14.51c-1,5.1-4.67,7.22-9.7,6.21-4.28-.86-7.87-3.88-7.54-8.24L799.21,687Z" transform="translate(-220.99 -115.99)" fill="#f8bd8c"/><path d="M811.28,708.81l-12.07-18.06,14.51,6.5-2.18,10.28Z" transform="translate(-220.99 -115.99)" fill="#eab186"/><path d="M808.89,698.37c8.67,1.15,16.66-4.24,17.78-10.76l2.55-15.38c1.41-8.16-4.45-16-13.23-17.72-9-1.75-19.27,3.25-21,11.56l-1.9,12.4C791.61,688.05,798.6,696.37,808.89,698.37Z" transform="translate(-220.99 -115.99)" fill="#f8bd8c"/><path d="M805.78,665.46l-8.61,10.59L787.28,661Z" transform="translate(-220.99 -115.99)" fill="#010103"/><path d="M790.44,674.35a4.08,4.08,0,1,0,4.8-3.18A4.07,4.07,0,0,0,790.44,674.35Z" transform="translate(-220.99 -115.99)" fill="#f8bd8c"/><path d="M817.52,684.76h-.07l-1.31-.1a.12.12,0,1,1,0-.24l1.3.09a.76.76,0,0,0,.6-.2.75.75,0,0,0,.26-.58l0-3.34a.13.13,0,0,1,.12-.12.12.12,0,0,1,.12.13l0,3.34a1,1,0,0,1-1.05,1Z" transform="translate(-220.99 -115.99)" fill="#090516"/><path d="M810.68,670.83s3.79-.17,3.77,1.41c0,0-.05,1.07-3.35,1.15s-4.14-.19-4.41-1.21S808.91,670.77,810.68,670.83Z" transform="translate(-220.99 -115.99)" fill="#090516"/><path d="M825.29,672s-3.06-.67-3.48.77c0,0-.26,1,2.43,1.52s3.6.28,4-.5S826.76,672.23,825.29,672Z" transform="translate(-220.99 -115.99)" fill="#090516"/><path d="M823.59,677.8a1.62,1.62,0,0,0,1.5,1.72,1.63,1.63,0,1,0-1.5-1.72Z" transform="translate(-220.99 -115.99)" fill="#090516"/><path d="M809.43,676.5A1.59,1.59,0,1,0,811.1,675,1.61,1.61,0,0,0,809.43,676.5Z" transform="translate(-220.99 -115.99)" fill="#090516"/><path d="M814.44,692.64c-3,0-4.74-4.38-4.81-4.57a.13.13,0,0,1,.16-.16l7.86,2.73a.11.11,0,0,1,.08.08.13.13,0,0,1,0,.12A4.6,4.6,0,0,1,814.44,692.64ZM810,688.23c.43.94,2.08,4.17,4.47,4.17a4.21,4.21,0,0,0,2.95-1.59Z" transform="translate(-220.99 -115.99)" fill="#090516"/><path d="M825.12,651.05s12.06,3.73,7.38,19.71a.56.56,0,0,1-.68.37l-5.9-1.66a.56.56,0,0,1-.4-.52l0-4.59a.55.55,0,0,0-1-.24l-2.36,4.65a.57.57,0,0,1-.57.3l-25.79-3.36a.55.55,0,0,1-.47-.45l-2-12.13a.54.54,0,0,1,.43-.62L805.6,650h.14Z" transform="translate(-220.99 -115.99)" fill="#010103"/><path d="M882.87,797l12.68,3.85s8.45,7,7.53,11.23c-.68,3.1-3.75,6.44-6.46,8a2.09,2.09,0,0,1-3.07-1.34c-.51-2.25-1.55-5.73-3.41-7.85,0,0-10.86-.57-14.26-5.07-1.73-2.28-1.58-13.13-1.58-13.13Z" transform="translate(-220.99 -115.99)" fill="#f8bd8c"/><path d="M784,997.46l-.47-31.86-16.22-.86.45,34.22,15.64.1Z" transform="translate(-220.99 -115.99)" fill="#f8bd8c"/><path d="M761.93,1004.87l3.3-8.52a2.55,2.55,0,0,1,3.18-1.51c3.29,1.1,9.5,2.4,13.84-1.3a2.54,2.54,0,0,1,2.94-.21l24.32,14.54a2.55,2.55,0,0,1-1.49,4.74l-44-3.09a2.56,2.56,0,0,1-2.38-2.73l.09-1.18A2.39,2.39,0,0,1,761.93,1004.87Z" transform="translate(-220.99 -115.99)" fill="#ff637d"/><path d="M845.36,1000.21l-4.27-31.57-16.2,1.07,4.52,33.92,15.54-1.75Z" transform="translate(-220.99 -115.99)" fill="#f8bd8c"/><path d="M824.35,1010.2l2.25-8.86a2.56,2.56,0,0,1,3-1.87c3.4.7,9.72,1.26,13.59-2.93a2.51,2.51,0,0,1,2.88-.57l25.9,11.55a2.59,2.59,0,0,1,1.51,2.21,2.55,2.55,0,0,1-2.44,2.67l-44,2.15a2.55,2.55,0,0,1-2.68-2.42l-.06-1.18A2.37,2.37,0,0,1,824.35,1010.2Z" transform="translate(-220.99 -115.99)" fill="#ff637d"/><path d="M819.66,644.8a9.14,9.14,0,1,1-8-10.1A9.11,9.11,0,0,1,819.66,644.8Z" transform="translate(-220.99 -115.99)" fill="#010103"/><path d="M813,742.54l16.05-4.88,2.12,22a7.5,7.5,0,0,1-6.62,8.08l-.15,0a8.38,8.38,0,0,1-9.52-6.71Z" transform="translate(-220.99 -115.99)" fill="#f8bd8c"/><path d="M880.92,796.53l-55.85-49.24s-5.42,5.78-8.28,8.56A7,7,0,0,0,817,766l58.36,38.55,3-8Z" transform="translate(-220.99 -115.99)" fill="#f8bd8c"/><path d="M801.22,874,818.9,985.62H854c-2-16.47-12.5-99.7-17-126.34-11.9-70.8-19.48-87.81-19.48-87.81l-26.42-4.73L788.2,771l22.84.71Z" transform="translate(-220.99 -115.99)" fill="#0b0635"/><path d="M788.2,771l-10.2-.32s-17.4,18.52-18.31,52.78c-.6,22.85-1.86,128.87-1.22,162.18h36.08L801.22,874,811,771.7Z" transform="translate(-220.99 -115.99)" fill="#07052d"/><path d="M797.9,710.91l-25.12,3.51a5.15,5.15,0,0,0-4.38,6l8.7,51h40.43l10.55-49a7.7,7.7,0,0,0-6.76-9Z" transform="translate(-220.99 -115.99)" fill="#fcfcfc"/><path d="M759.32,724.81l7.28,17.94s-24.18,7.08-29.14,10.2a36,36,0,0,0-4.41,3.47,12.4,12.4,0,0,1-3.59,2.6,2.43,2.43,0,0,1-3-.93,13.42,13.42,0,0,1-2.71-9.81c.59-4,5-6.13,7.92-8.62Z" transform="translate(-220.99 -115.99)" fill="#f8bd8c"/><path d="M768.59,715.91a13.06,13.06,0,0,1,17.19,4.26c4,6.13,5.8,15-.46,18.8-4.48,2.75-25.24,9.49-25.24,9.49L751,723.28Z" transform="translate(-220.99 -115.99)" fill="#fcfcfc"/><path d="M766.91,783.89,740.51,749a9.5,9.5,0,0,0-12.71-1.22c-3.91,3-3.11,8.61.41,11.92l30.84,29.38Z" transform="translate(-220.99 -115.99)" fill="#f8bd8c"/><path d="M795,706.47a3.75,3.75,0,1,1-3.75-3.74A3.75,3.75,0,0,1,795,706.47Z" transform="translate(-220.99 -115.99)" fill="#ff637d"/><path d="M791.85,708.6s.25,4-2.82,5.17a14.88,14.88,0,0,1-4.86,1.21s-.16-4,1.62-5.8S791.85,708.6,791.85,708.6Z" transform="translate(-220.99 -115.99)" fill="#ff637d"/><path d="M809.88,724.35a9.6,9.6,0,0,1,18.76-4c.9,3.76,1.54,10.37,2.13,17.4l-19.75,6Z" transform="translate(-220.99 -115.99)" fill="#fcfcfc"/><path d="M772.24,803,765,795.78a2.53,2.53,0,0,1,0-3.58L783.22,774a2.53,2.53,0,0,1,3.58,0l7.24,7.22a2.53,2.53,0,0,1,0,3.58L775.83,803A2.56,2.56,0,0,1,772.24,803Z" transform="translate(-220.99 -115.99)" fill="#c5a2fd"/><path d="M789.81,787.54l-10.24-6,1.4-1.94a1.63,1.63,0,0,0-.25-2.21,2.46,2.46,0,0,0-2.65-.34l-11.44,5.61-8.09,6.38c5.25,5,9.14,5.38,11.5,4.8.25.1.49.22.75.31l8.78,3.26a1.93,1.93,0,0,0,2.34-.43c.38-.47.62-1.27-1-2.23l1.64,1a2,2,0,0,0,2.46-.49c.5-.62.15-1.55-.79-2.23l1.27.6a2,2,0,0,0,2.63-.65,1.51,1.51,0,0,0-.7-2.08l-1.8-1,2.23.73a2.19,2.19,0,0,0,2.76-.82A1.64,1.64,0,0,0,789.81,787.54Z" transform="translate(-220.99 -115.99)" fill="#f8bd8c"/><path d="M794,704.86s-5.1.95-6.57,1.33c0,0,4.55,11.08,19.34,10,16.77-1.2,6.88-11.71,6.88-11.71l-6.39-1.11Z" transform="translate(-220.99 -115.99)" fill="#ff637d"/><path d="M588.76,1002.59,594.49,971l17.5,2.3-4.08,34.15-16.73-3,.83-1Z" transform="translate(-220.99 -115.99)" fill="#f8bd8c"/><path d="M678.4,982.32l-18.31-26.44,14-10.68,21.27,27.06-14,9.68-.1-1.28Z" transform="translate(-220.99 -115.99)" fill="#f8bd8c"/><path d="M703.5,971.35l-9.66-5.06a3.05,3.05,0,0,0-4,1.13c-2.09,3.56-6.63,9.59-13.43,9.67a3,3,0,0,0-2.8,2.1l-10.37,32.06a3,3,0,0,0,5.06,3.08l37-37.16a3,3,0,0,0,0-4.3l-1-1A3.11,3.11,0,0,0,703.5,971.35Z" transform="translate(-220.99 -115.99)" fill="#261a5b"/><path d="M599,806.08c-5.14,48.68,7.19,87.23,7.19,87.23l52.57,86.38,31.56-26.5-47.89-79.62-7.08-67.49Z" transform="translate(-220.99 -115.99)" fill="#1d134c"/><path d="M662.9,806.08s.54,18.4-8.37,47.09S620,992.06,620,992.06l-37.22-2.2,34.4-183.78Z" transform="translate(-220.99 -115.99)" fill="#16103d"/><path d="M604.12,695.63s-13.1.82-21.83,41.75L611,747.07Z" transform="translate(-220.99 -115.99)" fill="#c7c7c9"/><path d="M627.37,688.07l-23.25,7.56L599,806.08l65.82.68,4.46-44.44-6.37-66.69-25.18-7.56Z" transform="translate(-220.99 -115.99)" fill="#c7c7c9"/><path d="M644.19,673.83l-.28,18.71c-.09,6.32-3.91,8.92-9.95,8.76-5.16-.13-10.78-2.71-10.47-8.27l1.75-28.3Z" transform="translate(-220.99 -115.99)" fill="#f8bd8c"/><path d="M623.63,692.45l20.62-16.65c.28-5.38-19.69-3.81-19.69-3.81l-.93,18.89Z" transform="translate(-220.99 -115.99)" fill="#eab186"/><path d="M634.39,684.89c-9.55,2.28-19.28-3.61-21.47-11.58l-4.49-16.7a19,19,0,0,1,12.3-23.3c9.83-3.07,22.06,2.11,25.19,12.25l3.34,13.05C652.28,670.36,645.63,681.38,634.39,684.89Z" transform="translate(-220.99 -115.99)" fill="#f8bd8c"/><path d="M630.82,652.67s-5.37.59-5.13,2.06c0,0,.2,1,3.4.57s5.66-1,5.77-2S632.52,652.35,630.82,652.67Z" transform="translate(-220.99 -115.99)" fill="#221344"/><path d="M615.1,654.09s-4.29.49-4,2c0,0-.12,1.06,2.7.68,3.2-.43,4.41-.84,4.51-1.86S616.81,653.77,615.1,654.09Z" transform="translate(-220.99 -115.99)" fill="#221344"/><path d="M644.52,657.29l-3.94-15s-6.92,6.29-11.86,3.36-12.25,2.7-12.25,2.7-12.56,8.24-16.25,1.8-1.16-19.75,13.21-23.67c11.85-3.23,26.6-1.07,34.58,3,2.33,1.19,4.7,3.76,5.44,8.24,1.48,9-.82,17.78-3.91,21.89Z" transform="translate(-220.99 -115.99)" fill="#221344"/><path d="M653,658.67a4.86,4.86,0,1,1-6.12-3.33A5,5,0,0,1,653,658.67Z" transform="translate(-220.99 -115.99)" fill="#f8bd8c"/><path d="M618.06,665.59a4.86,4.86,0,1,1-6.12-3.33A5,5,0,0,1,618.06,665.59Z" transform="translate(-220.99 -115.99)" fill="#f8bd8c"/><path d="M685,735.9l3,32.57c.47,5,2.23,16.06-1.57,19.33l-3.36,2.78c-6.6-6.91-11.25-13.41-13.86-19.25L662,737.49l22.14-8.25Z" transform="translate(-220.99 -115.99)" fill="#f8bd8c"/><path d="M682.55,772.91c-16.61-7.27-47.47-18-47.47-18l-6.41,10.95,44.8,24.41a9.74,9.74,0,0,0,14.42-4.78A9.92,9.92,0,0,0,682.55,772.91Z" transform="translate(-220.99 -115.99)" fill="#f8bd8c"/><path d="M662.9,695.63s17.66,3.92,23.76,38.31l-26.09,9.51L659.78,725Z" transform="translate(-220.99 -115.99)" fill="#c6c6c6"/><path d="M634.73,754.57l-11.05-6s-10.36-1-12.61,2.39c-1.65,2.52-1.87,6.81-1.09,9.64a2,2,0,0,0,2.95,1.19c1.86-1.16,4.92-2.78,7.58-2.94,0,0,7.63,6.94,12.93,6.25,2.7-.36,9.95-7.68,9.95-7.68Z" transform="translate(-220.99 -115.99)" fill="#f8bd8c"/><path d="M647.58,766.42H611.23v-4.09h36.35a2,2,0,0,1,0,4.09Z" transform="translate(-220.99 -115.99)" fill="#3c2a91"/><path d="M617.48,660.51a1.59,1.59,0,1,1-1.87-1.24A1.58,1.58,0,0,1,617.48,660.51Z" transform="translate(-220.99 -115.99)" fill="#221344"/><path d="M632.15,658a1.59,1.59,0,1,1-2-1.07A1.59,1.59,0,0,1,632.15,658Z" transform="translate(-220.99 -115.99)" fill="#221344"/><path d="M622.34,667.49l-1.5-.42-.05,0a.86.86,0,0,1-.41-1l.93-3.11a.24.24,0,0,1,.28-.16.23.23,0,0,1,.16.29l-.93,3.12a.43.43,0,0,0,.17.5l1.47.41a.23.23,0,0,1,.16.28.25.25,0,0,1-.17.16Z" transform="translate(-220.99 -115.99)" fill="#221344"/><path d="M627.13,677.46a16.51,16.51,0,0,0,3.57-1.23.21.21,0,0,0,.11-.3c0-.12-.18-.1-.31-.11-6.29-.35-6.91.57-7,1.43,0,.06,0,.16,0,.29a.22.22,0,0,0,.2.25A12.82,12.82,0,0,0,627.13,677.46Z" transform="translate(-220.99 -115.99)" fill="#221344"/><path d="M593.44,766.42H610s-2.26,3.35-14.62,2Z" transform="translate(-220.99 -115.99)" fill="#f8bd8c"/><path d="M635.07,766.42H585.81a5.83,5.83,0,0,1-5.62-4.25l-3-10.56-1.42-5.11-1.44-5.15-.08-.28-1.55-5.56-2.28-8.15a2,2,0,0,1,1.94-2.54h49.83a2.38,2.38,0,0,1,2.32,1.78Z" transform="translate(-220.99 -115.99)" fill="#43299d"/><path d="M618.11,1011.9l-3.51-11.18a3.28,3.28,0,0,0-4-2.19c-4.3,1.13-12.36,2.28-17.61-2.81a3.24,3.24,0,0,0-3.73-.51L557,1011.81a3.28,3.28,0,0,0,1.52,6.19l56.53-.34a3.27,3.27,0,0,0,3.26-3.29v-1.52A3.44,3.44,0,0,0,618.11,1011.9Z" transform="translate(-220.99 -115.99)" fill="#261a5b"/><path d="M502.22,752.86l25-.78a162.65,162.65,0,0,0-1.55,25.75,13.16,13.16,0,1,1-26.31,0Z" transform="translate(-220.99 -115.99)" fill="#0b0635"/><path d="M570.18,748.56l-54.89,21a10.92,10.92,0,0,0-4.82,15.08c3,5.54,8.61,3.85,14,.48l49.27-27.16Z" transform="translate(-220.99 -115.99)" fill="#0b0635"/><path d="M533.75,995.29l-17.9-1.12-2.28-24.35,17.9,1.11Z" transform="translate(-220.99 -115.99)" fill="#fba799"/><path d="M518.9,776.53s5.71,14.41,10.15,85.05c4.49,71.26,6.84,118.43,6.84,118.43l-27.36.44L483.07,781.76l8.47-7.12Z" transform="translate(-220.99 -115.99)" fill="#c5a2fd"/><path d="M472.89,991.76l-17.28.58.89-25.82,17.9,1.11Z" transform="translate(-220.99 -115.99)" fill="#fba799"/><path d="M475.84,773.56s-15.47,18.25-18.32,51.93c-3.3,38.84-3.2,150.09-3.2,150.09l24.62.79,33.23-200.3Z" transform="translate(-220.99 -115.99)" fill="#bb9df4"/><path d="M456.41,736.46l21.38,13.24c-5.74,10.44-10.22,15.89-12.59,22.27-2.66,7.18-8.67,12.67-15.64,9.45a13.11,13.11,0,0,1-6.58-17Z" transform="translate(-220.99 -115.99)" fill="#0b0635"/><path d="M463.46,719.92c4.47-6.22,10.79-7.9,16.84-5.88,6.54,2.18,5.47,17.57,3.1,24-1.7,4.62-1.2,3.81-5.54,11.68l-21.68-12.61Z" transform="translate(-220.99 -115.99)" fill="#0b0635"/><path d="M521.08,660.7s14.24-.45,13.32,16.25c-.6,10.83-2.42,25-2.33,32,0,1.74.48,14.43-1.26,14.37-10.93-.34-27.17-9.71-45.3-10-.64,0-4.48.34-4.67-.27-.84-2.76-1.65-20.87-.44-30.77,1.48-12.14,7.45-21,14.13-24.73S515.72,654.9,521.08,660.7Z" transform="translate(-220.99 -115.99)" fill="#31185e"/><path d="M529.06,664s-30.86-14.75-40.7-.91c-7.15,10.05-2,30.1,11.18,37,12.59,6.54,13.3-36.49,13.3-36.49l11.46,1.93Z" transform="translate(-220.99 -115.99)" fill="#31185e"/><path d="M516.48,704l-2.54,13.79c-.88,4.85-4.34,6.89-9.11,6-4.08-.77-7.51-3.59-7.25-7.71l5-21.51Z" transform="translate(-220.99 -115.99)" fill="#f8bd8c"/><path d="M514.85,713s-12.57-4.58-14.43-16.18l16.35,5.78Z" transform="translate(-220.99 -115.99)" fill="#eab186"/><path d="M510.13,706.69c8.12,1.63,17.69-4.51,19.27-11.25l2-15a16,16,0,0,0-11.15-19.18c-8.38-2.29-18.51,2.41-20.81,11l-2.77,12.86C494.57,695,500.54,704.07,510.13,706.69Z" transform="translate(-220.99 -115.99)" fill="#f8bd8c"/><path d="M514,681.56s3.53-.68,3.71.68c0,0,.1.93-3,1.46s-3.92.41-4.29-.43S512.35,681.75,514,681.56Z" transform="translate(-220.99 -115.99)" fill="#0b0635"/><path d="M528.78,683s-2.84-.87-3.34.22c0,0-.31.75,2.18,1.46s3.38.61,3.76,0S530.15,683.27,528.78,683Z" transform="translate(-220.99 -115.99)" fill="#0b0635"/><path d="M524.42,667.06c-1.5,1.94-3.12,3.79-4.79,5.59a28.63,28.63,0,0,1-6.78,5.42,40.23,40.23,0,0,1-4,1.93c-.62.26-7,3-7.68,2.64s-1.86-16.76-1.43-16.65,13.27-7.3,13.27-7.3l8.61.86Z" transform="translate(-220.99 -115.99)" fill="#31185e"/><path d="M523.34,659.67c1.38.39,14.24,4.43,14.34,17.41v.09l-.13,2.15a1.2,1.2,0,0,1-1.44,1.11l-8.23-1.68a11.92,11.92,0,0,1-7.06-4.4c-.83-1.08-1.46-2-1.26-2.22.41-.36.54-8.29.57-11.45a1.2,1.2,0,0,1,1.3-1.18l1.68.13A.59.59,0,0,1,523.34,659.67Z" transform="translate(-220.99 -115.99)" fill="#31185e"/><path d="M503.94,730.43a12.2,12.2,0,0,1,11.54-11.9c6.88-.38,16.87,5.79,14.55,14.43-1.87,7-2.76,19.12-2.76,19.12l-3.4.54-21-.47Z" transform="translate(-220.99 -115.99)" fill="#0b0635"/><path d="M476.71,713.23h21.53l15.08,2.69,9,4.41a3.88,3.88,0,0,1,2.13,3.86l-.57,5.33s5.64,23.84-3,28.76l3.56,20.32-53.68-4V728.83C470.8,725.94,473.8,713.29,476.71,713.23Z" transform="translate(-220.99 -115.99)" fill="#0b0635"/><path d="M525.51,689.27a1.59,1.59,0,0,0,1.63,1.54,1.57,1.57,0,0,0,1.41-1.72,1.59,1.59,0,0,0-1.62-1.54A1.57,1.57,0,0,0,525.51,689.27Z" transform="translate(-220.99 -115.99)" fill="#0b0635"/><path d="M513.32,687.66A1.6,1.6,0,0,0,515,689.2a1.57,1.57,0,0,0,1.41-1.72,1.59,1.59,0,0,0-1.63-1.54A1.57,1.57,0,0,0,513.32,687.66Z" transform="translate(-220.99 -115.99)" fill="#0b0635"/><path d="M519.08,695.41a.12.12,0,1,1,0-.23l1.26,0a.75.75,0,0,0,.54-.26.72.72,0,0,0,.18-.58l-.32-3.19a.11.11,0,0,1,.1-.13.13.13,0,0,1,.14.11l.32,3.19a1,1,0,0,1-.24.75,1,1,0,0,1-.71.35l-1.26,0Z" transform="translate(-220.99 -115.99)" fill="#090516"/><path d="M514.84,717.92l1.52-5.56-14.79-4.76-4,7.31,17,3.7Z" transform="translate(-220.99 -115.99)" fill="#0b0635"/><path d="M505,675.27A110.09,110.09,0,0,0,502.4,709c.21,2.66-1.77,5.54-4.3,4.68a73.57,73.57,0,0,1-7.18-3.63,3.68,3.68,0,0,1-2-3.85c1-6.86,4.05-25.56,7.36-32.32,2.05-4.18,4.23-4.87,5.91-4.51a3.63,3.63,0,0,1,2.8,3.67Z" transform="translate(-220.99 -115.99)" fill="#31185e"/><path d="M517.16,701.88a.13.13,0,0,1-.08,0l-1.71-1.38a.11.11,0,0,1,0-.16.11.11,0,0,1,.15,0h0a23.2,23.2,0,0,1,4.52.2l1.2.13a.13.13,0,0,1,.11.1.14.14,0,0,1-.09.13l-2.81.71-1.3.33Zm-1.39-1.4,1.41,1.15,1.25-.31,2.17-.55-.55-.07A23.16,23.16,0,0,0,515.77,700.48Z" transform="translate(-220.99 -115.99)" fill="#090516"/><path d="M471.06,816.51s-2.26.22-3.61,13.76c-.09.87-1.21,3-.33,3a1.91,1.91,0,0,0,1.75-1.13l2-4.8,5.46,13.78c.21.64.78,2,1.44,1.84a1.28,1.28,0,0,0,.93-1.61c-.71-2.38-2.1-7.21-1.55-6.87s3.44,4.73,4.64,7.21c.39.81.8,1.43,1.57,1s.53-.87.24-1.57l-3.92-8.55,6.8,5.49c.81.64,1.44.78,1.86-.16.27-.61,0-.84-.41-1.32-.6-.72-1.65-1.65-2.24-2.36-1.18-1.43-3.84-4.55-3.16-4.44.35,0,1.08.6,1.47.94s.84.75,1.26,1.12a9.29,9.29,0,0,0,2.66,1.81.58.58,0,0,0,.69-.19.46.46,0,0,0,.15-.36.6.6,0,0,0-.14-.26c-.06-.1-.1-.22-.16-.31a2.8,2.8,0,0,0-.47-.56,29.47,29.47,0,0,1-3.1-4c-1.08-1.55-2.16-3.1-3.27-4.64-.89-1.26-1.8-2.51-2.72-3.77l-1.49-2a14.42,14.42,0,0,0-1.56-2.08Z" transform="translate(-220.99 -115.99)" fill="#f8bd8c"/><path d="M478.51,818.8l-15.72-53.21A11,11,0,1,0,443.52,776l24.87,49.52Z" transform="translate(-220.99 -115.99)" fill="#0b0635"/><path d="M450.55,1000.67l3.25-8.19A2.55,2.55,0,0,1,457,991c3.27,1.06,9.43,2.32,13.73-1.23a2.58,2.58,0,0,1,2.91-.2l24.14,14a2.44,2.44,0,0,1,1.23,2.28,2.49,2.49,0,0,1-2.7,2.27l-43.59-3.05a2.5,2.5,0,0,1-2.36-2.63l.08-1.14A2.38,2.38,0,0,1,450.55,1000.67Z" transform="translate(-220.99 -115.99)" fill="#0b0635"/><path d="M511.49,1004l2.33-8.51a2.61,2.61,0,0,1,3-1.81c3.47.66,9.91,1.17,13.87-2.87a2.72,2.72,0,0,1,2.95-.55l26.36,11a2.46,2.46,0,0,1,1.54,2.12,2.54,2.54,0,0,1-2.49,2.58l-44.9,2.21a2.54,2.54,0,0,1-2.73-2.33l-.06-1.13A2.22,2.22,0,0,1,511.49,1004Z" transform="translate(-220.99 -115.99)" fill="#0b0635"/><path d="M908,1011.11l-3.89-.76,18.27-92.69a25.28,25.28,0,0,1,3.33-8.38l3.37,2.09a20.9,20.9,0,0,0-2.81,7.06Z" transform="translate(-220.99 -115.99)" fill="#31185e"/><path d="M988.32,1011.15,968.17,918a20.3,20.3,0,0,0-1.15-3.62l3.66-1.53a24.11,24.11,0,0,1,1.37,4.32l20.15,93.12Z" transform="translate(-220.99 -115.99)" fill="#31185e"/><path d="M1080.4,997.37l-10.4-33-16.56-.87,10.38,35.37,16,.1Z" transform="translate(-220.99 -115.99)" fill="#f8bd8c"/><path d="M1022.09,868.91l14.38.91A23.88,23.88,0,0,1,1058,887.19l22.54,86.61-31.24-2.9-25.19-76.08Z" transform="translate(-220.99 -115.99)" fill="#d6d6d7"/><path d="M1020.05,997.37l-.48-32.53L1003,964l.46,34.93,16,.11Z" transform="translate(-220.99 -115.99)" fill="#f8bd8c"/><path d="M946.06,849.91l32.54,19.25,33.61.69c9.81,0,17.8,5.9,18,15.68.45,30.08-1.88,92.59-3.3,92.31-1.91-.38-29.46,0-29.46,0l-2.81-68.3L973,911.88c-5.33,0-20.87,1-25.62-1.35-9.82-5-17.36-10.29-8.8-36.85Z" transform="translate(-220.99 -115.99)" fill="#ccccce"/><path d="M1058.92,818l18.09-9s14.76-1.09,23.73.86a1.69,1.69,0,0,1-.52,3.34l-8.28-.9,4.46,3a1.89,1.89,0,0,1-2,3.23c-2.48-1.37-10.27-4.93-17.86-.67l7.09,3.18a2.24,2.24,0,0,1,.74,3.55,2.27,2.27,0,0,1-2,.71l-6.59-.85s-7.75,3.15-14.93-.28Z" transform="translate(-220.99 -115.99)" fill="#f8bd8c"/><path d="M1045.79,865.11h54.92v-6.18h-54.92a3.09,3.09,0,1,0,0,6.18Z" transform="translate(-220.99 -115.99)" fill="#ea4266"/><path d="M1093.47,865.11h78.85a9.33,9.33,0,0,0,9-6.81l15.55-55.72a3.21,3.21,0,0,0-3.09-4.07H1114a3.82,3.82,0,0,0-3.71,2.85Z" transform="translate(-220.99 -115.99)" fill="#ff637d"/><path d="M1119.3,872.45h-4v138.28h4Z" transform="translate(-220.99 -115.99)" fill="#31185e"/><path d="M1212.39,872.45h-4v138.28h4Z" transform="translate(-220.99 -115.99)" fill="#31185e"/><path d="M1060.9,872.45h-4v138.28h4Z" transform="translate(-220.99 -115.99)" fill="#31185e"/><path d="M995,879.78h242.38V865.11H995Z" transform="translate(-220.99 -115.99)" fill="#0b0635"/><path d="M1006.49,734.83,986.11,736c.81-3.21,1.62-6.44,2.11-9.72S988.68,720,990,717c.5-1.13,2-3,1.87-4.31s-.77-1.26-2.23-1.58a26.88,26.88,0,0,0-7.15-.69,33.8,33.8,0,0,0-9.67,2.15c-11.85,4.28-16,19.12-22.45,28.57-2,2.93-3.91,5.93-5.64,9-9.68,17.35.63,40.33.63,40.33l47.27,2.07C1007.66,766.63,1006.49,734.83,1006.49,734.83Z" transform="translate(-220.99 -115.99)" fill="#31185e"/><path d="M1005.83,789c5.72,14,13.23,43.55,13.23,43.55l45.27-21.26,6,15.5L1031.91,853l-42-1.75-3.12-32.77,18.36-27.74Z" transform="translate(-220.99 -115.99)" fill="#b69eef"/><path d="M998.27,779.9a23,23,0,0,1,7.56,9.12l2.72,78.21s-48.13,10.11-74.27-1.54c0,0,.74-65.5,15.63-82.84,0,0,4.69-9.2,28.55-9.25A32.86,32.86,0,0,1,998.27,779.9Z" transform="translate(-220.99 -115.99)" fill="#c5a2fd"/><path d="M996.18,745.26a4.4,4.4,0,1,0,5-3.72A4.39,4.39,0,0,0,996.18,745.26Z" transform="translate(-220.99 -115.99)" fill="#f8bd8c"/><path d="M988,761.83,986,776.89c-.73,5.28-4.38,7.67-9.59,6.92-4.46-.64-8.31-3.53-8.23-8l4.43-23.54Z" transform="translate(-220.99 -115.99)" fill="#f8bd8c"/><path d="M986.3,771.74c-9,1.34-14.93-13.11-14.93-13.11l16.82,2.42-1.89,11.37Z" transform="translate(-220.99 -115.99)" fill="#eab186"/><path d="M983.23,763.93c7.31-.57,16.89-5.81,17.69-13.09l1.8-17.19a17,17,0,0,0-14.53-18.71c-9.33-1.34-19.61,4.88-21,14.18L965.94,743C965,753.66,971.76,762.79,983.23,763.93Z" transform="translate(-220.99 -115.99)" fill="#f8bd8c"/><path d="M982.46,735.24s3.81-.8,4,.43c0,0,.11.84-3.22,1.49s-4.23.57-4.64-.17S980.66,735.5,982.46,735.24Z" transform="translate(-220.99 -115.99)" fill="#31185e"/><path d="M998,736.1s-3.21,0-3.39,1.2c0,0-.1.8,2.71.74s3.7-.41,3.92-1.07S999.56,736,998,736.1Z" transform="translate(-220.99 -115.99)" fill="#31185e"/><path d="M985,741.5a1.56,1.56,0,0,1-1.91,1.07A1.54,1.54,0,1,1,985,741.5Z" transform="translate(-220.99 -115.99)" fill="#31185e"/><path d="M999.25,741.66a1.55,1.55,0,1,1-1.07-1.9A1.55,1.55,0,0,1,999.25,741.66Z" transform="translate(-220.99 -115.99)" fill="#31185e"/><path d="M990.36,748.09l-.21,0-2-.43a.13.13,0,0,1-.1-.16.12.12,0,0,1,.15-.1l2,.44a.77.77,0,0,0,.65-.17,1.42,1.42,0,0,0,.52-1l.22-3.78a.12.12,0,0,1,.13-.12.14.14,0,0,1,.13.14l-.22,3.77a1.68,1.68,0,0,1-.62,1.22A1.15,1.15,0,0,1,990.36,748.09Z" transform="translate(-220.99 -115.99)" fill="#31185e"/><path d="M987.54,755h0a8.46,8.46,0,0,1-5.11-2.65l-.16-.16a.13.13,0,1,1,.12-.22s.09.06.23.2a8.14,8.14,0,0,0,4.94,2.58.13.13,0,0,1,.12.14A.12.12,0,0,1,987.54,755Z" transform="translate(-220.99 -115.99)" fill="#31185e"/><path d="M960.83,742.81a4.4,4.4,0,1,0,5-3.72A4.39,4.39,0,0,0,960.83,742.81Z" transform="translate(-220.99 -115.99)" fill="#f8bd8c"/><path d="M966.3,739.16c-1.38.58.66-18.16,5-21.72,2-1.61,16.68-7.87,20.28-5.72,3.93,2.34-3.51,13-3.51,13S982.47,732.44,966.3,739.16Z" transform="translate(-220.99 -115.99)" fill="#31185e"/><path d="M988.18,724.37l14.32,11.46,3.88-.42s6-16.86-14.24-23.68S988.18,724.37,988.18,724.37Z" transform="translate(-220.99 -115.99)" fill="#31185e"/><path d="M1044.55,851.32l11.9-6.45s11.16-1.11,13.58,2.58c1.78,2.71,2,7.33,1.18,10.38a2.14,2.14,0,0,1-3.19,1.27c-2-1.24-5.29-3-8.16-3.16,0,0-8.21,7.48-13.91,6.72-2.91-.38-10.71-8.25-10.71-8.25Z" transform="translate(-220.99 -115.99)" fill="#f8bd8c"/><path d="M966,766.25c.65.24,23.14,1.18,23.21,1.89s.68,11.71.68,11.71l-3.2,7.33s-9.53,1.3-10.3,1.06-9.2-2.36-9.2-2.36Z" transform="translate(-220.99 -115.99)" fill="#c5a2fd"/><path d="M976.43,806.64l6.39,32a5.45,5.45,0,0,0,5.16,4.59l55.53,2.41a5.44,5.44,0,0,1,5.23,5.44v12.21a5.46,5.46,0,0,1-5.6,5.45l-64.38-1.56h-.32a7.64,7.64,0,0,1-5.62-1.84.81.81,0,0,0-.9-.12.87.87,0,0,1-.45.07c-2.22-.23-18.38-3.89-23.74-60.5-1-10.45,13.91-15.25,21.55-10.52,2.68,1.65,5.24,4.38,5.75,7.59Z" transform="translate(-220.99 -115.99)" fill="#bb9df4"/><path d="M990.77,916.11h-44.9a52.9,52.9,0,0,1-19.36-3.49c-16-6.23-27-20.67-30.15-39.61l-11.14-66a2.47,2.47,0,1,1,4.88-.82l11.15,65.95c3,17.44,12.55,30.17,27.07,35.84a48.07,48.07,0,0,0,17.56,3.15h44.89a2.47,2.47,0,1,1,0,4.94Z" transform="translate(-220.99 -115.99)" fill="#10071a"/><path d="M999.73,1006.92l1.85-9.14a2.61,2.61,0,0,1,2.95-2.06c3.5.54,10,.79,13.71-3.68a2.59,2.59,0,0,1,2.92-.71l27,10.48a2.6,2.6,0,0,1-.7,5l-44.78,4.4a2.62,2.62,0,0,1-2.86-2.34l-.12-1.21A2.43,2.43,0,0,1,999.73,1006.92Z" transform="translate(-220.99 -115.99)" fill="#261a5b"/><path d="M1220.31,839.54H1204a.77.77,0,0,0-.77.77v24a.76.76,0,0,0,.77.77h16.35a.77.77,0,0,0,.77-.77v-3.78a.76.76,0,0,1,.62-.75,7.63,7.63,0,0,0,0-15,.76.76,0,0,1-.62-.75v-3.78A.76.76,0,0,0,1220.31,839.54Zm1.87,16.64a.76.76,0,0,1-1.1-.69v-6.32a.77.77,0,0,1,1.1-.7,4.35,4.35,0,0,1,2.36,3.86A4.31,4.31,0,0,1,1222.18,856.18Z" transform="translate(-220.99 -115.99)" fill="#bb9df4"/><path d="M1057.1,1006l2.8-8.89a2.61,2.61,0,0,1,3.14-1.75c3.43.9,9.84,1.83,14-2.23a2.57,2.57,0,0,1,3-.41l25.75,13.21a2.61,2.61,0,0,1-1.21,4.93l-45-.26A2.61,2.61,0,0,1,1057,1008v-1.21A2.85,2.85,0,0,1,1057.1,1006Z" transform="translate(-220.99 -115.99)" fill="#261a5b"/></g></g><g clip-path="url(#clip-path-2)"><g opacity="0.06"><path d="M895,360.74,681.75,615.37l4.53,3.8L899.53,364.54Z" transform="translate(-220.99 -115.99)" fill="#474ebb"/><path d="M292.26,501.87l-1.78,5.64,392,123.55,1.78-5.64Z" transform="translate(-220.99 -115.99)" fill="#474ebb"/><path d="M306,573.88a70.45,70.45,0,1,0-83.49-54.29A70.44,70.44,0,0,0,306,573.88Z" transform="translate(-220.99 -115.99)" fill="#8ec3cb"/><path d="M536,212.23l-5.52,2.09L681.61,612.75l5.53-2.1Z" transform="translate(-220.99 -115.99)" fill="#474ebb"/><path d="M541.49,211l-2.27,5.46,357,148.92,2.28-5.46Z" transform="translate(-220.99 -115.99)" fill="#474ebb"/><path d="M1247.73,182.58,888.54,359.52l2.61,5.31,359.19-176.95Z" transform="translate(-220.99 -115.99)" fill="#474ebb"/><path d="M898.87,360.15l-3.1,5,377.59,232.27,3.1-5Z" transform="translate(-220.99 -115.99)" fill="#474ebb"/><path d="M1617.61,315.51,1273.05,592.58l3.7,4.61,344.56-277.07Z" transform="translate(-220.99 -115.99)" fill="#474ebb"/><path d="M923.16,469.48a124.78,124.78,0,1,0-135.44-113A124.76,124.76,0,0,0,923.16,469.48Z" transform="translate(-220.99 -115.99)" fill="#ebb044"/><path d="M1625.34,405a87.58,87.58,0,1,0-93.23-81.47A87.57,87.57,0,0,0,1625.34,405Z" transform="translate(-220.99 -115.99)" fill="#474ebb"/><path d="M636.52,225.19a94.36,94.36,0,1,0-103.58,84.2A94.41,94.41,0,0,0,636.52,225.19Z" transform="translate(-220.99 -115.99)" fill="#474ebb"/><path d="M1307.5,222.08a69.19,69.19,0,1,0-95.38,21.73A69.26,69.26,0,0,0,1307.5,222.08Z" transform="translate(-220.99 -115.99)" fill="#d34e4e"/><path d="M1400.34,683.61c72.47-72.52,72.47-190.1,0-262.63a185.51,185.51,0,0,0-262.46,0c-72.47,72.53-72.47,190.11,0,262.63A185.49,185.49,0,0,0,1400.34,683.61Z" transform="translate(-220.99 -115.99)" fill="#8ec3cb"/><path d="M686.74,686.17a104.92,104.92,0,1,0-117.55-90.44A104.91,104.91,0,0,0,686.74,686.17Z" transform="translate(-220.99 -115.99)" fill="#d34e4e"/><path d="M287.76,567.21a62.32,62.32,0,0,0,45.3-15.43,146.38,146.38,0,0,0-5.73-17.28,40.37,40.37,0,0,0-19.24-20.88c.06-.1.15-.2.21-.3,3.7-6,4.82-12.86,4.77-19.6-.05-6.4-1.2-13-5.12-18.42s-11-9.36-18.35-8.7c-7.87.71-14.22,6.54-16.9,13s-2.42,13.58-1.89,20.44a34.68,34.68,0,0,0,4.07,14.09c-5.19,3.13-9.76,7.72-14.15,13.36s-4.29,6.05-7.11,12.88c-1.38,3.34-2.77,6.82-4,10.63A62.26,62.26,0,0,0,287.76,567.21Z" transform="translate(-220.99 -115.99)" fill="#fff"/><path d="M539.07,296.71a82.41,82.41,0,0,0,59.87-20.39,190.53,190.53,0,0,0-7.56-22.85,53.28,53.28,0,0,0-25.45-27.59c.09-.13.21-.27.29-.4,4.88-7.86,6.37-17,6.3-25.9-.07-8.47-1.59-17.2-6.75-24.33s-14.58-12.38-24.27-11.51c-10.4.95-18.77,8.64-22.33,17.22s-3.2,17.94-2.5,27a45.59,45.59,0,0,0,5.38,18.61c-6.83,4.14-12.9,10.21-18.69,17.68-5.92,7.65-5.67,8-9.4,17-1.84,4.42-3.65,9-5.22,14.05A82.27,82.27,0,0,0,539.07,296.71Z" transform="translate(-220.99 -115.99)" fill="#fff"/><path d="M667.83,675.44a88.61,88.61,0,0,0,64.39-22,207.19,207.19,0,0,0-8.12-24.56,57.38,57.38,0,0,0-27.37-29.69,4.27,4.27,0,0,0,.3-.44c5.26-8.44,6.86-18.28,6.78-27.84-.07-9.11-1.73-18.5-7.26-26.17s-15.67-13.31-26.09-12.37c-11.19,1-20.19,9.3-24,18.52S643,570.23,643.75,580a49.56,49.56,0,0,0,5.79,20c-7.36,4.44-13.88,11-20.11,19-6.36,8.23-6.11,8.6-10.11,18.3-2,4.76-3.92,9.7-5.62,15.12A88.41,88.41,0,0,0,667.83,675.44Z" transform="translate(-220.99 -115.99)" fill="#fff"/><path d="M1615.05,389.34a76.55,76.55,0,0,0,55.58-18.94,181.5,181.5,0,0,0-7-21.2A49.47,49.47,0,0,0,1640,323.59a3.67,3.67,0,0,1,.27-.38c4.52-7.29,5.9-15.78,5.84-24-.07-7.85-1.49-16-6.27-22.59s-13.52-11.48-22.52-10.67c-9.66.88-17.42,8-20.73,16s-3,16.66-2.32,25.07a42.84,42.84,0,0,0,5,17.29c-6.35,3.83-12,9.46-17.35,16.4-5.51,7.1-5.27,7.43-8.73,15.8-1.71,4.1-3.4,8.36-4.85,13A76.27,76.27,0,0,0,1615.05,389.34Z" transform="translate(-220.99 -115.99)" fill="#fff"/><path d="M905.77,452.83a107.1,107.1,0,0,0,77.73-26.47,247,247,0,0,0-9.81-29.65,69.16,69.16,0,0,0-33-35.82c.11-.19.25-.34.37-.52,6.33-10.21,8.27-22.07,8.17-33.62-.08-11-2.08-22.32-8.76-31.6S921.54,279.09,909,280.22c-13.51,1.21-24.38,11.22-29,22.35s-4.15,23.3-3.24,35.07a59.56,59.56,0,0,0,7,24.18c-8.88,5.37-16.75,13.23-24.26,22.94-7.68,9.94-7.38,10.39-12.21,22.1-2.38,5.75-4.74,11.71-6.78,18.25A106.76,106.76,0,0,0,905.77,452.83Z" transform="translate(-220.99 -115.99)" fill="#fff"/><path d="M1245.45,242.8a61.24,61.24,0,0,0,44.47-15.16,143.34,143.34,0,0,0-5.6-17,39.62,39.62,0,0,0-18.9-20.5c.07-.1.16-.2.22-.3,3.63-5.84,4.73-12.62,4.68-19.23,0-6.28-1.18-12.77-5-18.07s-10.83-9.19-18-8.55c-7.73.69-13.94,6.42-16.6,12.79s-2.38,13.33-1.85,20.07a34.06,34.06,0,0,0,4,13.84c-5.08,3.07-9.59,7.56-13.88,13.12s-4.22,6-7,12.64c-1.37,3.3-2.72,6.69-3.88,10.44A61,61,0,0,0,1245.45,242.8Z" transform="translate(-220.99 -115.99)" fill="#fff"/><path d="M1259.11,719.69a173,173,0,0,0,125.66-42.81,403,403,0,0,0-15.85-47.94,111.83,111.83,0,0,0-53.4-57.9c.18-.28.42-.55.59-.84,10.25-16.49,13.37-35.66,13.2-54.33-.15-17.78-3.34-36.09-14.18-51.08s-30.56-26-50.9-24.14c-21.84,2-39.41,18.13-46.89,36.14s-6.72,37.66-5.23,56.7c1.06,13.65,4.79,27.5,11.29,39.08-14.37,8.66-27.08,21.4-39.22,37.08-12.43,16.05-11.92,16.79-19.74,35.72-3.85,9.29-7.66,18.92-11,29.49A172.69,172.69,0,0,0,1259.11,719.69Z" transform="translate(-220.99 -115.99)" fill="#fff"/></g></g></svg>